<svg width="196" height="132" viewBox="0 0 196 132" fill="none" xmlns="http://www.w3.org/2000/svg">
<g clip-path="url(#clip0_5_10070)">
<path d="M16.7998 16.8H39.4998L65.4998 42.8C63.4998 44.8 62.6998 47.6 63.0998 50.2H16.8998" stroke="#231F20" stroke-width="2" stroke-miterlimit="10"/>
<path d="M180.8 42.8C180.8 20 162.3 1.5 139.5 1.5C125.9 1.5 113.8 8.1 106.3 18.2C101.5 24.4 98.2002 33.8 98.2002 42.8" stroke="#94CCC1" stroke-width="3" stroke-miterlimit="10"/>
<path d="M152.4 88.5V98.9L183.9 106.9C189.8 108.4 193.9 113.7 193.9 119.7V130.2H85.1001V119.7C85.1001 113.7 89.2001 108.4 95.1001 106.9L126.6 98.9V88.5" stroke="#94CCC1" stroke-width="3" stroke-miterlimit="10"/>
<path d="M79.7998 42.9L105.7 17H115.8" stroke="#231F20" stroke-width="2" stroke-miterlimit="10"/>
<path d="M144.7 111.3H160.6C160.6 111.3 165.3 115.7 168.3 118.5V130.2H110.7V118.6C113.5 115.8 115.1 114.2 118 111.3H134.2" stroke="#94CCC1" stroke-width="3" stroke-miterlimit="10"/>
<path d="M134.2 111.3L79.7998 56.9" stroke="#231F20" stroke-width="2" stroke-miterlimit="10"/>
<path d="M72.9001 59.7C78.3125 59.7 82.7001 55.3124 82.7001 49.9C82.7001 44.4876 78.3125 40.1 72.9001 40.1C67.4877 40.1 63.1001 44.4876 63.1001 49.9C63.1001 55.3124 67.4877 59.7 72.9001 59.7Z" stroke="#F88600" stroke-width="4" stroke-miterlimit="10"/>
<path d="M139.3 88.5H154.6L168 75.1L168.3 39.5C168.3 23.6 155.4 10.7 139.5 10.7C123.6 10.7 110.7 23.6 110.7 39.5V75.1L124 88.5H139.3Z" stroke="#94CCC1" stroke-width="3" stroke-miterlimit="10"/>
<path d="M106.4 65.4C104.1 65.4 102.2 63.5 102.2 61.2V44.1C102.2 41.8 104.1 39.9 106.4 39.9C108.7 39.9 110.6 41.8 110.6 44.1V61.2C110.7 63.5 108.8 65.4 106.4 65.4Z" stroke="#94CCC1" stroke-width="3" stroke-miterlimit="10"/>
<path d="M102.2 42.8C96.7999 42.8 92.3999 47.2 92.3999 52.6C92.3999 58 96.7999 62.4 102.2 62.4" stroke="#94CCC1" stroke-width="3" stroke-miterlimit="10"/>
<path d="M172.5 65.4C174.8 65.4 176.7 63.5 176.7 61.2V44.1C176.7 41.8 174.8 39.9 172.5 39.9C170.2 39.9 168.3 41.8 168.3 44.1V61.2C168.3 63.5 170.2 65.4 172.5 65.4Z" stroke="#94CCC1" stroke-width="3" stroke-miterlimit="10"/>
<path d="M176.7 42.8C182.1 42.8 186.5 47.2 186.5 52.6C186.5 58 182.1 62.4 176.7 62.4" stroke="#94CCC1" stroke-width="3" stroke-miterlimit="10"/>
<path d="M145.9 11.4V22.1L143.2 29.4H135.7L133 22.1V11.4" stroke="#94CCC1" stroke-width="3" stroke-miterlimit="10"/>
<path d="M121.9 16.6V27.9L126.1 32.8" stroke="#94CCC1" stroke-width="3" stroke-miterlimit="10"/>
<path d="M157 16.6V27.9L152.8 32.8" stroke="#94CCC1" stroke-width="3" stroke-miterlimit="10"/>
<path d="M145.1 74.2H133.9C129.5 74.2 125.9 70.6 125.9 66.2V64.6H153.2V66.2C153.1 70.5 149.5 74.2 145.1 74.2Z" stroke="#94CCC1" stroke-width="3" stroke-miterlimit="10"/>
<path d="M126.5 41.4C125.9 41.4 125.3 41.5 124.8 41.6C126.5 42.1 127.7 43.7 127.7 45.5C127.7 47.8 125.8 49.7 123.5 49.7C121.6 49.7 120.1 48.5 119.6 46.8C119.5 47.3 119.4 47.9 119.4 48.5C119.4 52.4 122.6 55.6 126.5 55.6C130.4 55.6 133.6 52.4 133.6 48.5C133.6 44.6 130.4 41.4 126.5 41.4Z" fill="#94CCC1"/>
<path d="M152.4 41.4C151.8 41.4 151.2 41.5 150.7 41.6C152.4 42.1 153.6 43.7 153.6 45.5C153.6 47.8 151.7 49.7 149.4 49.7C147.5 49.7 146 48.5 145.5 46.8C145.4 47.3 145.3 47.9 145.3 48.5C145.3 52.4 148.5 55.6 152.4 55.6C156.3 55.6 159.5 52.4 159.5 48.5C159.5 44.6 156.3 41.4 152.4 41.4Z" fill="#94CCC1"/>
<path d="M181.6 61.1V73C181.6 77.3 178.1 80.8 173.8 80.8H139.8" stroke="#94CCC1" stroke-width="3" stroke-miterlimit="10"/>
<path d="M156.4 123.8C158.168 123.8 159.6 122.367 159.6 120.6C159.6 118.833 158.168 117.4 156.4 117.4C154.633 117.4 153.2 118.833 153.2 120.6C153.2 122.367 154.633 123.8 156.4 123.8Z" stroke="#94CCC1" stroke-width="3" stroke-miterlimit="10"/>
<path d="M122.8 123.8C124.567 123.8 126 122.367 126 120.6C126 118.833 124.567 117.4 122.8 117.4C121.033 117.4 119.6 118.833 119.6 120.6C119.6 122.367 121.033 123.8 122.8 123.8Z" stroke="#94CCC1" stroke-width="3" stroke-miterlimit="10"/>
<path d="M95.4004 114.5C95.5004 114.9 101.6 120.7 101.8 120.9C102 121.1 101.8 130.2 101.8 130.2" stroke="#94CCC1" stroke-width="3" stroke-miterlimit="10"/>
<path d="M93.2002 123.8V130.2" stroke="#94CCC1" stroke-width="3" stroke-miterlimit="10"/>
<path d="M183.6 114.5C183.5 114.9 177.4 120.7 177.2 120.9C177 121.1 177.2 130.2 177.2 130.2" stroke="#94CCC1" stroke-width="3" stroke-miterlimit="10"/>
<path d="M185.8 123.8V130.2" stroke="#94CCC1" stroke-width="3" stroke-miterlimit="10"/>
<path d="M124 24.4C128.087 24.4 131.4 21.0869 131.4 17C131.4 12.9131 128.087 9.59998 124 9.59998C119.913 9.59998 116.6 12.9131 116.6 17C116.6 21.0869 119.913 24.4 124 24.4Z" fill="white" stroke="#F88600" stroke-width="4" stroke-miterlimit="10"/>
<path d="M9.4 24.4C13.4869 24.4 16.8 21.0869 16.8 17C16.8 12.9131 13.4869 9.59998 9.4 9.59998C5.31309 9.59998 2 12.9131 2 17C2 21.0869 5.31309 24.4 9.4 24.4Z" fill="white" stroke="#F88600" stroke-width="4" stroke-miterlimit="10"/>
<path d="M9.4 57.2C13.4869 57.2 16.8 53.8869 16.8 49.8C16.8 45.7131 13.4869 42.4 9.4 42.4C5.31309 42.4 2 45.7131 2 49.8C2 53.8869 5.31309 57.2 9.4 57.2Z" fill="white" stroke="#F88600" stroke-width="4" stroke-miterlimit="10"/>
<path d="M51.9 116.4C55.9869 116.4 59.3 113.087 59.3 109C59.3 104.913 55.9869 101.6 51.9 101.6C47.8131 101.6 44.5 104.913 44.5 109C44.5 113.087 47.8131 116.4 51.9 116.4Z" fill="white" stroke="#F88600" stroke-width="4" stroke-miterlimit="10"/>
<path d="M139.5 123.8C143.587 123.8 146.9 120.487 146.9 116.4C146.9 112.313 143.587 109 139.5 109C135.413 109 132.1 112.313 132.1 116.4C132.1 120.487 135.413 123.8 139.5 123.8Z" stroke="#F88600" stroke-width="4" stroke-miterlimit="10"/>
<path d="M110.7 87.7H72.8999L56.8999 103.7" stroke="#231F20" stroke-width="2" stroke-miterlimit="10"/>
</g>
<defs>
<clipPath id="clip0_5_10070">
<rect width="195.3" height="131.7" fill="white"/>
</clipPath>
</defs>
</svg>
