<svg width="93" height="100" viewBox="0 0 93 100" fill="none" xmlns="http://www.w3.org/2000/svg">
<path d="M61.5381 21.5974C59.4671 21.5974 57.2482 21.4494 55.7689 19.9701C54.1417 18.3429 54.1417 15.8281 54.1417 13.6092C54.2896 9.61512 54.2896 5.62104 54.4375 1.62695H5.91681C3.25409 1.62695 1.03516 3.84589 1.03516 6.50861V94.2305C1.03516 96.8932 3.25409 99.1122 5.91681 99.1122H69.3784C72.0411 99.1122 74.26 96.8932 74.26 94.2305V21.4494L73.8162 21.0057C69.8221 21.4494 65.6801 21.5974 61.5381 21.5974ZM48.8162 34.4672C48.0766 35.2068 46.7452 34.6151 45.8576 35.2068C45.2659 35.5027 45.118 36.0944 44.8221 36.6861C44.3784 37.7216 44.0825 38.6092 43.6387 39.6447C43.3428 40.5323 43.047 41.4199 43.3428 42.1595C43.6387 42.8991 44.3784 43.3429 44.6742 44.0826C45.118 45.1181 44.2304 46.3015 43.3428 47.1891C42.4553 48.0767 41.2718 48.9642 40.2363 48.3725C39.4967 47.9287 39.3488 46.5974 38.4612 46.4494C38.1653 46.4494 37.8695 46.4494 37.7215 46.4494C36.0943 46.7453 34.615 47.1891 33.1357 47.7808C32.8399 47.9287 32.544 48.0767 32.3961 48.2246C32.2482 48.5204 32.2482 48.8163 32.1002 49.1122C31.9523 50.4435 31.9523 51.7749 31.8044 53.1063C30.0292 52.8104 28.2541 52.6625 26.4789 52.9583C25.8872 52.2187 26.331 51.0352 26.0352 49.9997C25.7393 49.2601 24.9997 48.8163 24.26 48.5204C23.3724 48.0767 22.6328 47.7808 21.7452 47.337C21.3014 47.0412 20.7097 46.8932 20.118 46.8932C18.7866 46.8932 17.7511 47.9287 17.0115 48.9642C15.976 47.7808 14.9405 46.5974 13.7571 45.4139C13.6091 45.1181 13.3133 44.9701 13.3133 44.6743C13.3133 44.3784 13.4612 44.0826 13.4612 43.7867C13.7571 43.195 14.2008 42.4554 14.6446 42.0116C14.7926 41.8636 14.9405 41.7157 14.9405 41.4199C14.9405 41.2719 14.9405 41.124 14.7926 40.8281C14.2008 39.4968 13.6091 38.3133 13.0174 36.982C12.8695 36.6861 12.7215 36.5382 12.5736 36.2423C11.9819 35.7986 11.2423 36.0944 10.6505 36.0944C9.46711 36.0944 8.57954 34.911 8.28368 33.8755C7.98782 32.692 8.28368 31.5086 8.57954 30.4731C8.72746 30.0293 8.72746 29.7335 9.17125 29.4376C9.76297 28.9938 10.3547 29.2897 11.0943 29.2897C12.5736 29.2897 13.4612 27.6625 14.0529 26.1832C14.6446 24.8518 15.0884 23.3725 14.4967 22.0412C14.0529 21.4494 13.3133 20.7098 13.6091 20.1181C13.7571 19.9701 13.905 19.6743 14.0529 19.5264C14.7926 18.6388 15.5322 17.8991 16.1239 17.0116C16.2718 16.8636 16.4198 16.7157 16.5677 16.5678C16.8636 16.4199 17.1594 16.5678 17.4553 16.7157C18.3428 17.1595 19.0825 17.7512 19.5263 18.4909C21.4494 17.4554 23.5204 16.7157 25.7393 16.4199C25.8872 15.3843 26.0352 12.5737 26.7748 12.1299C27.0707 11.982 31.3606 12.1299 31.3606 11.982C31.8044 13.4613 32.1002 14.9406 32.2482 16.4199C33.5795 16.4199 34.9109 16.8636 36.0943 17.6033C36.9819 18.0471 37.8695 18.7867 38.757 18.3429C39.9405 17.8991 40.3843 15.9761 41.5677 16.2719C41.8636 16.2719 42.1594 16.5678 42.4553 16.7157C43.1949 17.3074 43.9346 17.8991 44.3784 18.7867C44.8221 19.6743 44.9701 20.7098 44.3784 21.4494C43.9346 22.0412 42.8991 22.4849 42.8991 23.2246C42.8991 23.5204 43.047 23.8163 43.1949 23.9642C43.7866 25.1477 44.2304 26.3311 44.8221 27.5145C45.118 27.9583 45.2659 28.55 45.8576 28.698C46.3014 28.8459 46.8931 28.698 47.4849 28.8459C48.5204 28.9938 49.4079 30.1772 49.4079 31.2128C49.5559 32.3962 49.1121 33.4317 48.8162 34.4672Z" fill="#D5F1EA"/>
<path d="M28.9942 42.4557C34.6155 42.4557 39.0534 37.8699 39.0534 32.3966C39.0534 29.5859 38.0179 27.219 36.0948 25.148C34.1717 23.225 31.6569 22.1895 28.8463 22.1895C23.225 22.1895 18.7871 26.7753 18.7871 32.2486C18.935 38.0179 23.3729 42.4557 28.9942 42.4557ZM28.9942 24.5563C31.0652 24.5563 33.1362 25.296 34.4676 26.7753C35.9469 28.2545 36.6865 30.3255 36.6865 32.2486C36.6865 36.5386 33.1362 40.0889 28.8463 40.0889C24.5563 40.0889 21.006 36.5386 21.006 32.2486C21.006 27.9587 24.7043 24.5563 28.9942 24.5563Z" fill="#005E64"/>
<path d="M13.7575 41.4201L11.2427 45.1184L16.4202 50.2959L20.1184 47.6332C21.4498 48.3728 23.077 48.9645 24.5563 49.4083L25.4439 53.8462H32.8403L33.58 49.4083C35.0592 48.9645 36.6865 48.3728 38.0178 47.6332L41.7161 50.148L46.8936 44.9704L44.3788 41.2722C45.1184 39.9409 45.7101 38.3136 46.1539 36.8344L50.5918 35.9468V28.5503L46.1539 27.8107C45.7101 26.3314 45.1184 24.7042 44.3788 23.3728L47.0415 19.6746L41.864 14.4971L38.0178 17.1598C36.6865 16.4202 35.0592 15.8284 33.58 15.3846L32.6924 10.9468H25.2959L24.5563 15.3846C23.077 15.8284 21.4498 16.4202 20.1184 17.1598L16.4202 14.4971L11.2427 19.6746L13.9054 23.3728C13.1658 24.7042 12.574 26.3314 12.1303 27.8107L7.69238 28.6983V36.0947L12.1303 36.9823C12.4261 38.4616 13.0178 40.0888 13.7575 41.4201ZM9.76339 30.7693L13.7575 30.0296L13.9054 29.29C14.3492 27.5148 14.9409 25.7397 15.9764 24.1125L16.4202 23.5207L13.9054 20.2663L16.4202 17.7515L19.8226 19.9704L20.4143 19.5267C21.8936 18.4912 23.8166 17.8994 25.4439 17.4557L26.1835 17.3077L27.0711 13.1657H30.6214L31.361 17.1598L32.1007 17.3077C33.8758 17.6036 35.651 18.3432 37.2782 19.3787L37.8699 19.8225L41.2723 17.6036L43.7871 20.1184L41.4202 23.2249L41.864 23.8166C42.8995 25.2959 43.4912 27.219 43.935 28.8462L44.0829 29.5858L48.077 30.3255V33.8758L44.0829 34.6154L43.935 35.503C43.6391 37.2781 42.8995 39.0533 41.864 40.6805L41.4202 41.2722L44.0829 44.6746L41.5681 47.1894L38.1658 44.9704L37.574 45.4142C36.0948 46.4497 34.3196 47.0415 32.5445 47.4852L31.8048 47.6332L31.0652 51.4793H27.5149L26.6273 47.6332L25.8876 47.4852C24.1125 47.1894 22.3374 46.4497 20.7101 45.4142L20.1184 44.9704L16.7161 47.1894L14.2013 44.6746L16.4202 41.2722L15.9764 40.6805C14.9409 39.2012 14.3492 37.4261 13.9054 35.6509L13.7575 34.9113L9.76339 34.1716V30.7693Z" fill="#005E64"/>
<path d="M87.2778 38.9051V35.2069C87.2778 32.6921 85.3548 30.769 82.84 30.769C80.3252 30.769 78.4021 32.6921 78.4021 35.2069V38.9051H76.627V41.1241H78.4021V44.0827H76.627V46.3016H78.4021V92.4554L81.8045 98.9643C81.9524 99.4081 82.3962 99.704 82.9879 99.704C83.4317 99.704 83.8755 99.4081 84.1713 98.9643L87.5737 92.4554V46.4495H90.5323V64.0531H92.7512V38.9051H87.2778ZM80.621 35.3548C80.621 34.1714 81.5086 33.2838 82.692 33.2838C83.8755 33.2838 84.763 34.1714 84.763 35.3548V39.0531H80.4731V35.3548H80.621ZM80.621 41.272H84.911V44.2306H80.621V41.272ZM84.911 92.0116L82.84 96.3016L80.769 92.0116V46.4495H85.0589V92.0116H84.911ZM87.2778 44.2306V41.272H90.2364V44.2306H87.2778Z" fill="#005E64"/>
<path d="M4.73373 0C2.07101 0 0 2.07101 0 4.73373V93.4911C0 97.1894 2.95858 100 6.50888 100H70.4142C73.0769 100 75.1479 97.929 75.1479 95.2663V20.7101L54.4379 0H4.73373ZM55.1775 3.84615L71.3018 19.9704H59.1716C56.9527 19.9704 54.8817 18.1953 54.8817 15.6805V3.84615H55.1775ZM70.4142 97.7811H6.50888C4.28994 97.7811 2.21893 96.0059 2.21893 93.4911V4.73373C2.21893 3.40237 3.25444 2.21894 4.73373 2.21894H52.6627V15.8284C52.6627 19.5266 55.6213 22.3373 59.1716 22.3373H72.7811V95.2663C72.929 96.5976 71.7456 97.7811 70.4142 97.7811Z" fill="#005E64"/>
<path d="M47.6332 64.2012H11.0947V66.4201H47.6332V64.2012Z" fill="#005E64"/>
<path d="M63.9054 82.8403H11.0947V85.0593H63.9054V82.8403Z" fill="#005E64"/>
<path d="M57.3965 73.5205H11.0947V75.7394H57.3965V73.5205Z" fill="#005E64"/>
</svg>
