<svg width="96" height="96" viewBox="0 0 96 96" fill="none" xmlns="http://www.w3.org/2000/svg">
<circle cx="48" cy="48" r="48" fill="#D8E7E4"/>
<path d="M91.6 86.1C79.2 50.7 80 28.3 80 28.1L80.8 17.2C80.9 16.4 80.6 15.5 80 14.9C79.4 14.3 78.6 13.9 77.8 13.9H58.1C57.3 13.9 56.5 14.2 55.9 14.9C55.3 15.5 55 16.3 55.1 17.2L55.9 28.1C55.9 28.2 56.1 33.1 55 41.9C52.8 41 50.4 40.5 47.9 40.5C45.4 40.5 43 41 40.8 41.9C39.8 33.1 39.9 28.2 39.9 28.2L40.7 17.3C40.8 16.5 40.5 15.6 39.9 15C39.3 14.4 38.5 14 37.7 14H23V12C24.1 12 25 11.1 25 10C25 8.9 24.1 8 23 8H20V2C20 0.9 19.1 0 18 0C16.9 0 16 0.9 16 2V8H13C11.9 8 11 8.9 11 10C11 11.1 11.9 12 13 12V47C11.9 47 11 47.9 11 49C11 50.1 11.9 51 13 51V54.8C11.3 63.5 8.6 74 4.4 86.1C3.6 86.4 3 87.1 3 88C3 89.1 3.9 90 5 90H91C92.1 90 93 89.1 93 88C93 87.1 92.4 86.4 91.6 86.1ZM13 86H8.6C10.3 81.1 11.7 76.4 13 72.1V86ZM19 86H17V51H19V86ZM19 47H17V12H19V47ZM76.8 18L76.6 21H59.4L59.2 18H76.8ZM48 44.5C54.5 44.5 60.1 48.7 62.1 54.5H33.9C35.9 48.7 41.5 44.5 48 44.5ZM23 18H36.8L36.6 21H23V18ZM29 86H23V51C24.1 51 25 50.1 25 49C25 47.9 24.1 47 23 47V25H36.3L36.1 27.9C36.1 28.4 35.9 34 37.1 43.9C32.2 47.3 29 53 29 59.5V86ZM63 86H33V64.2H63V86ZM63 60.2H33V59.4C33 59.1 33 58.7 33 58.4H63C63 58.7 63 59.1 63 59.4V60.2ZM67 86V59.5C67 53.1 63.8 47.4 58.9 43.9C60.2 34 60 28.3 59.9 27.8L59.7 25H76.3L76.1 27.9C76.1 28.6 75.6 39.8 79.8 59H73C71.9 59 71 59.9 71 61C71 62.1 71.9 63 73 63H80.7C81.3 65.5 82 68.2 82.8 71H73C71.9 71 71 71.9 71 73C71 74.1 71.9 75 73 75H83.8C84.8 78.5 86 82.2 87.3 86H67Z" fill="#005E64"/>
</svg>
