<svg width="101" height="105" viewBox="0 0 101 105" fill="none" xmlns="http://www.w3.org/2000/svg">
<g clip-path="url(#clip0_5_2002)">
<path d="M55.7004 81.3002C55.1004 81.3002 54.5004 81.3002 53.9004 81.3002C46.0004 81.3002 38.5004 77.9002 33.4004 71.8002C30.0004 67.8002 27.9004 63.1002 27.3004 58.1002L27.1004 57.2002H3.90039L4.00039 58.4002C4.70039 68.9002 8.80039 78.9002 15.6004 87.0002C25.1004 98.2002 39.0004 104.6 53.8004 104.6C55.9004 104.6 58.1004 104.4 60.1004 104.1L61.3004 103.9L56.7004 81.3002H55.7004Z" fill="#D5F1EA"/>
<path d="M37.4 1.6001L36.2 1.9001C29.3 3.9001 23.1 7.2001 17.7 11.8001C7.5 20.6001 1.2 32.8001 0.2 46.2001L0 47.5001H23.2L23.5 46.4001C24.4 39.8001 27.6 33.9001 32.7 29.6001C35.1 27.5001 38 25.9001 41.3 24.7001L42.2 24.4001L37.4 1.6001ZM2.6 45.2001C3.8 32.8001 9.8 21.8001 19.2 13.7001C24.1 9.6001 29.6 6.5001 35.7 4.5001L39.6 23.0001C36.5 24.2001 33.8 25.9001 31.4 27.9001C26.2 32.3001 22.7 38.4001 21.6 45.2001H2.6Z" fill="#016065"/>
<path d="M23.4002 52.6001H0.200195L0.400195 53.8001C0.900195 64.4001 5.0002 74.3001 11.9002 82.4001C21.4002 93.6001 35.3002 100 50.1002 100C52.2002 100 54.4002 99.8001 56.4002 99.5001L57.6002 99.3001L53.0002 76.8001H51.9002C51.3002 76.8001 50.7002 76.8001 50.1002 76.8001C42.2002 76.8001 34.7002 73.4001 29.6002 67.3001C26.2002 63.3001 24.1002 58.6001 23.5002 53.6001L23.4002 52.6001ZM5.2002 66.1001C4.0002 62.4001 3.1002 58.8001 2.6002 54.8001L13.4002 55.0001L5.2002 66.1001ZM9.9002 75.9001C8.4002 73.6001 7.2002 71.3001 6.1002 68.7001L16.3002 55.0001H21.3002C21.5002 56.4001 21.9002 57.7001 22.4002 59.1001L9.9002 75.9001ZM16.2002 83.5001C15.3002 82.7001 14.5002 81.8001 13.8002 80.9001C12.9002 79.8001 12.1002 78.8001 11.4002 77.7001L23.5002 61.5001C24.6002 63.9001 25.9002 66.2001 27.6002 68.2001L16.2002 83.5001ZM23.4002 89.6001C21.4002 88.2001 19.4002 86.7001 17.7002 85.0001L28.9002 69.9001C30.6002 71.9001 32.6002 73.4001 34.6002 74.6001L23.4002 89.6001ZM31.9002 94.2001C29.6002 93.3001 27.5002 92.2001 25.3002 90.8001L36.5002 75.7001C38.8002 76.9001 41.1002 77.7001 43.7002 78.3001L31.9002 94.2001ZM41.9002 96.9001C39.3002 96.4001 36.7002 95.8001 34.3002 94.9001L46.4002 78.9001C47.6002 79.1001 48.8002 79.1001 50.2002 79.1001C50.5002 79.1001 50.8002 79.1001 51.3002 79.1001L52.2002 83.4001L41.9002 96.9001ZM50.1002 97.7001C48.1002 97.7001 46.3002 97.5001 44.4002 97.4001L52.6002 86.4001L55.0002 97.6001C53.3002 97.7001 51.6002 97.7001 50.1002 97.7001Z" fill="#016065"/>
<path d="M50 0C47.9 0 45.8 0.1 43.7 0.4L42.5 0.6L47.2 23.4H48.3C48.9 23.4 49.5 23.3 50 23.3C54 23.3 58.1 24.2 61.7 26L62.6 26.5L75.3 6.8L74.2 6.2C66.9 2.2 58.5 0 50 0ZM49 20.9L45.2 2.5C46.7 2.3 48.3 2.3 49.9 2.3C57.6 2.3 65.2 4.1 72 7.6L61.7 23.3C58 21.8 54.1 20.9 50.1 20.9C49.8 20.9 49.5 20.9 49 20.9Z" fill="#016065"/>
<path d="M79.6 9.6001L66.8 29.0001L67.6 29.6001C68.7 30.5001 69.7 31.6001 70.7 32.7001C80.3 44.0001 78.9 61.0001 67.6 70.6001C65.2 72.7001 62.3 74.3001 59 75.5001L58 75.7001L62.7 98.5001L63.9 98.2001C70.8 96.2001 77 92.9001 82.4 88.3001C92.6 79.6001 98.7 67.5001 99.8 54.2001C100.9 40.8001 96.7 27.9001 88.2 17.7001C85.9 15.1001 83.3 12.5001 80.6 10.4001L79.6 9.6001ZM64.5 95.6001L60.7 77.1001C63.8 75.9001 66.5 74.2001 68.9 72.2001C81.1 61.8001 82.6 43.3001 72.3 31.1001C71.5 30.2001 70.8 29.4001 69.9 28.5001L80 12.8001C82.3 14.6001 84.4 16.8001 86.4 19.1001C94.6 28.9001 98.6 41.2001 97.6 53.9001C96.5 66.6001 90.6 78.2001 81 86.4001C76.1 90.5001 70.6 93.6001 64.5 95.6001Z" fill="#016065"/>
<path d="M68.5998 34.7998H61.0998V59.9998H58.7998V40.0998H51.1998V59.9998H48.8998V45.2998H41.2998V59.9998H38.9998V50.0998H31.3998V59.9998H28.2998V62.2998H71.6998V59.9998H68.5998V34.7998ZM63.3998 59.9998V37.0998H66.4998V59.9998H63.3998ZM53.4998 59.9998V42.3998H56.5998V59.9998H53.4998ZM43.4998 59.9998V47.5998H46.5998V59.9998H43.4998ZM33.5998 59.9998V52.3998H36.6998V59.9998H33.5998Z" fill="#016065"/>
</g>
<defs>
<clipPath id="clip0_5_2002">
<rect width="100.1" height="104.5" fill="white"/>
</clipPath>
</defs>
</svg>
