<svg width="90" height="90" viewBox="0 0 90 90" fill="none" xmlns="http://www.w3.org/2000/svg">
<g clip-path="url(#clip0_5_2544)">
<path d="M60.5194 81.5596H29.4022C28.6279 81.5988 28.0301 82.2555 28.0693 83.0395C28.1085 83.8138 28.7749 84.4116 29.5492 84.3724H60.4802C61.2643 84.3822 61.9013 83.7648 61.9111 82.9808C61.9209 82.2065 61.3035 81.5694 60.5194 81.5596ZM60.5194 81.5596H29.4022C28.6279 81.5988 28.0301 82.2555 28.0693 83.0395C28.1085 83.8138 28.7749 84.4116 29.5492 84.3724H60.4802C61.2643 84.3822 61.9013 83.7648 61.9111 82.9808C61.9209 82.2065 61.3035 81.5694 60.5194 81.5596ZM62.4404 31.2918C62.2934 31.2428 62.1464 31.2133 61.9895 31.2035V31.2133H61.8523C61.2839 31.2525 60.8037 31.6348 60.6272 32.1641C59.2159 36.202 57.1284 39.4754 54.051 41.5433C53.4139 41.9843 53.2473 42.8566 53.6785 43.4936C54.1196 44.1307 54.982 44.3071 55.6191 43.8759C59.3433 41.3767 61.7347 37.5054 63.2832 33.0951C63.5479 32.3698 63.1754 31.5564 62.4404 31.2918ZM64.1947 22.2065C64.1359 22.1967 64.0771 22.1967 64.0183 22.1967C63.9693 22.1869 63.9203 22.1869 63.8713 22.1967C63.2048 22.2457 62.6658 22.7652 62.5972 23.4316C62.411 24.7743 62.1954 26.0974 61.9307 27.3813C61.7445 28.1262 62.2052 28.8906 62.9598 29.0768C63.7145 29.263 64.4789 28.8024 64.6651 28.0575C64.6749 28.0183 64.6749 27.9791 64.6847 27.9497C64.969 26.5874 65.1944 25.2055 65.3806 23.804C65.4982 23.0298 64.9592 22.3143 64.1947 22.2065ZM64.1947 22.2065C64.1359 22.1967 64.0771 22.1967 64.0183 22.1967C63.9693 22.1869 63.9203 22.1869 63.8713 22.1967C63.2048 22.2457 62.6658 22.7652 62.5972 23.4316C62.411 24.7743 62.1954 26.0974 61.9307 27.3813C61.7445 28.1262 62.2052 28.8906 62.9598 29.0768C63.7145 29.263 64.4789 28.8024 64.6651 28.0575C64.6749 28.0183 64.6749 27.9791 64.6847 27.9497C64.969 26.5874 65.1944 25.2055 65.3806 23.804C65.4982 23.0298 64.9592 22.3143 64.1947 22.2065ZM62.4404 31.2918C62.2934 31.2428 62.1464 31.2133 61.9895 31.2035V31.2133H61.8523C61.2839 31.2525 60.8037 31.6348 60.6272 32.1641C59.2159 36.202 57.1284 39.4754 54.051 41.5433C53.4139 41.9843 53.2473 42.8566 53.6785 43.4936C54.1196 44.1307 54.982 44.3071 55.6191 43.8759C59.3433 41.3767 61.7347 37.5054 63.2832 33.0951C63.5479 32.3698 63.1754 31.5564 62.4404 31.2918ZM60.5194 81.5596H29.4022C28.6279 81.5988 28.0301 82.2555 28.0693 83.0395C28.1085 83.8138 28.7749 84.4116 29.5492 84.3724H60.4802C61.2643 84.3822 61.9013 83.7648 61.9111 82.9808C61.9209 82.2065 61.3035 81.5694 60.5194 81.5596ZM62.4404 31.2918C62.2934 31.2428 62.1464 31.2133 61.9895 31.2035V31.2133H61.8523C61.2839 31.2525 60.8037 31.6348 60.6272 32.1641C59.2159 36.202 57.1284 39.4754 54.051 41.5433C53.4139 41.9843 53.2473 42.8566 53.6785 43.4936C54.1196 44.1307 54.982 44.3071 55.6191 43.8759C59.3433 41.3767 61.7347 37.5054 63.2832 33.0951C63.5479 32.3698 63.1754 31.5564 62.4404 31.2918ZM64.1947 22.2065C64.1359 22.1967 64.0771 22.1967 64.0183 22.1967C63.9693 22.1869 63.9203 22.1869 63.8713 22.1967C63.2048 22.2457 62.6658 22.7652 62.5972 23.4316C62.411 24.7743 62.1954 26.0974 61.9307 27.3813C61.7445 28.1262 62.2052 28.8906 62.9598 29.0768C63.7145 29.263 64.4789 28.8024 64.6651 28.0575C64.6749 28.0183 64.6749 27.9791 64.6847 27.9497C64.969 26.5874 65.1944 25.2055 65.3806 23.804C65.4982 23.0298 64.9592 22.3143 64.1947 22.2065ZM64.1947 22.2065C64.1359 22.1967 64.0771 22.1967 64.0183 22.1967C63.9693 22.1869 63.9203 22.1869 63.8713 22.1967C63.2048 22.2457 62.6658 22.7652 62.5972 23.4316C62.411 24.7743 62.1954 26.0974 61.9307 27.3813C61.7445 28.1262 62.2052 28.8906 62.9598 29.0768C63.7145 29.263 64.4789 28.8024 64.6651 28.0575C64.6749 28.0183 64.6749 27.9791 64.6847 27.9497C64.969 26.5874 65.1944 25.2055 65.3806 23.804C65.4982 23.0298 64.9592 22.3143 64.1947 22.2065ZM62.4404 31.2918C62.2934 31.2428 62.1464 31.2133 61.9895 31.2035V31.2133H61.8523C61.2839 31.2525 60.8037 31.6348 60.6272 32.1641C59.2159 36.202 57.1284 39.4754 54.051 41.5433C53.4139 41.9843 53.2473 42.8566 53.6785 43.4936C54.1196 44.1307 54.982 44.3071 55.6191 43.8759C59.3433 41.3767 61.7347 37.5054 63.2832 33.0951C63.5479 32.3698 63.1754 31.5564 62.4404 31.2918ZM60.5194 81.5596H29.4022C28.6279 81.5988 28.0301 82.2555 28.0693 83.0395C28.1085 83.8138 28.7749 84.4116 29.5492 84.3724H60.4802C61.2643 84.3822 61.9013 83.7648 61.9111 82.9808C61.9209 82.2065 61.3035 81.5694 60.5194 81.5596ZM60.5194 81.5596H29.4022C28.6279 81.5988 28.0301 82.2555 28.0693 83.0395C28.1085 83.8138 28.7749 84.4116 29.5492 84.3724H60.4802C61.2643 84.3822 61.9013 83.7648 61.9111 82.9808C61.9209 82.2065 61.3035 81.5694 60.5194 81.5596ZM62.4404 31.2918C62.2934 31.2428 62.1464 31.2133 61.9895 31.2035V31.2133H61.8523C61.2839 31.2525 60.8037 31.6348 60.6272 32.1641C59.2159 36.202 57.1284 39.4754 54.051 41.5433C53.4139 41.9843 53.2473 42.8566 53.6785 43.4936C54.1196 44.1307 54.982 44.3071 55.6191 43.8759C59.3433 41.3767 61.7347 37.5054 63.2832 33.0951C63.5479 32.3698 63.1754 31.5564 62.4404 31.2918ZM64.1947 22.2065C64.1359 22.1967 64.0771 22.1967 64.0183 22.1967C63.9693 22.1869 63.9203 22.1869 63.8713 22.1967C63.2048 22.2457 62.6658 22.7652 62.5972 23.4316C62.411 24.7743 62.1954 26.0974 61.9307 27.3813C61.7445 28.1262 62.2052 28.8906 62.9598 29.0768C63.7145 29.263 64.4789 28.8024 64.6651 28.0575C64.6749 28.0183 64.6749 27.9791 64.6847 27.9497C64.969 26.5874 65.1944 25.2055 65.3806 23.804C65.4982 23.0298 64.9592 22.3143 64.1947 22.2065ZM64.1947 22.2065C64.1359 22.1967 64.0771 22.1967 64.0183 22.1967C63.9693 22.1869 63.9203 22.1869 63.8713 22.1967C63.2048 22.2457 62.6658 22.7652 62.5972 23.4316C62.411 24.7743 62.1954 26.0974 61.9307 27.3813C61.7445 28.1262 62.2052 28.8906 62.9598 29.0768C63.7145 29.263 64.4789 28.8024 64.6651 28.0575C64.6749 28.0183 64.6749 27.9791 64.6847 27.9497C64.969 26.5874 65.1944 25.2055 65.3806 23.804C65.4982 23.0298 64.9592 22.3143 64.1947 22.2065ZM62.4404 31.2918C62.2934 31.2428 62.1464 31.2133 61.9895 31.2035V31.2133H61.8523C61.2839 31.2525 60.8037 31.6348 60.6272 32.1641C59.2159 36.202 57.1284 39.4754 54.051 41.5433C53.4139 41.9843 53.2473 42.8566 53.6785 43.4936C54.1196 44.1307 54.982 44.3071 55.6191 43.8759C59.3433 41.3767 61.7347 37.5054 63.2832 33.0951C63.5479 32.3698 63.1754 31.5564 62.4404 31.2918ZM60.5194 81.5596H29.4022C28.6279 81.5988 28.0301 82.2555 28.0693 83.0395C28.1085 83.8138 28.7749 84.4116 29.5492 84.3724H60.4802C61.2643 84.3822 61.9013 83.7648 61.9111 82.9808C61.9209 82.2065 61.3035 81.5694 60.5194 81.5596ZM88.5887 8.43645H73.0252C73.084 6.05488 73.1134 3.67332 73.1134 1.40935C73.1134 0.635096 72.4861 -0.00195312 71.7119 -0.00195312H18.2783C17.5041 -0.00195312 16.867 0.635096 16.867 1.40935C16.867 3.67332 16.9062 6.05488 16.9552 8.43645H1.4015C0.627246 8.43645 0 9.06376 0 9.84782C0 22.628 9.01666 33.2911 21.0421 35.8981C22.8455 40.7984 25.4427 45.1402 29.2453 48.2764C32.0385 50.5698 35.4786 52.1771 39.5753 52.9317V62.5463C37.7916 63.497 36.5567 65.3492 36.5567 67.4956V67.6426C32.264 68.2601 28.8827 71.6413 28.2653 75.934H28.1183C25.031 75.934 22.4926 78.4626 22.4926 81.5596V88.5868C22.4926 89.361 23.1297 89.998 23.904 89.998H66.0862C66.8605 89.998 67.4877 89.361 67.4877 88.5868V81.5596C67.4877 78.4626 64.9592 75.934 61.8719 75.934H61.7249C61.1075 71.6413 57.7262 68.2601 53.4335 67.6426V67.4956C53.4335 65.3492 52.1986 63.497 50.4149 62.5463V52.9317C54.5116 52.1771 57.9516 50.5698 60.7449 48.2764C64.5475 45.1402 67.1349 40.7984 68.9481 35.8981C80.9735 33.2911 89.9902 22.628 89.9902 9.84782C89.9902 9.06376 89.363 8.43645 88.5887 8.43645ZM72.6331 16.8749H79.7288C78.0333 20.7951 75.2205 24.1176 71.506 26.0876C72.0353 23.0787 72.3979 19.9817 72.6331 16.8749ZM17.3571 16.8749C17.5923 19.9817 17.9549 23.0787 18.4842 26.0876C14.7697 24.1176 11.9471 20.7951 10.2614 16.8749H17.3571ZM3.05782 11.2493H17.0336C17.0729 12.1901 17.1023 13.1212 17.1611 14.0621H7.85038C7.07612 14.0621 6.44887 14.6894 6.44887 15.4734C6.44887 15.6106 6.46847 15.7479 6.50768 15.8753C8.37961 22.1575 13.1134 27.1558 19.18 29.4884C19.4348 30.5959 19.7092 31.6838 20.0229 32.7521C10.5652 29.9785 3.68507 21.4812 3.05782 11.2493ZM61.8719 78.7468C63.4499 78.7468 64.6847 79.9719 64.6847 81.5596V87.1852H25.3055V81.5596C25.3055 79.9719 26.5403 78.7468 28.1183 78.7468H61.8719ZM52.0222 70.3084C55.3937 70.3084 57.7654 72.7978 58.4809 75.934H31.5093C32.2248 72.7978 34.5965 70.3084 37.968 70.3084H52.0222ZM50.6207 67.4956H39.3695C39.3695 65.9177 40.5946 64.6828 42.1823 64.6828H47.8079C49.3858 64.6828 50.6207 65.9177 50.6207 67.4956ZM42.3881 61.87V53.3238C43.231 53.3924 44.0934 53.4316 44.9951 53.4316C45.887 53.4316 46.7592 53.3924 47.6021 53.3238V61.87H42.3881ZM66.5175 34.428C64.822 39.2303 62.3914 43.2683 58.9513 46.1007C55.5113 48.9331 51.0519 50.6188 44.9951 50.6188C38.9285 50.6188 34.4691 48.9331 31.0389 46.1007C27.5988 43.2683 25.1682 39.2303 23.4629 34.428C20.2091 25.2153 19.768 13.3564 19.7288 2.81085H70.2515C70.2221 13.3564 69.7811 25.2153 66.5175 34.428ZM69.9673 32.7521C70.281 31.6838 70.5554 30.5959 70.8102 29.4884C76.8768 27.1558 81.6106 22.1575 83.4825 15.8753C83.7079 15.1304 83.2865 14.3463 82.5416 14.1209C82.4142 14.0817 82.277 14.0621 82.1398 14.0621H72.8291C72.8879 13.1212 72.9174 12.1901 72.9566 11.2493H86.9226C86.3051 21.4812 79.425 29.9785 69.9673 32.7521ZM64.1947 22.2065C64.1359 22.1967 64.0771 22.1967 64.0183 22.1967C63.9693 22.1869 63.9203 22.1869 63.8713 22.1967C63.2048 22.2457 62.6658 22.7652 62.5972 23.4316C62.411 24.7743 62.1954 26.0974 61.9307 27.3813C61.7445 28.1262 62.2052 28.8906 62.9598 29.0768C63.7145 29.263 64.4789 28.8024 64.6651 28.0575C64.6749 28.0183 64.6749 27.9791 64.6847 27.9497C64.969 26.5874 65.1944 25.2055 65.3806 23.804C65.4982 23.0298 64.9592 22.3143 64.1947 22.2065ZM62.4404 31.2918C62.2934 31.2428 62.1464 31.2133 61.9895 31.2035V31.2133H61.8523C61.2839 31.2525 60.8037 31.6348 60.6272 32.1641C59.2159 36.202 57.1284 39.4754 54.051 41.5433C53.4139 41.9843 53.2473 42.8566 53.6785 43.4936C54.1196 44.1307 54.982 44.3071 55.6191 43.8759C59.3433 41.3767 61.7347 37.5054 63.2832 33.0951C63.5479 32.3698 63.1754 31.5564 62.4404 31.2918ZM29.5492 84.3724H60.4802C61.2643 84.3822 61.9013 83.7648 61.9111 82.9808C61.9209 82.2065 61.3035 81.5694 60.5194 81.5596H29.4022C28.6279 81.5988 28.0301 82.2555 28.0693 83.0395C28.1085 83.8138 28.7749 84.4116 29.5492 84.3724ZM60.5194 81.5596H29.4022C28.6279 81.5988 28.0301 82.2555 28.0693 83.0395C28.1085 83.8138 28.7749 84.4116 29.5492 84.3724H60.4802C61.2643 84.3822 61.9013 83.7648 61.9111 82.9808C61.9209 82.2065 61.3035 81.5694 60.5194 81.5596ZM62.4404 31.2918C62.2934 31.2428 62.1464 31.2133 61.9895 31.2035V31.2133H61.8523C61.2839 31.2525 60.8037 31.6348 60.6272 32.1641C59.2159 36.202 57.1284 39.4754 54.051 41.5433C53.4139 41.9843 53.2473 42.8566 53.6785 43.4936C54.1196 44.1307 54.982 44.3071 55.6191 43.8759C59.3433 41.3767 61.7347 37.5054 63.2832 33.0951C63.5479 32.3698 63.1754 31.5564 62.4404 31.2918ZM64.1947 22.2065C64.1359 22.1967 64.0771 22.1967 64.0183 22.1967C63.9693 22.1869 63.9203 22.1869 63.8713 22.1967C63.2048 22.2457 62.6658 22.7652 62.5972 23.4316C62.411 24.7743 62.1954 26.0974 61.9307 27.3813C61.7445 28.1262 62.2052 28.8906 62.9598 29.0768C63.7145 29.263 64.4789 28.8024 64.6651 28.0575C64.6749 28.0183 64.6749 27.9791 64.6847 27.9497C64.969 26.5874 65.1944 25.2055 65.3806 23.804C65.4982 23.0298 64.9592 22.3143 64.1947 22.2065ZM64.1947 22.2065C64.1359 22.1967 64.0771 22.1967 64.0183 22.1967C63.9693 22.1869 63.9203 22.1869 63.8713 22.1967C63.2048 22.2457 62.6658 22.7652 62.5972 23.4316C62.411 24.7743 62.1954 26.0974 61.9307 27.3813C61.7445 28.1262 62.2052 28.8906 62.9598 29.0768C63.7145 29.263 64.4789 28.8024 64.6651 28.0575C64.6749 28.0183 64.6749 27.9791 64.6847 27.9497C64.969 26.5874 65.1944 25.2055 65.3806 23.804C65.4982 23.0298 64.9592 22.3143 64.1947 22.2065ZM62.4404 31.2918C62.2934 31.2428 62.1464 31.2133 61.9895 31.2035V31.2133H61.8523C61.2839 31.2525 60.8037 31.6348 60.6272 32.1641C59.2159 36.202 57.1284 39.4754 54.051 41.5433C53.4139 41.9843 53.2473 42.8566 53.6785 43.4936C54.1196 44.1307 54.982 44.3071 55.6191 43.8759C59.3433 41.3767 61.7347 37.5054 63.2832 33.0951C63.5479 32.3698 63.1754 31.5564 62.4404 31.2918ZM60.5194 81.5596H29.4022C28.6279 81.5988 28.0301 82.2555 28.0693 83.0395C28.1085 83.8138 28.7749 84.4116 29.5492 84.3724H60.4802C61.2643 84.3822 61.9013 83.7648 61.9111 82.9808C61.9209 82.2065 61.3035 81.5694 60.5194 81.5596ZM60.5194 81.5596H29.4022C28.6279 81.5988 28.0301 82.2555 28.0693 83.0395C28.1085 83.8138 28.7749 84.4116 29.5492 84.3724H60.4802C61.2643 84.3822 61.9013 83.7648 61.9111 82.9808C61.9209 82.2065 61.3035 81.5694 60.5194 81.5596ZM62.4404 31.2918C62.2934 31.2428 62.1464 31.2133 61.9895 31.2035V31.2133H61.8523C61.2839 31.2525 60.8037 31.6348 60.6272 32.1641C59.2159 36.202 57.1284 39.4754 54.051 41.5433C53.4139 41.9843 53.2473 42.8566 53.6785 43.4936C54.1196 44.1307 54.982 44.3071 55.6191 43.8759C59.3433 41.3767 61.7347 37.5054 63.2832 33.0951C63.5479 32.3698 63.1754 31.5564 62.4404 31.2918ZM64.1947 22.2065C64.1359 22.1967 64.0771 22.1967 64.0183 22.1967C63.9693 22.1869 63.9203 22.1869 63.8713 22.1967C63.2048 22.2457 62.6658 22.7652 62.5972 23.4316C62.411 24.7743 62.1954 26.0974 61.9307 27.3813C61.7445 28.1262 62.2052 28.8906 62.9598 29.0768C63.7145 29.263 64.4789 28.8024 64.6651 28.0575C64.6749 28.0183 64.6749 27.9791 64.6847 27.9497C64.969 26.5874 65.1944 25.2055 65.3806 23.804C65.4982 23.0298 64.9592 22.3143 64.1947 22.2065ZM64.1947 22.2065C64.1359 22.1967 64.0771 22.1967 64.0183 22.1967C63.9693 22.1869 63.9203 22.1869 63.8713 22.1967C63.2048 22.2457 62.6658 22.7652 62.5972 23.4316C62.411 24.7743 62.1954 26.0974 61.9307 27.3813C61.7445 28.1262 62.2052 28.8906 62.9598 29.0768C63.7145 29.263 64.4789 28.8024 64.6651 28.0575C64.6749 28.0183 64.6749 27.9791 64.6847 27.9497C64.969 26.5874 65.1944 25.2055 65.3806 23.804C65.4982 23.0298 64.9592 22.3143 64.1947 22.2065ZM62.4404 31.2918C62.2934 31.2428 62.1464 31.2133 61.9895 31.2035V31.2133H61.8523C61.2839 31.2525 60.8037 31.6348 60.6272 32.1641C59.2159 36.202 57.1284 39.4754 54.051 41.5433C53.4139 41.9843 53.2473 42.8566 53.6785 43.4936C54.1196 44.1307 54.982 44.3071 55.6191 43.8759C59.3433 41.3767 61.7347 37.5054 63.2832 33.0951C63.5479 32.3698 63.1754 31.5564 62.4404 31.2918ZM60.5194 81.5596H29.4022C28.6279 81.5988 28.0301 82.2555 28.0693 83.0395C28.1085 83.8138 28.7749 84.4116 29.5492 84.3724H60.4802C61.2643 84.3822 61.9013 83.7648 61.9111 82.9808C61.9209 82.2065 61.3035 81.5694 60.5194 81.5596Z" fill="#005E64"/>
<path d="M61.8721 78.7471H28.1185C26.5406 78.7471 25.3057 79.9722 25.3057 81.5599V87.1855H64.685V81.5599C64.685 79.9722 63.4501 78.7471 61.8721 78.7471ZM60.4804 84.3727H29.5494C28.7751 84.4119 28.1087 83.814 28.0695 83.0398C28.0303 82.2557 28.6281 81.5991 29.4024 81.5599H60.5196C61.3037 81.5697 61.9211 82.2068 61.9113 82.981C61.9015 83.7651 61.2645 84.3825 60.4804 84.3727Z" fill="#D5F1EA"/>
<path d="M58.4809 75.9342H31.5093C32.2247 72.798 34.5965 70.3086 37.968 70.3086H52.0222C55.3936 70.3086 57.7654 72.798 58.4809 75.9342Z" fill="#D5F1EA"/>
<path d="M50.6209 67.4954H39.3696C39.3696 65.9175 40.5947 64.6826 42.1824 64.6826H47.808C49.386 64.6826 50.6209 65.9175 50.6209 67.4954Z" fill="#D5F1EA"/>
<path d="M47.6022 53.3237V61.8699H42.3882V53.3237C43.231 53.3923 44.0935 53.4315 44.9952 53.4315C45.887 53.4315 46.7593 53.3923 47.6022 53.3237Z" fill="#D5F1EA"/>
<path d="M19.729 2.81104C19.7682 13.3566 20.2092 25.2155 23.4631 34.4282C25.1684 39.2305 27.599 43.2684 31.039 46.1008C34.4693 48.9333 38.9286 50.619 44.9953 50.619C51.0521 50.619 55.5114 48.9333 58.9515 46.1008C62.3915 43.2684 64.8221 39.2305 66.5176 34.4282C69.7813 25.2155 70.2223 13.3566 70.2517 2.81104H19.729ZM63.2834 33.0953C61.7349 37.5056 59.3435 41.3769 55.6192 43.8761C54.9822 44.3073 54.1197 44.1309 53.6787 43.4938C53.2475 42.8568 53.4141 41.9845 54.0511 41.5435C57.1286 39.4755 59.2161 36.2022 60.6274 32.1643C60.8038 31.635 61.2841 31.2527 61.8525 31.2135H61.9897V31.2037C62.1465 31.2135 62.2935 31.243 62.4405 31.292C63.1756 31.5566 63.548 32.37 63.2834 33.0953ZM65.3808 23.8042C65.1945 25.2057 64.9691 26.5876 64.6849 27.9499C64.6751 27.9793 64.6751 28.0185 64.6653 28.0577C64.4791 28.8025 63.7146 29.2632 62.96 29.077C62.2053 28.8908 61.7447 28.1264 61.9309 27.3815C62.1955 26.0976 62.4111 24.7745 62.5973 23.4318C62.666 22.7653 63.205 22.2459 63.8714 22.1969C63.9204 22.1871 63.9695 22.1871 64.0185 22.1969C64.0773 22.1969 64.1361 22.1969 64.1949 22.2067C64.9593 22.3145 65.4984 23.03 65.3808 23.8042Z" fill="#D5F1EA"/>
</g>
<defs>
<clipPath id="clip0_5_2544">
<rect width="89.9902" height="90" fill="white"/>
</clipPath>
</defs>
</svg>
