<svg width="103" height="100" viewBox="0 0 103 100" fill="none" xmlns="http://www.w3.org/2000/svg">
<g clip-path="url(#clip0_5_1945)">
<path d="M14.8001 44.7999C9.00009 30.9999 19.9001 27.4999 22.6001 26.2999C23.5001 19.9999 29.3001 13.7999 38.1001 16.2999C41.7001 2.29992 65.7001 -3.50008 72.9001 17.1999C87.6001 13.4999 103.8 30.4999 88.9001 49.5999C85.4001 53.9999 76.9001 53.0999 75.6001 53.0999C74.3001 53.0999 30.5001 53.0999 27.3001 53.0999C24.1001 53.0999 18.2001 52.6999 14.8001 44.7999Z" fill="#D5F1EA"/>
<rect x="32" y="24" width="37" height="10" fill="white"/>
<rect x="32" y="42" width="37" height="10" fill="white"/>
<rect x="75" y="42" width="27" height="10" fill="white"/>
<rect x="1" y="42" width="26" height="10" fill="white"/>
<path d="M65.8 63.5H63.5V65.8H65.8V63.5Z" fill="#016065"/>
<path d="M60.6998 63.5H58.2998V65.8H60.6998V63.5Z" fill="#016065"/>
<path d="M55.4998 63.5H53.2998V65.8H55.4998V63.5Z" fill="#016065"/>
<path d="M48.0998 63.5H37.2998V65.8H48.0998V63.5Z" fill="#016065"/>
<path d="M60.6998 45.6001H58.2998V48.0001H60.6998V45.6001Z" fill="#016065"/>
<path d="M65.8 45.6001H63.5V48.0001H65.8V45.6001Z" fill="#016065"/>
<path d="M55.4998 45.6001H53.2998V48.0001H55.4998V45.6001Z" fill="#016065"/>
<path d="M48.0998 45.6001H37.2998V48.0001H48.0998V45.6001Z" fill="#016065"/>
<path d="M84.2 63.5H82V65.8H84.2V63.5Z" fill="#016065"/>
<path d="M89.3 63.5H87V65.8H89.3V63.5Z" fill="#016065"/>
<path d="M94.5002 63.5H92.2002V65.8H94.5002V63.5Z" fill="#016065"/>
<path d="M52.4 0C44.6 0 37.7 5 35.2 12.2C33.9 11.7 32.8 11.6 31.6 11.6C22.4 11.6 20.2 19.6 19.7 22.3C14.2 23.9 10.3 28.9 10.3 34.7C10.3 36.9 10.8 38.9 11.9 40.8H0V53.3H5.2V58.5H0V71H13.3V89.2C10.8 89.7 8.9 92 8.9 94.5C8.9 97.5 11.4 100 14.4 100C17.1 100 19.3 98.1 19.7 95.6H45.6C46.1 98.1 48.4 100 50.9 100C53.6 100 55.8 98.1 56.2 95.6H82.5C83 98.1 85.3 100 87.8 100C90.8 100 93.3 97.5 93.3 94.5C93.3 91.8 91.4 89.6 88.9 89.2V71H102.2V58.5H97.5V53.3H102.7V40.8H89.2C91.1 37.8 92 34.5 92 31.1C92 21.1 83.8 12.8 73.7 12.8C72.6 12.8 71 13.1 69.9 13.3C67.7 5.5 60.5 0 52.4 0ZM34 18.2H36.4C36.4 16.8 36.6 15.4 36.9 14.1C38.9 7 45.2 2.2 52.4 2.2C59.8 2.2 66.3 7.4 67.9 14.6L68.2 15.7L69.3 15.4C70.1 15.2 72.4 14.8 73.7 14.8C82.5 14.8 89.7 22 89.7 30.8C89.7 34.4 88.4 37.9 86.4 40.5H74V53H79.2V58.2H74V70.7H87.3V89.2H87.1C85.1 89.7 83.3 91.4 82.9 93.4H56.6C56.1 91.4 54.4 89.6 52.4 89.2V70.8H71V58.3H65.8V53.1H71V40.6H65.8V35.4H71V22.9H31.2V35.4H36.4V40.6H31.2V53.1H36.4V58.3H31.2V70.8H49.9V89.1C47.9 89.6 46.1 91.3 45.7 93.3H19.9C19.4 91.3 17.7 89.5 15.7 89.1V71H28.2V58.5H23.8V53.3H28.2V40.8H14.6C13.3 39.1 12.6 36.9 12.6 34.7C12.6 29.8 16 25.5 20.9 24.5L21.8 24.3V23.4C21.8 23.1 22.6 14 31.5 14C32.6 14 33.5 14.2 34.5 14.5C34.2 15.7 34 16.9 34 18.2ZM33.5 33.1V25.3H68.5V33.1H33.5ZM38.7 40.6V35.4H63.3V40.6H38.7ZM33.5 50.8V43H68.6V50.8H33.5ZM2.5 50.8V43H25.9V50.8H2.5ZM76.2 50.9V43.1H100.3V50.9H100.5H76.2ZM38.7 58.3V53.1H63.3V58.3H38.7ZM81.5 58.5V53.3H95.3V58.5H81.5ZM7.5 58.5V53.3H21.3V58.5H7.5ZM33.5 68.5V60.7H68.6V68.5H33.5ZM76.2 68.7V60.9H100.3V68.7H100.5H76.2ZM2.5 68.7V60.9H25.9V68.7H2.5ZM88.4 97.8C86.7 97.8 85.3 96.4 85.3 94.7C85.3 93 86.7 91.6 88.4 91.6C88.5 91.6 88.6 91.6 88.7 91.6C90.3 91.6 91.6 93 91.6 94.7C91.5 96.4 90.1 97.8 88.4 97.8ZM51.1 97.8C49.4 97.8 48 96.4 48 94.7C48 93 49.4 91.6 51.1 91.6C52.8 91.6 54.2 93 54.2 94.7C54.2 96.4 52.8 97.8 51.1 97.8ZM14.6 97.8C12.9 97.8 11.5 96.4 11.5 94.7C11.5 93 12.9 91.6 14.6 91.6C16.3 91.6 17.7 93 17.7 94.7C17.7 96.4 16.3 97.8 14.6 97.8Z" fill="#016065"/>
<path d="M94.5002 45.7998H92.2002V48.0998H94.5002V45.7998Z" fill="#016065"/>
<path d="M89.3 45.7998H87V48.0998H89.3V45.7998Z" fill="#016065"/>
<path d="M84.2 45.7998H82V48.0998H84.2V45.7998Z" fill="#016065"/>
<path d="M10.4998 63.5H8.2998V65.8H10.4998V63.5Z" fill="#016065"/>
<path d="M20.8 63.5H18.5V65.8H20.8V63.5Z" fill="#016065"/>
<path d="M15.6998 63.5H13.2998V65.8H15.6998V63.5Z" fill="#016065"/>
<path d="M10.4998 45.7998H8.2998V48.0998H10.4998V45.7998Z" fill="#016065"/>
<path d="M20.8 45.7998H18.5V48.0998H20.8V45.7998Z" fill="#016065"/>
<path d="M15.6998 45.7998H13.2998V48.0998H15.6998V45.7998Z" fill="#016065"/>
<path d="M60.6998 27.8999H58.2998V30.2999H60.6998V27.8999Z" fill="#016065"/>
<path d="M65.8 27.8999H63.5V30.2999H65.8V27.8999Z" fill="#016065"/>
<path d="M55.4998 27.8999H53.2998V30.2999H55.4998V27.8999Z" fill="#016065"/>
<path d="M48.0998 27.8999H37.2998V30.2999H48.0998V27.8999Z" fill="#016065"/>
</g>
<defs>
<clipPath id="clip0_5_1945">
<rect width="102.8" height="100" fill="white"/>
</clipPath>
</defs>
</svg>
