<svg width="194" height="145" viewBox="0 0 194 145" fill="none" xmlns="http://www.w3.org/2000/svg">
<path d="M96.9999 143.1H172L164 7.5C163.8 4.4 161.3 2 158.2 2H139.8C136.8 2 134.2 4.3 134 7.4L126.1 105.8H117.8L115.1 88C114.4 83.3 114.7 78.5 116.1 73.9L117.8 68.4H60.0999L61.6999 73.2C63.3999 78.2 63.7999 83.5 62.8999 88.7L60.0999 105.7H38.8999V89.1C38.8999 86.8 36.9999 85 34.7999 85C32.4999 85 30.6999 86.9 30.6999 89.1V106.1H22.3999V143H96.9999V143.1Z" stroke="#94CCC1" stroke-width="3" stroke-miterlimit="10"/>
<path d="M97 119.5V29.2" stroke="#231F20" stroke-width="2" stroke-miterlimit="10"/>
<path d="M96.9001 82.4L69.6001 55.1" stroke="#231F20" stroke-width="2" stroke-miterlimit="10"/>
<path d="M177 129.5H106.8" stroke="#231F20" stroke-width="2" stroke-miterlimit="10"/>
<path d="M87.0998 129.5H16.7998" stroke="#231F20" stroke-width="2" stroke-miterlimit="10"/>
<path d="M132.1 129.5L162 99.5H177" stroke="#231F20" stroke-width="2" stroke-miterlimit="10"/>
<path d="M96.9001 139.2C102.312 139.2 106.7 134.812 106.7 129.4C106.7 123.988 102.312 119.6 96.9001 119.6C91.4877 119.6 87.1001 123.988 87.1001 129.4C87.1001 134.812 91.4877 139.2 96.9001 139.2Z" stroke="#F88600" stroke-width="4" stroke-miterlimit="10"/>
<path d="M9.4 137.3C13.4869 137.3 16.8 133.987 16.8 129.9C16.8 125.813 13.4869 122.5 9.4 122.5C5.31309 122.5 2 125.813 2 129.9C2 133.987 5.31309 137.3 9.4 137.3Z" stroke="#F88600" stroke-width="4" stroke-miterlimit="10"/>
<path d="M184.4 137.3C188.487 137.3 191.8 133.987 191.8 129.9C191.8 125.813 188.487 122.5 184.4 122.5C180.313 122.5 177 125.813 177 129.9C177 133.987 180.313 137.3 184.4 137.3Z" stroke="#F88600" stroke-width="4" stroke-miterlimit="10"/>
<path d="M184.4 107.3C188.487 107.3 191.8 103.987 191.8 99.9C191.8 95.8131 188.487 92.5 184.4 92.5C180.313 92.5 177 95.8131 177 99.9C177 103.987 180.313 107.3 184.4 107.3Z" stroke="#F88600" stroke-width="4" stroke-miterlimit="10"/>
<path d="M64.4 57.3C68.4869 57.3 71.8 53.9869 71.8 49.9C71.8 45.8131 68.4869 42.5 64.4 42.5C60.3131 42.5 57 45.8131 57 49.9C57 53.9869 60.3131 57.3 64.4 57.3Z" stroke="#F88600" stroke-width="4" stroke-miterlimit="10"/>
<path d="M97.4 29.3C101.487 29.3 104.8 25.9869 104.8 21.9C104.8 17.8131 101.487 14.5 97.4 14.5C93.3131 14.5 90 17.8131 90 21.9C90 25.9869 93.3131 29.3 97.4 29.3Z" stroke="#F88600" stroke-width="4" stroke-miterlimit="10"/>
</svg>
