<svg width="90" height="100" viewBox="0 0 90 100" fill="none" xmlns="http://www.w3.org/2000/svg">
<path d="M79.3103 60.4885H80.4598V39.3678C85.3448 38.7931 89.0805 34.6264 89.0805 29.7414C89.0805 24.4253 84.6264 19.9713 79.3103 19.9713C76.1494 19.9713 73.2759 21.5517 71.408 24.1379C71.408 24.1379 71.408 24.1379 71.408 23.9943L53.592 13.6494C54.023 12.3563 54.3103 11.2069 54.3103 9.77011C54.3103 4.45402 49.8563 0 44.5402 0C39.2241 0 34.7701 4.45402 34.7701 9.77011C34.7701 11.2069 35.0575 12.5 35.6322 13.7931L17.6724 24.1379C17.6724 24.2816 17.8161 24.4253 17.8161 24.569C15.9483 21.8391 12.931 20.2586 9.77011 20.2586C4.45402 20.2586 0 24.7126 0 30.0287C0 35.0575 3.73563 39.2241 8.62069 39.6552V60.6322C3.73563 61.2069 0 65.3736 0 70.4023C0 75.7184 4.45402 80.1724 9.77011 80.1724C12.931 80.1724 15.8046 78.5919 17.6724 76.0057L35.6322 86.3506C35.2012 87.6437 34.9138 88.7931 34.9138 90.2299C34.9138 95.546 39.3678 100 44.6839 100C50 100 54.454 95.546 54.454 90.2299C54.454 88.7931 54.1667 87.6437 53.7356 86.3506L71.6954 76.0057C73.5632 78.5919 76.4368 80.1724 79.5977 80.1724C84.9138 80.1724 89.3678 75.7184 89.3678 70.4023C89.0805 64.7989 84.6264 60.4885 79.3103 60.4885ZM72.8448 26.1494C74.2816 23.8506 76.7241 22.4138 79.3103 22.4138C83.477 22.4138 86.7816 25.7184 86.7816 29.8851C86.7816 34.0517 83.477 37.3563 79.3103 37.3563C75.1437 37.3563 71.8391 34.0517 71.8391 29.8851C71.8391 28.4483 72.1264 27.2989 72.8448 26.1494ZM70.2586 26.0057C69.8276 27.2989 69.5402 28.4483 69.5402 29.8851C69.5402 31.3218 69.8276 32.6149 70.2586 33.6207L60.7759 39.0805C57.4713 34.0517 52.0115 30.7471 45.546 30.3161V19.3966C48.1322 19.1092 50.5747 17.6724 52.2988 15.5172L70.2586 26.0057ZM49.569 33.3333C54.3103 34.7701 58.046 38.2184 60.2011 42.6724H53.3046C52.4425 38.7931 51.2931 35.6322 49.569 33.3333ZM51.4368 49.8563C51.4368 51.5805 51.2931 53.3046 51.1494 54.8851H37.931C37.7874 53.3046 37.6437 51.7241 37.6437 49.8563C37.6437 47.9885 37.7874 46.408 37.931 44.8276H51.1494C51.2931 46.408 51.4368 48.1322 51.4368 49.8563ZM50.8621 42.5287H38.3621C39.5115 36.6379 42.0977 32.6149 44.5402 32.6149C46.9828 32.6149 49.569 36.3506 50.8621 42.5287ZM35.9195 42.5287H28.8793C29.7414 40.6609 30.8908 39.0805 32.1839 37.6437C34.3391 35.4885 36.7816 34.1954 39.5115 33.1897C37.931 35.4885 36.6379 38.6494 35.9195 42.5287ZM35.6322 44.8276C35.4885 46.5517 35.3448 48.1322 35.3448 49.8563C35.3448 51.7241 35.4885 53.3046 35.6322 54.8851H28.0172C27.5862 53.3046 27.2989 51.7241 27.2989 49.8563C27.2989 48.1322 27.5862 46.408 28.0172 44.8276H35.6322ZM35.9195 57.1839C36.6379 60.9195 37.931 64.2241 39.5115 66.523C34.7701 65.0862 31.0345 61.6379 28.8793 57.1839H35.9195ZM38.3621 57.3276H50.8621C50.5747 59.3391 50 60.9195 49.2816 62.6437C47.9885 65.3736 46.2644 67.2414 44.5402 67.2414C42.0977 67.2414 39.5115 63.5057 38.3621 57.3276ZM51.4368 63.5057C52.1552 61.6379 52.8736 59.4828 53.3046 57.3276H60.3448C59.4828 59.1954 58.3333 60.7759 57.0402 62.2126C55.0287 64.2241 52.4425 65.6609 49.8563 66.6667C50.1437 65.5172 50.8621 64.6552 51.4368 63.5057ZM53.592 54.8851C53.7356 53.1609 53.8793 51.5805 53.8793 49.8563C53.8793 47.9885 53.7356 46.408 53.592 44.8276H61.2069C61.6379 46.5517 61.9253 48.1322 61.9253 49.8563C61.9253 51.5805 61.6379 53.3046 61.2069 54.8851H53.592ZM44.5402 2.44253C48.7069 2.44253 52.0115 5.74713 52.0115 9.91379C52.0115 11.3506 51.7241 12.5 51.0057 13.5057C49.569 15.8046 47.1264 17.0977 44.5402 17.0977C41.954 17.0977 39.3678 15.6609 38.2184 13.3621C37.6437 12.2126 37.2126 10.9195 37.2126 9.77011C37.069 5.60345 40.5172 2.44253 44.5402 2.44253ZM36.6379 15.3736L36.4943 15.2299C36.6379 15.2299 36.6379 15.3736 36.6379 15.3736ZM18.8218 26.0057L36.7816 15.6609C38.3621 17.8161 40.8046 19.1092 43.5345 19.3966V30.3161C38.6494 30.6034 34.1954 32.6149 30.7471 35.9195C29.8851 36.7816 28.8793 37.931 28.3046 38.9368L18.8218 33.6207C19.2529 32.4713 19.5402 31.1782 19.5402 29.8851C19.6839 28.4483 19.2529 27.2989 18.8218 26.0057ZM2.44253 29.8851C2.44253 25.7184 5.74713 22.4138 9.91379 22.4138C12.6437 22.4138 15.0862 23.8506 16.523 26.1494C17.0977 27.2989 17.3851 28.592 17.3851 29.7414C17.3851 33.908 14.0805 37.2126 9.91379 37.2126C5.74713 37.3563 2.44253 33.908 2.44253 29.8851ZM16.3793 73.8506C14.9425 76.2931 12.5 77.5862 9.77011 77.5862C5.60345 77.5862 2.29885 74.2816 2.29885 70.1149C2.29885 65.9483 5.60345 62.6437 9.77011 62.6437C13.9368 62.6437 17.2414 65.9483 17.2414 70.1149C17.3851 71.5517 17.0977 72.7011 16.3793 73.8506ZM17.5287 64.3678C15.9483 62.2126 13.6494 60.9195 11.0632 60.4885L10.9195 39.5115H11.0632C13.6494 39.2241 16.092 37.6437 17.6724 35.7759L27.1552 41.2356C25.7184 43.9655 25 46.8391 25 50C25 53.1609 25.7184 56.0345 27.1552 58.7644L17.5287 64.3678ZM18.8218 73.8506C19.2529 72.5575 19.5402 71.408 19.5402 70.2586C19.5402 68.9655 19.2529 67.5287 18.6782 66.2356L28.3046 60.7759C31.6092 65.8046 37.069 69.1092 43.5345 69.5402V80.4598C40.8046 80.7471 38.2184 82.3276 36.6379 84.7701C36.6379 84.6264 36.7816 84.4828 36.7816 84.4828L18.8218 73.8506ZM44.5402 97.5575C40.3736 97.5575 37.069 94.2529 37.069 90.0862C37.069 88.6494 37.3563 87.5 38.0747 86.4942C39.3678 84.1954 41.954 82.9023 44.3966 82.9023C46.9828 82.9023 49.569 84.3391 50.8621 86.6379C51.4368 87.6437 51.8678 89.0805 51.8678 90.2299C52.0115 94.2529 48.7069 97.5575 44.5402 97.5575ZM70.1149 73.8506L52.2988 84.1954C50.5747 82.0402 48.2759 80.7471 45.546 80.4598V69.5402C50.431 69.2529 54.8851 67.2414 58.3333 63.9368C59.1954 63.0747 60.2011 61.9253 60.7759 60.9195L70.2586 66.3793C69.6839 67.5287 69.3966 68.9655 69.3966 70.4023C69.3966 71.4081 69.6839 72.7011 70.1149 73.8506ZM62.069 58.7644C63.5057 56.0345 64.2241 53.1609 64.2241 50C64.2241 46.8391 63.5057 43.9655 62.069 41.2356L71.5517 35.7759C73.1322 37.931 75.5747 39.2241 78.1609 39.5115V60.4885C75.7184 60.9195 73.2759 62.3563 71.8391 64.3678L62.069 58.7644ZM79.3103 77.5862C76.5805 77.5862 74.1379 76.0057 72.7011 73.5632C72.1264 72.4138 71.8391 71.2644 71.8391 70.1149C71.8391 65.9483 75.1437 62.6437 79.3103 62.6437C83.477 62.6437 86.7816 65.9483 86.7816 70.1149C86.7816 74.2816 83.3333 77.5862 79.3103 77.5862Z" fill="#005E64"/>
<path d="M17.3849 70.1149C17.3849 71.5517 17.0976 72.7011 16.5228 73.7069C15.0861 76.1494 12.6435 77.4425 9.91365 77.4425C5.74698 77.4425 2.44238 74.1379 2.44238 69.9713C2.44238 65.8046 5.74698 62.5 9.91365 62.5C13.9366 62.6437 17.3849 66.092 17.3849 70.1149Z" fill="#D5F1EA"/>
<path d="M52.0119 90.2299C52.0119 94.2529 48.7073 97.5575 44.5406 97.5575C40.3739 97.5575 37.0693 94.2529 37.0693 90.0863C37.0693 88.6495 37.3567 87.5 38.0751 86.4943C39.3682 84.1954 41.9544 82.9023 44.3969 82.9023C46.9831 82.9023 49.5693 84.3391 50.8624 86.638C51.5808 87.6437 52.0119 89.0805 52.0119 90.2299Z" fill="#D5F1EA"/>
<path d="M86.7814 70.1148C86.7814 74.2815 83.4768 77.5861 79.3101 77.5861C76.5802 77.5861 74.1377 76.0056 72.7009 73.5631C72.1262 72.4137 71.8389 71.2642 71.8389 70.1148C71.8389 65.9482 75.1435 62.6436 79.3101 62.6436C83.3331 62.6436 86.7814 66.0918 86.7814 70.1148Z" fill="#D5F1EA"/>
<path d="M86.7814 29.8848C86.7814 34.0515 83.4768 37.3561 79.3101 37.3561C75.1435 37.3561 71.8389 34.0515 71.8389 29.8848C71.8389 28.4481 72.1262 27.2986 72.8446 26.2929C74.2814 23.994 76.7239 22.5572 79.3101 22.5572C83.3331 22.4136 86.7814 25.7182 86.7814 29.8848Z" fill="#D5F1EA"/>
<path d="M52.0117 9.91365C52.0117 11.3504 51.7244 12.4999 51.006 13.5056C49.5692 15.8045 47.1267 17.0976 44.5405 17.0976C41.9543 17.0976 39.3681 15.6608 38.2186 13.3619C37.6439 12.2125 37.2129 10.9194 37.2129 9.76997C37.2129 5.6033 40.5175 2.44238 44.6842 2.44238C48.7071 2.44238 52.0117 5.74698 52.0117 9.91365Z" fill="#D5F1EA"/>
<path d="M17.3849 29.8848C17.3849 34.0515 14.0803 37.3561 9.91365 37.3561C5.74698 37.3561 2.44238 34.0515 2.44238 29.8848C2.44238 25.7182 5.74698 22.4136 9.91365 22.4136C12.6435 22.4136 15.0861 23.8504 16.5228 26.1492C17.0976 27.2986 17.3849 28.5917 17.3849 29.8848Z" fill="#D5F1EA"/>
</svg>
