<svg width="100" height="90" viewBox="0 0 100 90" fill="none" xmlns="http://www.w3.org/2000/svg">
<g clip-path="url(#clip0_5_2527)">
<path d="M97.7691 77.5843H93.1139V62.0671H94.6342C95.4939 62.0776 96.1964 61.396 96.2069 60.5362C96.2279 59.6765 95.5359 58.974 94.6761 58.9636H93.1139V40.3429H94.6342C95.4939 40.3533 96.1964 39.6719 96.2069 38.8121C96.2279 37.9524 95.5359 37.2499 94.6761 37.2394H93.1139V18.6187H94.6342C95.4939 18.6292 96.1964 17.9478 96.2069 17.088C96.2279 16.2283 95.5359 15.5258 94.6761 15.5153H93.1139V1.54981C93.1139 0.690076 92.4115 -0.00195312 91.5622 -0.00195312H85.3553C84.5375 -0.00195312 83.8665 0.627119 83.8036 1.43444V15.5153H61.9117C61.1987 11.982 58.0534 9.3084 54.3103 9.3084C50.5778 9.3084 47.4324 11.982 46.709 15.5153H46.3945C45.671 11.982 42.5361 9.3084 38.7931 9.3084C35.0606 9.3084 31.9152 11.982 31.1918 15.5153H30.8772C30.1538 11.982 27.0189 9.3084 23.2759 9.3084C19.5433 9.3084 16.3979 11.982 15.6745 15.5153H15.5172V1.54981C15.5172 0.690076 14.8253 -0.00195312 13.9655 -0.00195312H7.75862C6.90937 -0.00195312 6.2069 0.690076 6.2069 1.54981V15.5153H4.68663C3.82689 15.5049 3.12442 16.1863 3.10345 17.0461C3.09296 17.9058 3.78495 18.6083 4.6342 18.6187H6.2069V37.2394H4.68663C3.82689 37.229 3.12442 37.9104 3.10345 38.7702C3.09296 39.6299 3.78495 40.3324 4.6342 40.3429H6.2069V58.9636H4.68663C3.82689 58.9531 3.12442 59.6347 3.10345 60.4944C3.09296 61.3541 3.78495 62.0566 4.6342 62.0671H6.2069V77.5843H1.55172C0.70247 77.5843 0 78.2762 0 79.136V88.4463C0 89.306 0.70247 89.998 1.55172 89.998H97.7691C98.6184 89.998 99.3208 89.306 99.3208 88.4463V79.136C99.3208 78.2762 98.6184 77.5843 97.7691 77.5843ZM86.907 60.7565C86.928 60.5888 86.928 60.4209 86.907 60.2636V39.0323C86.928 38.8645 86.928 38.6968 86.907 38.5395V17.3082C86.928 17.1404 86.928 16.9727 86.907 16.8154V3.10152H90.0105V16.8154C89.979 16.9832 89.979 17.1509 90.0105 17.3187V38.5395C89.979 38.7073 89.979 38.875 90.0105 39.0428V60.2636C89.979 60.4314 89.979 60.5991 90.0105 60.7669V77.5843H86.907V60.7565ZM49.6761 16.9097C49.7495 14.3934 51.7731 12.4118 54.3103 12.4118C56.8476 12.4118 58.8712 14.3934 58.955 16.9097C58.9445 17.0146 58.9445 17.109 58.955 17.2138C58.8816 19.7302 56.8581 21.7222 54.3103 21.7222C51.7731 21.7222 49.7495 19.7302 49.6761 17.2138C49.6866 17.1195 49.6866 17.0146 49.6761 16.9097ZM34.1589 16.9097C34.2323 14.3934 36.2558 12.4118 38.7931 12.4118C41.3304 12.4118 43.3539 14.3934 43.4378 16.9097C43.4273 17.0146 43.4273 17.109 43.4378 17.2138C43.3644 19.7302 41.3409 21.7222 38.7931 21.7222C36.2558 21.7222 34.2323 19.7302 34.1589 17.2138V16.9097ZM18.6312 16.9097C18.7151 14.3934 20.7386 12.4118 23.2759 12.4118C25.8131 12.4118 27.8367 14.3934 27.9205 16.9097C27.9101 17.0146 27.9101 17.109 27.9205 17.2138C27.8472 19.7302 25.8236 21.7222 23.2759 21.7222C20.7386 21.7222 18.7151 19.7302 18.6312 17.2138C18.6417 17.1195 18.6417 17.0146 18.6312 16.9097ZM15.5172 18.6187H15.6745C16.0415 20.3802 17.0061 21.9318 18.3481 23.0327C19.6901 24.1441 21.4096 24.8152 23.2759 24.8152C27.0084 24.8152 30.1538 22.1416 30.8772 18.6083H31.1918C31.5587 20.3697 32.5233 21.9214 33.8653 23.0327C35.2074 24.1441 36.9268 24.8152 38.7931 24.8152C42.5256 24.8152 45.671 22.1311 46.3945 18.6083H46.709C47.076 20.3697 48.0405 21.9214 49.3826 23.0327C50.7246 24.1336 52.4441 24.8047 54.3103 24.8047C58.0534 24.8047 61.1883 22.1311 61.9117 18.5978H83.8036V37.2185H83.6358C82.9229 33.6851 79.7775 31.0115 76.0345 31.0115C72.302 31.0115 69.1566 33.6851 68.4331 37.2185H68.1186C67.4056 33.6851 64.2603 31.0115 60.5172 31.0115C56.7847 31.0115 53.6393 33.6851 52.9159 37.2185H46.3945C45.671 33.6851 42.5361 31.0115 38.7931 31.0115C35.0606 31.0115 31.9152 33.6851 31.1918 37.2185H15.5172V18.6187ZM80.6792 38.6339C80.6687 38.7387 80.6687 38.8331 80.6792 38.938C80.6058 41.4543 78.5822 43.4464 76.0345 43.4464C73.4972 43.4464 71.4737 41.4648 71.4003 38.9484C71.4108 38.8436 71.4108 38.7387 71.4003 38.6444C71.4737 36.128 73.4972 34.136 76.0345 34.136C78.5718 34.136 80.5953 36.1175 80.6792 38.6339ZM65.1619 38.6339C65.1514 38.7387 65.1514 38.8331 65.1619 38.938C65.0885 41.4543 63.065 43.4464 60.5172 43.4464C57.98 43.4464 55.9564 41.4648 55.883 38.9484C55.8935 38.8436 55.8935 38.7387 55.883 38.6444C55.9564 36.128 57.98 34.136 60.5172 34.136C63.0545 34.136 65.0781 36.1175 65.1619 38.6339ZM43.4378 38.6339C43.4273 38.7387 43.4273 38.8331 43.4378 38.938C43.3644 41.4543 41.3409 43.4464 38.7931 43.4464C36.2558 43.4464 34.2323 41.4648 34.1589 38.9484V38.6444C34.2323 36.128 36.2558 34.136 38.7931 34.136C41.3304 34.136 43.3539 36.1175 43.4378 38.6339ZM15.5172 40.3429H31.1918C31.5587 42.1043 32.5233 43.6561 33.8653 44.757C35.2074 45.8683 36.9268 46.5393 38.7931 46.5393C42.5256 46.5393 45.671 43.8657 46.3945 40.3324H52.9159C53.2829 42.0938 54.2474 43.6456 55.5895 44.757C56.9315 45.8683 58.651 46.5393 60.5172 46.5393C64.2603 46.5393 67.3952 43.8552 68.1186 40.3324H68.4436C68.8106 42.0938 69.7752 43.6456 71.1067 44.757C72.4487 45.8579 74.1682 46.5288 76.0345 46.5288C79.7775 46.5288 82.9124 43.8552 83.6358 40.3219H83.8036V58.9426H83.6358C82.9229 55.4092 79.7775 52.7358 76.0345 52.7358C72.302 52.7358 69.1566 55.4092 68.4436 58.9426H46.3945C45.671 55.4092 42.5361 52.7358 38.7931 52.7358C35.0606 52.7358 31.9152 55.4092 31.1918 58.9426H30.8772C30.1538 55.4092 27.0189 52.7358 23.2759 52.7358C19.5433 52.7358 16.3979 55.4092 15.6745 58.9426H15.5172V40.3429ZM80.6792 60.3581C80.6687 60.4629 80.6687 60.5572 80.6792 60.6621C80.6058 63.1784 78.5822 65.1705 76.0345 65.1705C73.4972 65.1705 71.4737 63.1889 71.4003 60.6726C71.4108 60.5677 71.4108 60.4628 71.4003 60.3685C71.4737 57.8521 73.4972 55.8601 76.0345 55.8601C78.5718 55.8601 80.5953 57.8418 80.6792 60.3581ZM43.4378 60.3581C43.4273 60.4629 43.4273 60.5572 43.4378 60.6621C43.3644 63.1784 41.3409 65.1705 38.7931 65.1705C36.2558 65.1705 34.2323 63.1889 34.1589 60.6726V60.3685C34.2323 57.8521 36.2558 55.8601 38.7931 55.8601C41.3304 55.8601 43.3539 57.8418 43.4378 60.3581ZM27.9205 60.3581C27.9101 60.4629 27.9101 60.5572 27.9205 60.6621C27.8472 63.1784 25.8236 65.1705 23.2759 65.1705C20.7386 65.1705 18.7151 63.1889 18.6312 60.6726C18.6417 60.5677 18.6417 60.4628 18.6312 60.3685C18.7151 57.8521 20.7386 55.8601 23.2759 55.8601C25.8131 55.8601 27.8367 57.8418 27.9205 60.3581ZM15.5172 62.0671H15.6745C16.0415 63.8285 17.0061 65.3802 18.3481 66.4916C19.6901 67.6029 21.4096 68.2739 23.2759 68.2739C27.0084 68.2739 30.1538 65.5899 30.8772 62.0566H31.1918C31.5587 63.818 32.5233 65.3697 33.8653 66.4811C35.2074 67.5924 36.9268 68.2634 38.7931 68.2634C42.5256 68.2634 45.671 65.5794 46.3945 62.0566H68.4436C68.8106 63.818 69.7752 65.3697 71.1067 66.4811C72.4487 67.582 74.1682 68.2529 76.0345 68.2529C79.7775 68.2529 82.9124 65.5794 83.6358 62.0461H83.8036V77.5633H15.5172V62.0671ZM9.31034 60.7565C9.3418 60.5888 9.3418 60.4209 9.31034 60.2636V39.0323C9.3418 38.8645 9.3418 38.6968 9.31034 38.5395V17.3082C9.3418 17.1404 9.3418 16.9727 9.31034 16.8154V3.10152H12.4138V16.8154C12.3928 16.9832 12.3928 17.1509 12.4138 17.3187V38.5395C12.3928 38.7073 12.3928 38.875 12.4138 39.0428V60.2636C12.3928 60.4314 12.3928 60.5991 12.4138 60.7669V77.5843H9.31034V60.7565ZM96.2174 86.8946H3.10345V80.6877H96.2174V86.8946Z" fill="#005E64"/>
<path d="M43.4376 16.9096C43.4271 17.0144 43.4271 17.1088 43.4376 17.2137C43.3642 19.73 41.3407 21.722 38.7929 21.722C36.2556 21.722 34.2321 19.73 34.1587 17.2137V16.9096C34.2321 14.3933 36.2556 12.4116 38.7929 12.4116C41.3302 12.4116 43.3537 14.3933 43.4376 16.9096Z" fill="#D5F1EA"/>
<path d="M58.9552 16.9096C58.9447 17.0144 58.9447 17.1088 58.9552 17.2137C58.8818 19.73 56.8582 21.722 54.3105 21.722C51.7732 21.722 49.7497 19.73 49.6763 17.2137C49.6868 17.1193 49.6868 17.0144 49.6763 16.9096C49.7497 14.3933 51.7732 12.4116 54.3105 12.4116C56.8477 12.4116 58.8713 14.3933 58.9552 16.9096Z" fill="#D5F1EA"/>
<path d="M80.6793 60.3578C80.6688 60.4627 80.6688 60.5569 80.6793 60.6618C80.6059 63.1781 78.5824 65.1702 76.0346 65.1702C73.4973 65.1702 71.4738 63.1886 71.4004 60.6723C71.4109 60.5674 71.4109 60.4625 71.4004 60.3682C71.4738 57.8519 73.4973 55.8599 76.0346 55.8599C78.5719 55.8599 80.5954 57.8415 80.6793 60.3578Z" fill="#D5F1EA"/>
<path d="M43.4376 60.3578C43.4271 60.4627 43.4271 60.5569 43.4376 60.6618C43.3642 63.1781 41.3407 65.1702 38.7929 65.1702C36.2556 65.1702 34.2321 63.1886 34.1587 60.6723V60.3682C34.2321 57.8519 36.2556 55.8599 38.7929 55.8599C41.3302 55.8599 43.3537 57.8415 43.4376 60.3578Z" fill="#D5F1EA"/>
<path d="M27.9207 60.3578C27.9102 60.4627 27.9102 60.5569 27.9207 60.6618C27.8473 63.1781 25.8238 65.1702 23.276 65.1702C20.7388 65.1702 18.7152 63.1886 18.6313 60.6723C18.6418 60.5674 18.6418 60.4625 18.6313 60.3682C18.7152 57.8519 20.7388 55.8599 23.276 55.8599C25.8133 55.8599 27.8368 57.8415 27.9207 60.3578Z" fill="#D5F1EA"/>
</g>
<defs>
<clipPath id="clip0_5_2527">
<rect width="99.3208" height="90" fill="white"/>
</clipPath>
</defs>
</svg>
