<svg width="80" height="90" viewBox="0 0 80 90" fill="none" xmlns="http://www.w3.org/2000/svg">
<g clip-path="url(#clip0_5_2519)">
<path d="M55.0313 12.3657L51.7576 11.2338C51.5699 11.1631 51.3704 11.1394 51.1709 11.1512C49.5282 11.2338 49.2231 13.5567 50.7954 14.0755L54.0574 15.1956C55.9817 15.9502 57.0025 12.9671 55.0313 12.3657ZM55.0313 12.3657L51.7576 11.2338C51.5699 11.1631 51.3704 11.1394 51.1709 11.1512C49.5282 11.2338 49.2231 13.5567 50.7954 14.0755L54.0574 15.1956C55.9817 15.9502 57.0025 12.9671 55.0313 12.3657ZM55.0313 12.3657L51.7576 11.2338C51.5699 11.1631 51.3704 11.1394 51.1709 11.1512C49.5282 11.2338 49.2231 13.5567 50.7954 14.0755L54.0574 15.1956C55.9817 15.9502 57.0025 12.9671 55.0313 12.3657ZM55.0313 12.3657L51.7576 11.2338C51.5699 11.1631 51.3704 11.1394 51.1709 11.1512C49.5282 11.2338 49.2231 13.5567 50.7954 14.0755L54.0574 15.1956C55.9817 15.9502 57.0025 12.9671 55.0313 12.3657ZM78.3108 30.7477C77.865 30.052 77.3956 29.4272 76.8911 28.9084C76.6329 28.6372 76.3983 28.3424 76.0697 28.1184V14.2994C76.1518 13.6509 75.8585 12.9671 75.1193 12.7077L48.0967 3.38105L43.9313 1.9308L38.5455 0.0796153C38.4047 0.0324517 38.2639 0.00886122 38.1114 -0.00292969V0.00887273C37.9354 0.00887273 37.7476 0.0324517 37.5833 0.0796153L1.00957 12.7077C-0.328061 13.1793 -0.328061 15.0777 1.00957 15.5494L11.2178 19.0748V43.199C11.2178 43.7649 11.5347 44.2838 12.0392 44.5432C28.4194 52.7732 45.7852 53.4925 64.0779 44.5432C64.5825 44.2838 64.911 43.7649 64.911 43.1872V19.0748L73.0894 16.245V28.4603C72.9134 28.6136 72.7256 28.7433 72.5731 28.9084C72.0803 29.4272 71.5992 30.0522 71.1533 30.736C70.2616 32.1274 69.405 33.6247 69.405 35.3816C69.405 38.3057 71.7987 40.6993 74.7086 40.6993C77.6068 40.6993 80.0122 38.3057 80.0122 35.3816C80.0005 33.6601 79.1909 32.1508 78.3108 30.7477ZM61.9189 42.1496C44.9755 50.1674 29.3815 49.5543 14.1865 42.185V39.5556C29.2877 46.5005 45.2102 47.0428 61.9189 39.532V42.1496ZM61.9189 36.2305C44.9755 44.2601 29.3815 43.6234 14.1865 36.2305V20.1006L37.5716 28.1656C37.8884 28.2835 38.2287 28.2835 38.5338 28.1656L61.9189 20.1006V36.2305ZM38.0527 25.1706L6.06678 14.1344L28.5132 6.38779L44.999 12.0709C46.9233 12.8256 47.9442 9.83065 45.9612 9.2411L33.1128 4.79605L38.0527 3.08628L42.9456 4.77245L47.1111 6.2227L70.0386 14.1344L38.0527 25.1706ZM74.7086 37.3978C73.5704 37.3978 72.6904 36.5135 72.6904 35.3934C72.6904 35.1222 73.2067 33.6365 73.9107 32.5399C74.1923 32.0919 74.4739 31.7619 74.7321 31.4671C74.9785 31.7619 75.2601 32.0919 75.53 32.5281C76.2223 33.6129 76.7268 35.0986 76.7268 35.3934C76.7268 36.5135 75.8468 37.3978 74.7086 37.3978ZM50.7837 14.0755L54.0457 15.1956C55.9817 15.9502 57.0025 12.9671 55.0195 12.3657L51.7459 11.2338C51.5581 11.1631 51.3586 11.1394 51.1592 11.1512C49.5165 11.2338 49.2114 13.5567 50.7837 14.0755ZM55.0313 12.3657L51.7576 11.2338C51.5699 11.1631 51.3704 11.1394 51.1709 11.1512C49.5282 11.2338 49.2231 13.5567 50.7954 14.0755L54.0574 15.1956C55.9817 15.9502 57.0025 12.9671 55.0313 12.3657ZM55.0313 12.3657L51.7576 11.2338C51.5699 11.1631 51.3704 11.1394 51.1709 11.1512C49.5282 11.2338 49.2231 13.5567 50.7954 14.0755L54.0574 15.1956C55.9817 15.9502 57.0025 12.9671 55.0313 12.3657ZM55.0313 12.3657L51.7576 11.2338C51.5699 11.1631 51.3704 11.1394 51.1709 11.1512C49.5282 11.2338 49.2231 13.5567 50.7954 14.0755L54.0574 15.1956C55.9817 15.9502 57.0025 12.9671 55.0313 12.3657ZM55.0313 12.3657L51.7576 11.2338C51.5699 11.1631 51.3704 11.1394 51.1709 11.1512C49.5282 11.2338 49.2231 13.5567 50.7954 14.0755L54.0574 15.1956C55.9817 15.9502 57.0025 12.9671 55.0313 12.3657ZM32.092 59.9892H28.8066C26.7884 59.9538 26.7884 63.0195 28.8066 62.9841H32.092C34.0985 63.0195 34.0985 59.9656 32.092 59.9892ZM58.258 71.9924H44.3302C42.312 71.957 42.312 75.0108 44.3302 74.9872H58.2463C60.2762 75.0226 60.2762 71.957 58.258 71.9924ZM58.258 71.9924H44.3302C42.312 71.957 42.312 75.0108 44.3302 74.9872H58.2463C60.2762 75.0226 60.2762 71.957 58.258 71.9924ZM32.092 59.9892H28.8066C26.7884 59.9538 26.7884 63.0195 28.8066 62.9841H32.092C34.0985 63.0195 34.0985 59.9656 32.092 59.9892ZM32.092 59.9892H28.8066C26.7884 59.9538 26.7884 63.0195 28.8066 62.9841H32.092C34.0985 63.0195 34.0985 59.9656 32.092 59.9892ZM58.258 71.9924H44.3302C42.312 71.957 42.312 75.0108 44.3302 74.9872H58.2463C60.2762 75.0226 60.2762 71.957 58.258 71.9924ZM58.258 71.9924H44.3302C42.312 71.957 42.312 75.0108 44.3302 74.9872H58.2463C60.2762 75.0226 60.2762 71.957 58.258 71.9924ZM32.092 59.9892H28.8066C26.7884 59.9538 26.7884 63.0195 28.8066 62.9841H32.092C34.0985 63.0195 34.0985 59.9656 32.092 59.9892ZM72.1389 78.6425C69.7218 75.0817 70.0503 71.9334 72.1859 68.2429C72.7726 67.2406 72.0568 65.9907 70.8952 65.9907H64.8875C65.838 64.7291 66.4247 63.1846 66.4247 61.4867C66.4247 57.3599 63.0688 53.9877 58.9621 53.9877H5.22195C4.01339 53.9877 3.29764 55.3436 3.97819 56.3341C6.39532 59.8949 6.06678 63.0548 3.93125 66.7336C3.3563 67.7358 4.07206 68.9857 5.22195 68.9857H11.2296C10.2792 70.2473 9.69247 71.7919 9.69247 73.4897C9.69247 77.6166 13.0483 80.9889 17.1551 80.9889H20.1472V88.4879C20.1354 89.7259 21.5435 90.4334 22.5291 89.6906L27.598 85.8702L32.6552 89.6906C33.6408 90.4216 35.0489 89.7141 35.0489 88.4879V80.9889H70.8834C72.092 80.9889 72.796 79.6447 72.1389 78.6425ZM7.20494 65.9907C7.60388 64.9885 7.81509 63.9627 7.95589 62.9369C8.03803 62.9369 8.12016 62.996 8.21403 62.996H22.1301C24.1483 63.0195 24.1483 59.9656 22.1301 59.9892H8.2023C8.10843 59.9892 8.02629 60.0246 7.94416 60.0364C7.80336 59.0224 7.59215 58.0083 7.16974 56.9943H58.9503C61.4496 56.9943 63.4208 58.9752 63.4208 61.4867C63.4208 64.0099 61.4496 65.9907 58.9503 65.9907H7.20494ZM32.0568 85.4811L28.4898 82.7928C27.9618 82.3919 27.2225 82.3919 26.6945 82.7928L23.1275 85.4811V74.9872H32.0568V85.4811ZM35.0606 77.9821V74.9872H36.5508C38.569 75.0226 38.569 71.957 36.5508 71.9924H18.6335C16.6153 71.957 16.6153 75.0108 18.6335 74.9872H20.1589V77.9821H17.1668C14.6675 77.9821 12.6963 76.0012 12.6963 73.4897C12.6963 70.9665 14.6675 68.9857 17.1668 68.9857H68.9239C68.5367 69.9761 68.3255 70.9784 68.1847 71.9924H64.9345C62.9163 71.957 62.9163 75.0108 64.9345 74.9872H68.1847C68.3255 75.9894 68.5367 76.9917 68.9474 77.9821H35.0606ZM58.258 71.9924H44.3302C42.312 71.957 42.312 75.0108 44.3302 74.9872H58.2463C60.2762 75.0226 60.2762 71.957 58.258 71.9924ZM32.092 59.9892H28.8066C26.7884 59.9538 26.7884 63.0195 28.8066 62.9841H32.092C34.0985 63.0195 34.0985 59.9656 32.092 59.9892ZM32.092 59.9892H28.8066C26.7884 59.9538 26.7884 63.0195 28.8066 62.9841H32.092C34.0985 63.0195 34.0985 59.9656 32.092 59.9892ZM58.258 71.9924H44.3302C42.312 71.957 42.312 75.0108 44.3302 74.9872H58.2463C60.2762 75.0226 60.2762 71.957 58.258 71.9924ZM58.258 71.9924H44.3302C42.312 71.957 42.312 75.0108 44.3302 74.9872H58.2463C60.2762 75.0226 60.2762 71.957 58.258 71.9924ZM32.092 59.9892H28.8066C26.7884 59.9538 26.7884 63.0195 28.8066 62.9841H32.092C34.0985 63.0195 34.0985 59.9656 32.092 59.9892ZM32.092 59.9892H28.8066C26.7884 59.9538 26.7884 63.0195 28.8066 62.9841H32.092C34.0985 63.0195 34.0985 59.9656 32.092 59.9892ZM32.092 59.9892H28.8066C26.7884 59.9538 26.7884 63.0195 28.8066 62.9841H32.092C34.0985 63.0195 34.0985 59.9656 32.092 59.9892ZM58.258 71.9924H44.3302C42.312 71.957 42.312 75.0108 44.3302 74.9872H58.2463C60.2762 75.0226 60.2762 71.957 58.258 71.9924ZM58.258 71.9924H44.3302C42.312 71.957 42.312 75.0108 44.3302 74.9872H58.2463C60.2762 75.0226 60.2762 71.957 58.258 71.9924Z" fill="#005E64"/>
<path d="M47.1224 6.22285L42.957 4.77259L38.064 3.08643L33.1242 4.79619L45.9725 9.24124C47.9555 9.83079 46.9347 12.8257 45.0104 12.0711L28.5246 6.38794L6.07812 14.1345L38.064 25.1708L70.05 14.1345L47.1224 6.22285ZM54.0453 15.1957L50.7833 14.0756C49.211 13.5568 49.5161 11.2339 51.1588 11.1514C51.3583 11.1396 51.5577 11.1632 51.7455 11.234L55.0192 12.3659C57.0021 12.9672 55.9813 15.9503 54.0453 15.1957Z" fill="#D5F1EA"/>
<path d="M61.9185 20.1006V36.2305C44.9751 44.2601 29.3811 43.6234 14.186 36.2305V20.1006L37.5712 28.1655C37.888 28.2834 38.2283 28.2834 38.5334 28.1655L61.9185 20.1006Z" fill="#D5F1EA"/>
<path d="M61.9185 39.5322V42.1498C44.9751 50.1676 29.3811 49.5545 14.186 42.1852V39.5558C29.2872 46.5007 45.2098 47.043 61.9185 39.5322Z" fill="#D5F1EA"/>
<path d="M58.95 56.9946H7.18115C7.60356 58.0086 7.81477 59.0228 7.95557 60.0368C8.03771 60.025 8.11984 59.9896 8.21371 59.9896H22.1298C24.148 59.966 24.148 63.0199 22.1298 62.9963H8.20198C8.10811 62.9963 8.02597 62.9373 7.94384 62.9373C7.80304 63.9631 7.59183 64.9889 7.19289 65.9911H58.95C61.4493 65.9911 63.4205 64.0103 63.4205 61.487C63.4205 58.9756 61.461 56.9946 58.95 56.9946ZM32.0917 62.9845H28.8063C26.7881 63.0199 26.7881 59.9542 28.8063 59.9896H32.0917C34.0981 59.966 34.0981 63.0199 32.0917 62.9845Z" fill="#D5F1EA"/>
</g>
<defs>
<clipPath id="clip0_5_2519">
<rect width="80" height="90" fill="white"/>
</clipPath>
</defs>
</svg>
