<svg width="98" height="100" viewBox="0 0 98 100" fill="none" xmlns="http://www.w3.org/2000/svg">
<path d="M53.813 27.0504C53.813 12.0863 41.8705 0 26.9065 0C12.0863 0.143885 0 12.2302 0 27.0504C0 40.2878 9.64029 51.223 22.1583 53.5252V63.1655H17.9856V90.9353C17.9856 95.8273 22.0144 100 27.0504 100C31.9424 100 36.1151 95.9712 36.1151 90.9353V63.1655H31.9424V53.5252H31.7986C44.3165 51.223 53.813 40.2878 53.813 27.0504ZM33.5252 65.4676V90.9353C33.5252 94.5324 30.5036 97.6978 26.7626 97.6978C23.1655 97.6978 20 94.6763 20 90.9353V65.4676H24.1727V53.813C25.036 53.9568 25.8993 53.9568 26.7626 53.9568C27.6259 53.9568 28.4892 53.9568 29.3525 53.813V65.4676H33.5252ZM27.0504 51.6547C13.2374 51.6547 2.30216 40.7194 2.30216 26.9065C2.30216 13.3813 13.3813 2.15827 27.0504 2.15827C40.5755 2.15827 51.7986 13.2374 51.7986 26.9065C51.6547 40.5755 40.5755 51.6547 27.0504 51.6547Z" fill="#005E64"/>
<path d="M29.4961 65.4677V53.813C28.6328 53.9569 27.7695 53.9569 26.9061 53.9569C26.0428 53.9569 25.1795 53.9569 24.3162 53.813V65.4677H20.1436V90.9353C20.1436 94.5324 23.1651 97.6979 26.9061 97.6979C30.5033 97.6979 33.6687 94.6763 33.6687 90.9353V65.4677H29.4961ZM28.0572 91.7986H25.7551V89.4964H28.0572V91.7986ZM28.0572 86.4749H25.7551V84.1727H28.0572V86.4749ZM28.0572 81.1511H25.7551V78.849H28.0572V81.1511Z" fill="#D5F1EA"/>
<path d="M27.0509 2.30225C13.3819 2.30225 2.30273 13.3814 2.30273 27.0504C2.30273 40.7195 13.238 51.7987 27.0509 51.7987C40.5761 51.7987 51.7991 40.7195 51.7991 27.0504C51.6553 13.3814 40.5761 2.30225 27.0509 2.30225ZM43.5977 31.367C43.166 32.9497 42.5905 34.2447 41.7272 35.6835L44.3171 39.1368L39.2812 44.1728L35.684 41.7267C34.2452 42.4461 32.9502 43.0217 31.3675 43.5972L30.3603 48.0576H23.166L22.4466 43.7411C20.8639 43.3094 19.5689 42.59 18.1301 41.8706L14.6768 44.3166L9.64086 39.2807L12.0869 35.6835C11.3675 34.2447 10.6481 32.9497 10.2164 31.367L5.89986 30.6476V23.4533L10.2164 22.7339C10.6481 21.1512 11.3675 19.8562 12.0869 18.4174L9.64086 14.9641L14.533 9.78426L18.1301 12.2303C19.5689 11.5109 20.8639 10.7915 22.4466 10.3598L23.166 6.04325H30.3603L31.0797 10.3598C32.6624 10.7915 34.1013 11.367 35.684 12.2303L39.1373 9.78426L44.1732 14.8202L41.7272 18.4174C42.4466 19.8562 43.0222 21.1512 43.5977 22.7339L47.9142 23.4533V30.6476L43.5977 31.367Z" fill="#D5F1EA"/>
<path d="M28.057 89.4966H25.7549V91.7987H28.057V89.4966Z" fill="#005E64"/>
<path d="M28.057 78.8491H25.7549V81.1513H28.057V78.8491Z" fill="#005E64"/>
<path d="M28.057 84.1729H25.7549V86.475H28.057V84.1729Z" fill="#005E64"/>
<path d="M93.2373 86.0434V38.8491H84.0287V86.0434H80.5755V53.8132H71.3668V85.8995H67.9136V61.7268H58.705V86.0434H55.5395V70.3599H46.3309V85.8995H42.1582V88.2016H97.41V85.8995H93.0935V86.0434H93.2373ZM48.633 86.0434V72.806H53.2373V86.0434H48.633ZM61.151 86.0434V64.029H65.7553V86.0434H61.151ZM73.8129 86.0434V56.1153H78.4172V85.8995H73.8129V86.0434ZM86.3309 86.0434V41.1513H90.9352V86.0434H86.3309Z" fill="#005E64"/>
<path d="M47.9138 30.6473V23.453L43.5973 22.7336C43.1656 21.1509 42.5901 19.8559 41.7267 18.4171L44.1728 14.8199L39.1368 9.78398L35.6836 12.23C34.1008 11.5106 32.662 10.7912 31.0793 10.3595L30.3598 6.04297H23.1656L22.4462 10.3595C20.8634 10.7912 19.5685 11.3667 18.1296 12.23L14.5325 9.78398L9.64042 14.9638L12.0865 18.4171C11.367 19.8559 10.6476 21.1509 10.216 22.7336L5.89941 23.453V30.6473L10.216 31.3667C10.6476 32.9494 11.367 34.2444 12.0865 35.6833L9.64042 39.2804L14.6764 44.3163L18.1296 41.8703C19.5685 42.5897 20.8634 43.3092 22.4462 43.7408L23.1656 48.0574H30.3598L31.367 43.5969C32.9498 43.1653 34.2447 42.5897 35.6836 41.7264L39.2807 44.1725L44.3167 39.1365L41.7267 35.6833C42.4462 34.2444 43.0217 32.9494 43.5973 31.3667L47.9138 30.6473ZM41.5829 29.4962L41.439 30.2156C41.1512 32.0861 40.2879 33.6689 39.4246 35.1077L38.9929 35.6833L41.2951 38.8487L38.9929 41.1509L35.6836 38.9926L35.108 39.4243C33.5253 40.2876 31.9426 41.1509 30.216 41.5825L29.4965 41.7264L28.7771 45.7552H25.4678L24.7483 41.8703L24.0289 41.5825C22.1584 41.2948 20.7196 40.5753 19.1368 39.5681L18.5613 39.1365L15.3958 41.4386L12.9498 39.1365L15.2519 35.971L14.8203 35.3955C13.957 33.8128 13.0937 32.23 12.662 30.5034L12.5181 29.784L8.48934 29.0646V25.7552L12.3742 25.0358L12.5181 24.3163C12.8059 22.5897 13.5253 21.007 14.5325 19.4243L14.9642 18.8487L12.8059 15.3955L15.108 12.9494L18.2735 15.2516L18.8491 14.8199C20.4318 13.8128 22.0145 13.0933 23.7411 12.6617L24.4606 12.5178L25.18 8.48901H28.4893L29.2088 12.3739L29.9282 12.5178C31.7987 12.8056 33.3814 13.525 34.8203 14.5322L35.3958 14.9638L38.7052 12.9494L41.0073 15.2516L38.7052 18.561L39.1368 19.1365C40.144 20.7192 40.8634 22.302 41.2951 24.0286L41.439 24.748L45.4678 25.4674V28.7768L41.5829 29.4962Z" fill="#005E64"/>
<path d="M26.9062 17.6978C21.7264 17.6978 17.5537 22.0143 17.5537 27.0503C17.5537 32.2301 21.8703 36.4028 26.9062 36.4028C32.0861 36.4028 36.2587 32.0862 36.2587 27.0503C36.1149 22.0143 32.0861 17.6978 26.9062 17.6978ZM27.0501 34.1006V35.2517V34.1006C23.0213 34.1006 19.9998 30.9352 19.9998 27.0503C19.9998 23.1654 23.0213 20.1438 27.0501 20.1438C30.935 20.1438 34.1005 23.3093 34.1005 27.1942C34.1005 31.079 30.7911 33.9567 27.0501 34.1006Z" fill="#005E64"/>
</svg>
