<svg width="168" height="149" viewBox="0 0 168 149" fill="none" xmlns="http://www.w3.org/2000/svg">
<path d="M100.304 96.2174H151.135L116.129 61.3043" stroke="#231F20" stroke-width="2" stroke-miterlimit="10"/>
<path d="M138.762 83.8782V39.7826L129.171 30.1217" stroke="#231F20" stroke-width="2" stroke-miterlimit="10"/>
<path d="M155.93 2H32.2103C26.6477 2 22.1401 6.49565 22.1401 12.0435V112C22.1401 117.548 26.6477 122.043 32.2103 122.043H118.047L141.064 145V122.043H155.93C161.492 122.043 166 117.548 166 112V12.0435C166 6.49565 161.492 2 155.93 2Z" stroke="#94CCC1" stroke-width="3" stroke-miterlimit="10"/>
<path d="M16.1938 26.8696H21.181H23.0991L51.871 55.5652L66.3529 70.0087" stroke="#231F20" stroke-width="2" stroke-miterlimit="10"/>
<path d="M88.0275 91.6261L76.4229 80.0522" stroke="#231F20" stroke-width="2" stroke-miterlimit="10"/>
<path d="M52.1588 55.5652H51.871H16.1938" stroke="#231F20" stroke-width="2" stroke-miterlimit="10"/>
<path d="M71.0526 68V44.087L60.5029 33.5652" stroke="#231F20" stroke-width="2" stroke-miterlimit="10"/>
<path d="M86.3972 95.7391H46.8838" stroke="#231F20" stroke-width="2" stroke-miterlimit="10"/>
<path d="M9.09708 34.2348C13.0167 34.2348 16.1942 31.0657 16.1942 27.1565C16.1942 23.2473 13.0167 20.0782 9.09708 20.0782C5.17747 20.0782 2 23.2473 2 27.1565C2 31.0657 5.17747 34.2348 9.09708 34.2348Z" stroke="#F88600" stroke-width="4" stroke-miterlimit="10"/>
<path d="M56.0912 36.1478C60.0108 36.1478 63.1883 32.9787 63.1883 29.0695C63.1883 25.1603 60.0108 21.9913 56.0912 21.9913C52.1716 21.9913 48.9941 25.1603 48.9941 29.0695C48.9941 32.9787 52.1716 36.1478 56.0912 36.1478Z" stroke="#F88600" stroke-width="4" stroke-miterlimit="10"/>
<path d="M124.185 32.3217C128.105 32.3217 131.282 29.1527 131.282 25.2435C131.282 21.3343 128.105 18.1652 124.185 18.1652C120.265 18.1652 117.088 21.3343 117.088 25.2435C117.088 29.1527 120.265 32.3217 124.185 32.3217Z" stroke="#F88600" stroke-width="4" stroke-miterlimit="10"/>
<path d="M111.717 63.8869C115.637 63.8869 118.814 60.7179 118.814 56.8087C118.814 52.8995 115.637 49.7304 111.717 49.7304C107.798 49.7304 104.62 52.8995 104.62 56.8087C104.62 60.7179 107.798 63.8869 111.717 63.8869Z" stroke="#F88600" stroke-width="4" stroke-miterlimit="10"/>
<path d="M9.09708 62.9304C13.0167 62.9304 16.1942 59.7614 16.1942 55.8522C16.1942 51.943 13.0167 48.7739 9.09708 48.7739C5.17747 48.7739 2 51.943 2 55.8522C2 59.7614 5.17747 62.9304 9.09708 62.9304Z" stroke="#F88600" stroke-width="4" stroke-miterlimit="10"/>
<path d="M93.4945 103.104C97.4141 103.104 100.592 99.9353 100.592 96.0261C100.592 92.1169 97.4141 88.9478 93.4945 88.9478C89.5749 88.9478 86.3975 92.1169 86.3975 96.0261C86.3975 99.9353 89.5749 103.104 93.4945 103.104Z" stroke="#F88600" stroke-width="4" stroke-miterlimit="10"/>
<path d="M39.787 103.104C43.7066 103.104 46.8841 99.9353 46.8841 96.0261C46.8841 92.1169 43.7066 88.9478 39.787 88.9478C35.8674 88.9478 32.6899 92.1169 32.6899 96.0261C32.6899 99.9353 35.8674 103.104 39.787 103.104Z" stroke="#F88600" stroke-width="4" stroke-miterlimit="10"/>
<path d="M71.4364 82.0609C75.356 82.0609 78.5335 78.8918 78.5335 74.9826C78.5335 71.0734 75.356 67.9044 71.4364 67.9044C67.5168 67.9044 64.3394 71.0734 64.3394 74.9826C64.3394 78.8918 67.5168 82.0609 71.4364 82.0609Z" stroke="#F88600" stroke-width="4" stroke-miterlimit="10"/>
</svg>
