<svg width="96" height="96" viewBox="0 0 96 96" fill="none" xmlns="http://www.w3.org/2000/svg">
<circle cx="48" cy="48" r="48" fill="#D8E7E4"/>
<path d="M60.042 56.9807L63.1046 46.4528H82.4377V46.74C80.1407 47.6013 78.8965 50.1855 79.6621 52.4825C80.4278 54.7794 83.1076 56.0237 85.4046 55.258C87.7016 54.3966 88.9458 51.8125 88.1801 49.5155C87.7016 48.2713 86.7445 47.2185 85.4046 46.74V45.0172C85.4046 44.5387 85.2132 44.0601 84.8304 43.773L67.2201 30.5653L59.9463 10.2752V8.74389C62.2433 7.88251 63.4875 5.2984 62.7218 3.0014C61.9561 0.704411 59.2763 -0.539793 56.9793 0.225871C54.6823 1.08724 53.4381 3.67136 54.2038 5.96835C54.6823 7.21256 55.6394 8.26535 56.9793 8.74389V10.2752L49.8969 29.9911H46.0686L38.9862 10.2752V8.74389C41.2832 7.88251 42.5274 5.2984 41.7617 3.0014C40.9961 0.704411 38.3163 -0.539793 36.0193 0.225871C33.7223 1.08724 32.4781 3.67136 33.2437 5.96835C33.7223 7.21256 34.6794 8.26535 36.0193 8.74389V10.2752L28.7455 30.5653L11.1352 43.8687C10.7523 44.1559 10.5609 44.6344 10.5609 45.1129V46.9314C8.26394 47.7928 7.01974 50.3769 7.7854 52.6739C8.55107 54.9709 11.2309 56.2151 13.5279 55.4494C15.8249 54.588 17.0691 52.0039 16.3034 49.7069C15.8249 48.4627 14.8678 47.4099 13.5279 46.9314V46.6443H32.8609L35.9236 57.1721L27.3098 87.1288H4.53133C3.66996 87.1288 3 87.7987 3 88.6601C3 89.33 3.66996 90 4.53133 90H91.5299C92.3913 90 93.0612 89.33 93.0612 88.4687C93.0612 87.6073 92.3913 86.9373 91.5299 86.9373H68.56L60.042 56.9807ZM50.9497 33.0537H62.0519L47.9828 45.5915L33.9137 33.0537H50.9497ZM55.448 58.5121L47.9828 68.0829L40.5175 58.5121H55.448ZM41.3789 55.5451L47.9828 49.7069L54.5866 55.5451H41.3789ZM57.8407 60.2348L60.7119 70.2841L50.854 69.3271L57.8407 60.2348ZM57.745 54.3009L50.2798 47.6013L63.1046 36.1164L57.745 54.3009ZM71.8141 37.7434L64.3488 42.4331L66.8372 34.0108L71.8141 37.7434ZM29.1283 34.0108L31.6167 42.4331L24.1515 37.7434L29.1283 34.0108ZM45.7815 47.6013L38.3163 54.3009L32.9566 36.1164L45.7815 47.6013ZM38.1248 60.2348L45.1115 69.2314L35.2536 70.1884L38.1248 60.2348ZM61.5733 73.3468L64.5403 83.779L52.2896 72.4854L61.5733 73.3468ZM83.969 52.4825C83.1076 52.4825 82.4377 51.8125 82.4377 50.9511C82.4377 50.0898 83.1076 49.4198 83.969 49.4198C84.8304 49.4198 85.5003 50.0898 85.5003 50.9511C85.5003 51.8125 84.8304 52.4825 83.969 52.4825ZM68.1772 43.4859L74.3025 39.6576L79.375 43.4859H68.1772ZM62.6261 26.6413L56.3094 21.0902L58.5107 14.9649L62.6261 26.6413ZM58.5107 3.0014C59.372 3.0014 60.042 3.67136 60.042 4.53273C60.042 5.3941 59.2763 6.06406 58.5107 6.06406C57.745 6.06406 56.9793 5.3941 56.9793 4.53273C56.9793 3.67136 57.6493 3.0014 58.5107 3.0014ZM55.2566 24.1529L62.0519 30.0868H53.151L55.2566 24.1529ZM34.0094 29.9911L40.8047 24.0572L42.9102 29.9911H34.0094ZM33.3394 26.6413L37.4549 14.9649L39.6562 21.0902L33.3394 26.6413ZM37.4549 3.0014C38.3163 3.0014 38.9862 3.67136 38.9862 4.53273C38.9862 5.3941 38.3163 6.06406 37.4549 6.06406C36.5935 6.06406 35.9236 5.3941 35.9236 4.53273C35.9236 3.67136 36.6892 3.0014 37.4549 3.0014ZM11.9966 52.4825C11.1352 52.4825 10.4652 51.8125 10.4652 50.9511C10.4652 50.0898 11.1352 49.4198 11.9966 49.4198C12.8579 49.4198 13.5279 50.0898 13.5279 50.9511C13.5279 51.8125 12.8579 52.4825 11.9966 52.4825ZM21.6631 39.6576L27.7884 43.4859H16.4948L21.6631 39.6576ZM34.3922 73.3468L43.6759 72.3897L31.4253 83.779L34.3922 73.3468ZM47.9828 72.5811L63.6789 87.0331H32.2867L47.9828 72.5811Z" fill="#005E64"/>
</svg>
