<svg width="91" height="100" viewBox="0 0 91 100" fill="none" xmlns="http://www.w3.org/2000/svg">
<g clip-path="url(#clip0_5_1895)">
<path d="M48.2996 80.0001C63.0456 80.0001 74.9996 68.0461 74.9996 53.3001C74.9996 38.5541 63.0456 26.6001 48.2996 26.6001C33.5536 26.6001 21.5996 38.5541 21.5996 53.3001C21.5996 68.0461 33.5536 80.0001 48.2996 80.0001Z" fill="#D5F1EA"/>
<path d="M45.3002 22.8999C38.1002 22.8999 31.4002 25.6999 26.2002 30.8999C21.2002 35.8999 18.2002 42.7999 18.2002 49.9999C18.2002 64.7999 30.3002 76.8999 45.3002 76.8999C52.5002 76.8999 59.2002 74.0999 64.4002 68.8999C69.4002 63.8999 72.4002 56.9999 72.4002 49.7999C72.2002 35.1999 60.1002 22.8999 45.3002 22.8999ZM35.9002 40.0999C36.5002 37.1999 37.3002 34.3999 38.2002 32.0999C40.2002 27.7999 42.6002 25.3999 45.2002 25.1999C49.3002 25.1999 53.0002 31.4999 54.5002 39.9999H35.9002V40.0999ZM56.9002 40.1999C55.8002 34.0999 53.7002 28.9999 51.1002 25.9999C58.6002 27.7999 64.9002 33.1999 67.9002 40.1999H56.9002ZM22.6002 40.0999C23.8002 37.2999 25.5002 34.6999 27.8002 32.5999C31.0002 29.3999 35.0002 27.0999 39.4002 25.9999C38.2002 27.3999 37.1002 29.0999 36.2002 31.1999C35.1002 33.7999 34.2002 36.8999 33.6002 40.0999H22.6002ZM57.3002 57.4999C57.6002 55.0999 57.8002 52.5999 57.8002 49.9999C57.8002 47.3999 57.6002 44.7999 57.3002 42.4999H68.8002C69.6002 44.9999 70.0002 47.3999 70.0002 49.9999C70.0002 52.5999 69.5002 54.9999 68.8002 57.4999H57.3002ZM35.6002 57.4999C35.3002 55.0999 35.1002 52.5999 35.1002 49.9999C35.1002 47.3999 35.3002 44.7999 35.6002 42.4999H55.0002C55.3002 44.7999 55.5002 47.3999 55.5002 49.9999C55.5002 52.5999 55.3002 55.1999 55.0002 57.4999H35.6002ZM21.7002 57.4999C20.9002 55.0999 20.5002 52.5999 20.5002 49.9999C20.5002 47.3999 21.0002 44.9999 21.7002 42.4999H33.2002C32.9002 44.8999 32.7002 47.3999 32.7002 49.9999C32.7002 52.5999 32.9002 55.1999 33.2002 57.4999H21.7002ZM39.4002 73.9999C31.9002 72.1999 25.6002 66.7999 22.6002 59.7999H33.6002C34.7002 65.8999 36.9002 70.8999 39.4002 73.9999ZM51.1002 73.9999C52.3002 72.5999 53.4002 70.8999 54.3002 68.7999C55.4002 66.1999 56.3002 63.0999 56.9002 59.8999H67.9002C66.7002 62.6999 65.0002 65.2999 62.7002 67.3999C59.5002 70.5999 55.4002 72.8999 51.1002 73.9999ZM45.3002 74.7999C41.2002 74.7999 37.5002 68.4999 36.0002 59.9999H54.7002C54.1002 62.8999 53.3002 65.6999 52.4002 67.9999C50.3002 72.1999 47.9002 74.7999 45.3002 74.7999V74.9999V74.7999Z" fill="#016065"/>
<path d="M45.3004 0C42.2004 0 39.8004 2.3 39.5004 5.2C29.4004 6.4 19.9004 11.2 12.9004 18.3L14.6004 20C21.3004 13.1 30.2004 8.7 39.7004 7.5C40.5004 9.9 42.6004 11.9 45.4004 11.9C48.6004 11.9 51.4004 9.3 51.4004 5.9C51.4004 2.5 48.6004 0 45.3004 0ZM45.3004 9.6C43.3004 9.6 41.6004 7.9 41.6004 5.9C41.6004 3.8 43.3004 2.2 45.3004 2.2C47.3004 2.2 48.9004 4 48.9004 6C48.9004 8 47.2004 9.6 45.3004 9.6Z" fill="#016065"/>
<path d="M7 22C4.9 22 2.9 23.1 1.8 24.9C1.2 26.1 0.9 27.8 1.3 29.3C1.6 30.5 2.4 31.6 3.4 32.4C1.2 37.9 0 43.9 0 50C0 54.3 0.6 58.7 1.8 62.8L4 62.2C2.8 58.2 2.3 54.2 2.3 50.1C2.3 44.4 3.4 38.8 5.5 33.6C6 33.8 6.6 33.8 7 33.8C9.1 33.8 11.1 32.7 12.2 30.9C13 29.5 13.3 28 12.8 26.5C12.3 25 11.4 23.7 10 22.8C9.2 22.3 8.1 22 7 22ZM7.2 31.4C6.6 31.4 5.9 31.2 5.3 30.9C4.4 30.4 3.9 29.7 3.6 28.6C3.4 27.8 3.5 26.8 4 26C4.6 24.9 5.8 24.2 7.2 24.2C7.8 24.2 8.4 24.4 9 24.7C9.9 25.2 10.4 25.9 10.7 27C11 27.9 10.9 29 10.4 29.8C9.7 30.8 8.4 31.4 7.2 31.4Z" fill="#016065"/>
<path d="M6.7003 65.7002C5.6003 65.7002 4.7003 66.0002 3.8003 66.5002C2.4003 67.3002 1.4003 68.5002 1.0003 70.0002C0.500304 71.5002 0.800304 73.1002 1.6003 74.4002C2.7003 76.2002 4.7003 77.5002 6.8003 77.5002C7.6003 77.5002 8.3003 77.3002 9.1003 77.0002C15.1003 84.8002 23.3003 90.6002 32.8003 93.2002L33.4003 91.1002C24.6003 88.8002 16.7003 83.3002 11.0003 76.0002C12.8003 74.2002 13.3003 71.3002 11.9003 68.8002C10.9003 67.0002 8.9003 65.7002 6.7003 65.7002ZM7.1003 75.5002C5.8003 75.5002 4.4003 74.8002 3.6003 73.6002C3.1003 72.7002 3.0003 71.8002 3.3003 70.8002C3.6003 69.9002 4.2003 69.1002 5.0003 68.7002C5.6003 68.4002 6.2003 68.2002 6.8003 68.2002C8.2003 68.2002 9.4003 69.0002 10.0003 70.0002C10.9003 71.7002 10.3003 74.0002 8.6003 75.0002C8.2003 75.3002 7.7003 75.5002 7.1003 75.5002Z" fill="#016065"/>
<path d="M75.6996 80.2998C68.9996 86.9998 60.1996 91.2998 50.8996 92.4998C50.5996 91.5998 50.0996 90.6998 49.3996 89.8998C48.2996 88.7998 46.7996 88.0998 45.0996 88.0998C41.8996 88.0998 39.0996 90.6998 39.0996 93.8998C39.0996 95.3998 39.6996 96.9998 40.7996 98.1998C41.8996 99.2998 43.3996 99.9998 44.8996 99.9998C47.9996 99.9998 50.3996 97.6998 50.6996 94.7998C60.5996 93.5998 69.7996 88.9998 76.9996 81.7998L75.6996 80.2998ZM45.2996 97.6998C44.1996 97.6998 43.2996 97.1998 42.6996 96.5998C41.9996 95.8998 41.5996 94.9998 41.5996 93.9998C41.5996 91.9998 43.2996 90.2998 45.2996 90.2998C46.1996 90.2998 47.0996 90.7998 47.8996 91.3998C48.4996 92.1998 48.9996 93.0998 48.9996 93.9998C48.8996 96.1998 47.1996 97.6998 45.2996 97.6998V98.7998V97.6998Z" fill="#016065"/>
<path d="M56.3998 6.1001L55.7998 8.4001C65.2998 10.7001 73.7998 16.4001 79.6998 24.3001C78.8998 25.1001 78.4998 25.8001 78.1998 26.9001C77.6998 28.4001 77.8998 30.0001 78.6998 31.5001C79.7998 33.3001 81.7998 34.6001 83.8998 34.6001C84.9998 34.6001 85.8998 34.3001 86.7998 33.8001C88.1998 33.0001 89.1998 31.8001 89.6998 30.3001C90.1998 28.8001 89.9998 27.2001 89.1998 25.7001C88.0998 23.9001 86.0998 22.6001 83.9998 22.6001C83.1998 22.6001 82.4998 22.8001 81.8998 23.1001C75.4998 14.7001 66.4998 8.6001 56.3998 6.1001ZM83.8998 32.1001C82.5998 32.1001 81.2998 31.5001 80.6998 30.3001C80.1998 29.4001 80.0998 28.5001 80.3998 27.5001C80.6998 26.5001 81.2998 25.8001 82.0998 25.4001C82.6998 25.1001 83.2998 24.9001 83.8998 24.9001C85.0998 24.9001 86.2998 25.7001 86.9998 26.7001C87.4998 27.6001 87.5998 28.5001 87.2998 29.5001C86.9998 30.5001 86.3998 31.2001 85.5998 31.6001C85.0998 31.9001 84.4998 32.1001 83.8998 32.1001Z" fill="#016065"/>
<path d="M88.9999 38.5L86.6999 39.1C87.5999 42.6 88.0999 46.3 88.0999 50C88.0999 55.8 86.8999 61.5 84.5999 66.8C84.0999 66.6 83.4999 66.6 82.8999 66.6C80.7999 66.6 78.8999 67.7 77.8999 69.5C76.1999 72.3 77.0999 75.9 79.8999 77.6C80.7999 78.2 81.8999 78.4 82.9999 78.4C85.0999 78.4 86.9999 77.3 87.9999 75.5C88.7999 74.1 89.0999 72.6 88.5999 71.1C88.7999 69.9 87.9999 68.8 86.8999 67.9C89.2999 62.2 90.5999 56.1 90.5999 50C90.4999 46.2 90.0999 42.2 88.9999 38.5ZM82.9999 76.3C82.3999 76.3 81.7999 76.1 81.1999 75.8C79.4999 74.7 78.8999 72.6 79.9999 70.8C80.5999 69.7 81.7999 69 83.1999 69C83.7999 69 84.3999 69.2 84.9999 69.5C85.7999 70 86.3999 70.7 86.6999 71.8C86.9999 72.7 86.8999 73.6 86.1999 74.6C85.5999 75.5 84.3999 76.3 82.9999 76.3Z" fill="#016065"/>
</g>
<defs>
<clipPath id="clip0_5_1895">
<rect width="90.5" height="100" fill="white"/>
</clipPath>
</defs>
</svg>
