<svg width="129" height="105" viewBox="0 0 129 105" fill="none" xmlns="http://www.w3.org/2000/svg">
<g clip-path="url(#clip0_5_1861)">
<path d="M124.4 42.2H118.4V10C118.4 7.3 116.2 5 113.4 5H16.8C14.1 5 11.8 7.2 11.8 10V76.6L5 76.4V82.1L10.3 89.5H86.3V100.5C86.3 102.9 88.3 104.9 90.7 104.9H124.3C126.7 104.9 128.7 102.9 128.7 100.5V46.5C128.8 44.2 126.8 42.2 124.4 42.2Z" fill="#D5F1EA"/>
<path d="M42.0002 21.7998H15.7002V41.4998H42.0002V21.7998Z" fill="white"/>
<path d="M73.1002 21.7998H47.7002V41.2998H73.1002V21.7998Z" fill="white"/>
<path d="M105 38.5002H83.8004L83.0004 41.8002H78.4004V22.7002H105V38.5002Z" fill="white"/>
<path d="M73.1002 50H15.7002V64.2H73.1002V50Z" fill="white"/>
<path d="M100.1 53.2998H88.2998V62.7998H100.1V53.2998Z" fill="white"/>
<path d="M116.4 53.2998H105.8V62.1998H116.4V53.2998Z" fill="white"/>
<path d="M116.4 69.1001H88.2998V78.7001H116.4V69.1001Z" fill="white"/>
<path d="M31.2004 6.2998H28.4004V9.0998H31.2004V6.2998Z" fill="#016065"/>
<path d="M17.9 6.2998H15V9.0998H17.9V6.2998Z" fill="#016065"/>
<path d="M24.6002 6.2998H21.7002V9.0998H24.6002V6.2998Z" fill="#016065"/>
<path d="M106.3 41.2998H99V44.1998H106.3V41.2998Z" fill="#016065"/>
<path d="M107 92.6001H98.0002C97.2002 92.6001 96.7002 93.2001 96.7002 93.9001C96.7002 94.7001 97.3002 95.2001 98.0002 95.2001H107C107.8 95.2001 108.3 94.6001 108.3 93.9001C108.6 93.1001 107.8 92.6001 107 92.6001Z" fill="#016065"/>
<path d="M108.2 0H12.2C9.3 0 6.9 2.3 6.9 5.3V71.4H0V77.1L5.3 84.5H81.5V95.7C81.5 98 83.4 99.9 85.7 99.9H119.6C121.9 99.9 123.8 98 123.8 95.7V41.3C123.8 39 121.9 37.1 119.6 37.1H113.5V5.3C113.5 2.5 111.2 0 108.2 0ZM9.7 12.2V5.3C9.7 4 10.8 2.8 12.2 2.8H108.2C109.5 2.8 110.7 3.9 110.7 5.3V12.2H9.7ZM9.7 71V14.9H110.7V37H106.1V20.6H77.3V42.9H81.3V71H9.7ZM80.4 40.4V23.8H103.4V37.1H103.2H85.7C83.8 37.1 82.1 38.4 81.7 40.3H80.4V40.4ZM84.2 45.9V41.3C84.2 40.5 84.8 40 85.5 40H119.4C119.5 40 119.6 40 119.7 40C120.5 40 120.9 40.7 120.9 41.4V46H84.2V45.9ZM84.2 88.2V48.8H121V88.2H84.2ZM6.7 81.5L2.7 76V74.1H81.4V81.5H6.7ZM85.7 97C84.9 97 84.4 96.4 84.4 95.7V90.9H121.2V95.7C121 96.5 120.4 97 119.7 97H85.7Z" fill="#016065"/>
<path d="M42.9998 20.7998H14.2998V42.9998H42.9998V20.7998ZM17.0998 40.1998V23.5998H40.0998V40.1998H17.0998Z" fill="#016065"/>
<path d="M74.5002 20.7998H45.7002V42.9998H74.5002V20.7998ZM48.6002 40.1998V23.5998H71.6002V40.1998H48.6002Z" fill="#016065"/>
<path d="M74.6998 48.3999H14.2998V65.4999H74.6998V48.3999ZM17.0998 62.8999V51.1999H71.7998V62.7999H17.0998V62.8999Z" fill="#016065"/>
<path d="M101.1 51.6001H86.7002V64.2001H101.2V51.6001H101.1ZM89.5002 61.3001V54.4001H98.3002V61.3001H89.5002Z" fill="#016065"/>
<path d="M118.5 51.6001H104V64.2001H118.5V51.6001ZM106.9 61.3001V54.4001H115.7V61.3001H106.9Z" fill="#016065"/>
<path d="M118.3 67.3999H86.7002V80.3999H118.3V67.3999ZM89.5002 77.4999V70.2999H115.6V77.4999H89.5002Z" fill="#016065"/>
</g>
<defs>
<clipPath id="clip0_5_1861">
<rect width="128.8" height="105" fill="white"/>
</clipPath>
</defs>
</svg>
