<svg width="104" height="100" viewBox="0 0 104 100" fill="none" xmlns="http://www.w3.org/2000/svg">
<g clip-path="url(#clip0_5_1832)">
<path d="M85.6996 66.0001C85.6996 62.8001 83.0996 60.1001 79.7996 60.1001C79.1996 60.1001 78.4996 60.3001 77.8996 60.4001V53.2001V48.6001C78.4996 48.8001 79.1996 48.9001 79.7996 48.9001C82.9996 48.9001 85.6996 46.3001 85.6996 43.0001C85.6996 39.8001 83.0996 37.1001 79.7996 37.1001C79.1996 37.1001 78.4996 37.3001 77.8996 37.4001V30.4001H70.8996C71.0996 29.8001 71.1996 29.1001 71.1996 28.5001C71.1996 25.3001 68.5996 22.6001 65.2996 22.6001C62.0996 22.6001 59.3996 25.2001 59.3996 28.5001C59.3996 29.1001 59.5996 29.8001 59.6996 30.4001H55.0996H52.6996H48.0996C48.2996 29.8001 48.3996 29.1001 48.3996 28.5001C48.3996 25.3001 45.7996 22.6001 42.4996 22.6001C39.2996 22.6001 36.5996 25.2001 36.5996 28.5001C36.5996 29.1001 36.7996 29.8001 36.8996 30.4001H29.8996V37.4001C29.2996 37.2001 28.5996 37.1001 27.9996 37.1001C24.7996 37.1001 22.0996 39.7001 22.0996 43.0001C22.0996 46.2001 24.6996 48.9001 27.9996 48.9001C28.5996 48.9001 29.2996 48.7001 29.8996 48.6001V53.2001V54.3001V60.2001C29.2996 60.2001 28.5996 60.2001 27.9996 60.2001C24.7996 60.2001 22.0996 62.8001 22.0996 66.1001C22.0996 69.3001 24.6996 72.0001 27.9996 72.0001C28.5996 72.0001 29.2996 71.8001 29.8996 71.7001V78.7001H36.8996C36.6996 79.3001 36.5996 80.0001 36.5996 80.8001C36.5996 84.0001 39.1996 86.7001 42.4996 86.7001C45.6996 86.7001 48.3996 84.1001 48.3996 80.8001C48.3996 80.2001 48.1996 79.4001 48.0996 78.7001H55.0996H59.8996C59.6996 79.3001 59.5996 80.0001 59.5996 80.8001C59.5996 84.0001 62.1996 86.7001 65.4996 86.7001C68.6996 86.7001 71.3996 84.1001 71.3996 80.8001C71.3996 80.2001 71.1996 79.4001 71.0996 78.7001H78.0996V71.7001C78.6996 71.9001 79.3996 72.0001 79.9996 72.0001C83.0996 71.9001 85.6996 69.2001 85.6996 66.0001Z" fill="#D5F1EA"/>
<path d="M60.4002 18C57.2002 18 54.5002 20.6 54.5002 23.9C54.5002 24.5 54.7002 25.2 54.8002 25.8H50.2002H47.8002H43.2002C43.4002 25.2 43.5002 24.5 43.5002 23.9C43.5002 20.7 40.9002 18 37.6002 18C34.4002 18 31.7002 20.6 31.7002 23.9C31.7002 24.5 31.9002 25.2 32.0002 25.8H25.0002V32.8C24.4002 32.6 23.7002 32.5 23.1002 32.5C19.9002 32.5 17.2002 35.1 17.2002 38.4C17.2002 41.6 19.8002 44.3 23.1002 44.3C23.7002 44.3 24.4002 44.1 25.0002 44V48.6V49.7V55.6C24.4002 55.6 23.7002 55.6 23.1002 55.6C19.9002 55.6 17.2002 58.2 17.2002 61.5C17.2002 64.7 19.8002 67.4 23.1002 67.4C23.7002 67.4 24.4002 67.2 25.0002 67.1V74.1H32.0002C31.8002 74.7 31.7002 75.4 31.7002 76.2C31.7002 79.4 34.3002 82.1 37.6002 82.1C40.8002 82.1 43.5002 79.5 43.5002 76.2C43.5002 75.6 43.3002 74.8 43.2002 74.1H50.2002H55.0002C54.8002 74.7 54.7002 75.4 54.7002 76.2C54.7002 79.4 57.3002 82.1 60.6002 82.1C63.8002 82.1 66.5002 79.5 66.5002 76.2C66.5002 75.6 66.3002 74.8 66.2002 74.1H73.2002V67.1C73.8002 67.3 74.5002 67.4 75.1002 67.4C78.3002 67.2 80.8002 64.5 80.8002 61.3C80.8002 58.1 78.2002 55.4 74.9002 55.4C74.3002 55.4 73.6002 55.6 73.0002 55.7V48.5V44C73.6002 44.2 74.3002 44.3 74.9002 44.3C78.1002 44.3 80.8002 41.7 80.8002 38.4C80.8002 35.2 78.2002 32.5 74.9002 32.5C74.3002 32.5 73.6002 32.7 73.0002 32.8V25.8H66.0002C66.2002 25.2 66.3002 24.5 66.3002 23.9C66.3002 20.7 63.8002 18 60.4002 18ZM50.2002 48.8V39.2V38.1V28.4H59.8002L57.9002 26.3C57.3002 25.7 56.9002 24.9 56.9002 23.9C56.9002 22 58.5002 20.4 60.4002 20.4C62.3002 20.4 63.9002 22 63.9002 23.9C63.9002 24.9 63.6002 25.7 62.9002 26.3L61.0002 28.4H70.6002V38L72.7002 36.1C73.3002 35.5 74.1002 35.1 75.1002 35.1C77.0002 35.1 78.6002 36.7 78.6002 38.6C78.6002 40.5 77.0002 42.1 75.1002 42.1C74.1002 42.1 73.3002 41.8 72.7002 41.1L70.6002 39.2V48.8H50.2002ZM27.6002 38V28.4H37.2002L35.3002 26.3C34.7002 25.7 34.3002 24.9 34.3002 23.9C34.3002 22 35.9002 20.4 37.8002 20.4C39.7002 20.4 41.3002 22 41.3002 23.9C41.3002 24.9 41.0002 25.7 40.3002 26.3L38.4002 28.4H48.0002V33C47.4002 32.8 46.7002 32.7 46.1002 32.7C42.9002 32.7 40.2002 35.3 40.2002 38.6C40.2002 41.8 42.8002 44.5 46.1002 44.5C46.7002 44.5 47.4002 44.3 48.0002 44.2V48.8H27.4002V39.2L25.5002 41.1C24.9002 41.7 24.1002 42.1 23.1002 42.1C21.2002 42.1 19.6002 40.5 19.6002 38.6C19.6002 36.7 21.2002 35.1 23.1002 35.1C24.1002 35.1 24.9002 35.4 25.5002 36.1L27.6002 38ZM45.9002 42.1C44.0002 42.1 42.4002 40.5 42.4002 38.6C42.4002 36.7 44.0002 35.1 45.9002 35.1C46.7002 35.1 47.3002 35.3 47.8002 35.7V41.4C47.2002 41.9 46.6002 42.1 45.9002 42.1ZM27.4002 60.8V51.2H47.8002V55.8C47.2002 55.6 46.5002 55.5 45.9002 55.5C45.1002 55.5 44.3002 55.7 43.7002 56C41.6002 57 40.2002 59 40.2002 61.4C40.2002 64.6 42.8002 67.3 46.1002 67.3C46.7002 67.3 47.4002 67.1 48.0002 67V71.6H47.8002H38.2002L40.1002 73.7C40.7002 74.3 41.1002 75.1 41.1002 76.1C41.1002 78 39.5002 79.6 37.6002 79.6C35.7002 79.6 34.1002 78 34.1002 76.1C34.1002 75.1 34.4002 74.3 35.1002 73.7L37.0002 71.6H27.4002V62L25.4002 64C24.8002 64.6 24.0002 65 23.0002 65C21.1002 65 19.5002 63.4 19.5002 61.5C19.5002 59.6 21.1002 58 23.0002 58C24.0002 58 24.8002 58.3 25.4002 59L27.4002 60.8ZM50.1002 60.8V51.2H70.5002V60.8L72.6002 58.9C73.1002 58.4 73.9002 57.9 75.0002 57.9C76.9002 57.9 78.5002 59.5 78.5002 61.4C78.5002 63.3 76.9002 64.9 75.0002 64.9C74.2002 64.9 73.4002 64.6 72.8002 63.9L70.7002 62V71.6H61.1002L63.0002 73.7C63.6002 74.3 64.0002 75.1 64.0002 76.1C64.0002 78 62.4002 79.6 60.5002 79.6C58.6002 79.6 57.0002 78 57.0002 76.1C57.0002 75.1 57.3002 74.3 58.0002 73.7L59.9002 71.6H50.3002V62L48.2002 64C47.9002 64.3 47.6002 64.5 47.1002 64.6C46.8002 64.8 46.3002 64.9 45.8002 64.9C43.9002 64.9 42.3002 63.3 42.3002 61.4C42.3002 60 43.1002 58.7 44.4002 58.2C44.9002 58 45.2002 57.9 45.7002 57.9C46.7002 57.9 47.5002 58.2 48.1002 58.9L50.1002 60.8Z" fill="#016065"/>
<path d="M2.6002 54.3999L0.200195 54.5999C0.200195 55.3999 0.400195 56.1999 0.400195 56.9999L2.8002 56.6999C2.7002 55.9999 2.6002 55.1999 2.6002 54.3999Z" fill="#016065"/>
<path d="M3.1998 60L0.799805 60.3C0.999805 61.1 1.0998 61.9 1.2998 62.7L3.6998 62.2C3.4998 61.4 3.2998 60.6 3.1998 60Z" fill="#016065"/>
<path d="M0 48.7998C0 49.3998 0 49.8998 0 50.5998V51.1998H2.4V50.6998C2.4 50.0998 2.4 49.3998 2.4 48.8998L0 48.7998Z" fill="#016065"/>
<path d="M27.5998 0L26.4998 2.1L32.3998 5C15.8998 11.2 3.4998 25.7 0.599805 43.2C0.399805 43.8 0.399805 44.6 0.299805 45.6L2.6998 45.9C2.6998 44.8 2.8998 44.1 2.9998 43.5C5.6998 27 17.3998 13.1 33.1998 7.3L30.2998 13.2L32.3998 14.3L37.1998 4.7L27.5998 0Z" fill="#016065"/>
<path d="M73.8 8.7998L72.5 10.8998C73.3 11.3998 73.9 11.6998 74.6 12.1998L75.9 10.0998C75.3 9.5998 74.6 9.2998 73.8 8.7998Z" fill="#016065"/>
<path d="M63.5998 4.1001L62.7998 6.3001C63.5998 6.6001 64.1998 6.8001 64.9998 7.1001L65.7998 4.9001C65.0998 4.6001 64.3998 4.3001 63.5998 4.1001Z" fill="#016065"/>
<path d="M68.9004 6.2002L67.9004 8.4002C68.7004 8.7002 69.3004 9.0002 70.0004 9.4002L71.0004 7.3002C70.3004 6.9002 69.5004 6.5002 68.9004 6.2002Z" fill="#016065"/>
<path d="M78.6002 12L77.2002 13.9C78.0002 14.5 78.6002 15 79.0002 15.3L79.6002 14.5L79.0002 15.3C91.8002 26.1 97.8002 43.4 94.8002 59.6L91.3002 54L89.2002 55.3L94.9002 64.2L103.8 58.5L102.7 56.6L97.1002 60.1C100.4 42.9 94.1002 24.9 80.5002 13.5C80.1002 13.2 79.4002 12.6 78.6002 12Z" fill="#016065"/>
<path d="M76.1998 89.2002C75.5998 89.5002 74.8998 90.0002 74.2998 90.3002L75.5998 92.4002C76.1998 91.9002 76.8998 91.6002 77.6998 91.1002L76.1998 89.2002Z" fill="#016065"/>
<path d="M24.6004 83.3999L13.9004 83.6999L14.5004 94.3999L16.9004 94.1999L16.6004 87.6999C25.7004 95.6999 37.3004 99.9999 49.3004 99.9999C54.7004 99.9999 60.0004 99.1999 65.2004 97.2999C65.8004 97.0999 66.5004 96.7999 67.4004 96.2999L66.6004 94.3999C65.6004 94.6999 65.0004 94.9999 64.4004 95.1999L64.7004 96.2999L64.4004 95.1999C59.5004 96.8999 54.4004 97.7999 49.2004 97.7999C37.9004 97.7999 26.8004 93.6999 18.1004 86.0999L24.6004 85.7999V83.3999Z" fill="#016065"/>
<path d="M80.5002 85.7998C79.9002 86.2998 79.2002 86.7998 78.7002 87.1998L80.1002 89.0998C80.7002 88.5998 81.4002 88.0998 82.0002 87.4998L80.5002 85.7998Z" fill="#016065"/>
<path d="M71.7996 91.8999C70.7996 92.3999 70.1996 92.6999 69.5996 92.9999L70.6996 95.0999C71.2996 94.7999 72.0996 94.2999 72.8996 93.9999L71.7996 91.8999Z" fill="#016065"/>
</g>
<defs>
<clipPath id="clip0_5_1832">
<rect width="103.8" height="100" fill="white"/>
</clipPath>
</defs>
</svg>
