<svg width="112" height="100" viewBox="0 0 112 100" fill="none" xmlns="http://www.w3.org/2000/svg">
<g clip-path="url(#clip0_5_1912)">
<path d="M108.9 93.5H7.8C6.2 93.5 5 92.2 5 90.7V7.8C5 6.3 6.3 5 7.8 5H108.9C110.5 5 111.7 6.3 111.7 7.8V90.7C111.8 92.2 110.5 93.5 108.9 93.5Z" fill="#D5F1EA"/>
<path d="M97.2006 24.2998H43.6006V40.8998H97.2006V24.2998Z" fill="white"/>
<path d="M26.9002 63.2998H7.7002V76.5998H26.9002V63.2998Z" fill="white"/>
<path d="M53.5002 63.2998H34.2002V77.2998H53.5002V63.2998Z" fill="white"/>
<path d="M97.6002 82.9998V78.6998L93.6002 77.5998C93.3002 75.6998 92.5002 73.8998 91.5002 72.2998L93.6002 68.7998L90.3002 65.9998L87.3002 67.8998C85.6002 66.6998 83.6002 65.8998 81.5002 65.4998L81.0002 62.4998L76.4002 62.2998C76.4002 62.2998 75.9002 64.1998 75.6002 65.4998C73.9002 65.8998 72.3002 66.4998 70.9002 67.3998L68.1002 65.5998L64.2002 69.2998L66.0002 72.1998C65.0002 73.9998 64.3002 75.9998 63.9002 78.0998L60.2002 78.5998L60.5002 82.7998L64.0002 83.1998C64.4002 85.0998 65.1002 86.7998 66.0002 88.3998C65.1002 89.5998 63.8002 91.1998 63.7002 91.1998C63.4002 91.1998 67.7002 94.5998 67.7002 94.5998L70.2002 92.7998C71.8002 93.8998 73.7002 94.6998 75.6002 95.0998L76.2002 99.1998H81.0002L82.0002 94.9998C83.7002 94.5998 85.3002 93.8998 86.8002 92.9998L89.9002 95.2998L93.4002 91.6998L91.2002 88.6998C92.2002 87.2998 92.9002 85.5998 93.3002 83.8998L97.6002 82.9998Z" fill="white"/>
<path d="M78.8 87.1C82.5555 87.1 85.6 84.0555 85.6 80.3C85.6 76.5445 82.5555 73.5 78.8 73.5C75.0445 73.5 72 76.5445 72 80.3C72 84.0555 75.0445 87.1 78.8 87.1Z" fill="#D5F1EA"/>
<path d="M78.8002 72.2002C76.7002 72.2002 74.5002 73.0002 73.0002 74.7002C71.5002 76.2002 70.7002 78.3002 70.7002 80.5002C70.7002 84.9002 74.3002 88.6002 78.9002 88.6002C83.3002 88.6002 87.0002 84.8002 87.0002 80.4002C86.8002 75.8002 83.2002 72.2002 78.8002 72.2002ZM78.8002 86.0002C75.7002 86.0002 73.0002 83.5002 73.0002 80.2002C73.0002 78.7002 73.7002 77.2002 74.6002 76.1002C75.8002 74.9002 77.1002 74.5002 78.7002 74.5002C81.8002 74.5002 84.5002 77.0002 84.5002 80.3002C84.5002 83.6002 81.9002 86.0002 78.8002 86.0002V87.2002V86.0002Z" fill="#016065"/>
<path d="M100.8 0H6.1C2.8 0 0 2.8 0 6.1V81.8C0 85.3 2.8 87.9 6.1 87.9H64.7C64.9 88.1 64.9 88.2 64.9 88.4L62.6 92L67.5 96.8L70.8 94.5C72 95.2 73.3 95.7 74.6 96.1L75.4 100H82.3L83 96.1C84.3 95.8 85.6 95.1 86.8 94.5L90.3 96.8L95.1 91.9L92.8 88.6C92.8 88.4 93 88.4 93 88.3H100.9C104.4 88.3 107 85.5 107 82.2V6.4C106.9 2.8 104.1 0 100.8 0ZM2.5 12.3V6.1C2.5 4.1 4.1 2.5 6.1 2.5H100.8C102.8 2.5 104.4 4.1 104.4 6.1V12.4H2.5V12.3ZM6.1 85.4C4.1 85.4 2.5 83.8 2.5 81.8V14.8H104.5V81.9C104.5 83.9 102.9 85.5 100.9 85.5H94.2C94.4 85.2 94.5 84.8 94.5 84.5L98.4 83.7V76.8L94.5 76.1C94.2 74.8 93.5 73.5 92.9 72.3L95.2 68.8L90.1 64L86.8 66.3C85.6 65.6 84.3 65.1 83 64.7L82 60.8H75.1L74.4 64.7C73.1 65 71.8 65.7 70.6 66.3L67.3 64L62.4 68.9L64.7 72.2C64 73.4 63.5 74.7 63 76L59.2 77V83.9L63.1 84.6C63.3 84.9 63.3 85.3 63.4 85.4H6.1ZM70.6 69.6L71.3 69.1C72.8 68.1 74.3 67.6 75.9 67.1L76.7 66.9L77.4 63.3H80.2L80.9 66.9L81.7 67.1C83.3 67.4 84.8 68.1 86.3 68.9L87 69.4L90 67.3L92 69.3L90 72.3L90.5 73C91.5 74.3 92.1 76 92.5 77.4L92.7 78.2L96.3 78.9V81.7L92.7 82.4L92.4 83.4C92.1 85 91.4 86.5 90.6 88L90.1 88.7L92.2 91.7L90.2 93.7L87.2 91.6L86.5 92.1C85.2 92.9 83.5 93.6 81.9 94.1L81.1 94.3L80.4 97.9H77.6L76.9 94.3L76 93.8C74.4 93.5 72.9 92.8 71.4 92L70.7 91.5L67.7 93.6L65.7 91.6L67.8 88.6L67.4 88C66.6 86.7 65.9 85 65.4 83.4L65.2 82.6L61.6 81.9V79.1L65.2 78.4L65.4 77.6C65.7 76 66.4 74.5 67.2 73L67.7 72.3L65.6 69.3L67.6 67.3L70.6 69.6Z" fill="#016065"/>
<path d="M97.2002 6.6001H94.7002V9.0001H97.2002V6.6001Z" fill="#016065"/>
<path d="M85.7002 6.6001H83.2002V9.0001H85.7002V6.6001Z" fill="#016065"/>
<path d="M91.4 6.6001H89V9.0001H91.4V6.6001Z" fill="#016065"/>
<path d="M22.1996 19.6001C18.3996 19.6001 15.0996 22.7001 15.0996 26.7001C15.0996 30.6001 18.1996 33.8001 22.1996 33.8001C26.1996 33.8001 29.2996 30.7001 29.2996 26.7001C29.2996 22.7001 25.9996 19.6001 22.1996 19.6001ZM22.1996 31.3001C19.6996 31.3001 17.5996 29.2001 17.5996 26.7001C17.3996 24.1001 19.5996 22.1001 22.1996 22.1001C24.7996 22.1001 26.7996 24.2001 26.7996 26.7001C26.7996 29.3001 24.6996 31.3001 22.1996 31.3001Z" fill="#016065"/>
<path d="M26.7998 33.7002L22.3998 42.1002H21.3998L16.9998 33.7002L11.6998 35.7002C10.1998 36.2002 9.0998 37.2002 8.1998 38.5002C7.4998 39.7002 6.9998 41.0002 6.9998 42.1002C6.9998 42.6002 6.4998 45.9002 6.2998 50.0002V51.3002H37.1998V50.0002C36.9998 45.9002 36.4998 42.6002 36.4998 42.1002C36.4998 40.9002 36.1998 39.6002 35.2998 38.5002C34.5998 37.2002 33.2998 36.2002 31.7998 35.7002L26.7998 33.7002ZM20.0998 44.4002H23.8998L27.9998 36.7002L31.2998 37.9002C32.2998 38.2002 32.8998 38.9002 33.3998 39.7002C33.6998 40.4002 34.1998 41.2002 34.1998 42.2002V42.4002C34.1998 42.4002 34.4998 45.2002 34.8998 49.0002H32.0998L31.7998 45.5002L29.2998 45.7002L29.5998 49.0002H14.2998L14.5998 45.7002L12.0998 45.5002L11.7998 49.0002H8.9998C9.1998 45.4002 9.6998 42.6002 9.6998 42.4002V42.2002C9.6998 41.2002 10.1998 40.2002 10.4998 39.7002C10.9998 38.9002 11.6998 38.2002 12.5998 37.9002L15.8998 36.7002L20.0998 44.4002Z" fill="#016065"/>
<path d="M98.3996 23.2002H42.5996V42.0002H98.3996V23.2002ZM45.0996 39.5002V25.7002H95.8996V39.5002H45.0996Z" fill="#016065"/>
<path d="M88.2996 46.5H42.5996V49H88.2996V46.5Z" fill="#016065"/>
<path d="M73.3996 52.5H42.5996V54.9H73.3996V52.5Z" fill="#016065"/>
<path d="M28.5 61.7002H6.5V78.3002H28.5V61.7002ZM8.9 75.8002V64.1002H26V75.8002H8.9Z" fill="#016065"/>
<path d="M54.5996 61.7002H32.5996V78.3002H54.5996V61.7002ZM34.9996 75.8002V64.1002H52.0996V75.8002H34.9996Z" fill="#016065"/>
</g>
<defs>
<clipPath id="clip0_5_1912">
<rect width="111.8" height="100" fill="white"/>
</clipPath>
</defs>
</svg>
