<svg width="173" height="133" viewBox="0 0 173 133" fill="none" xmlns="http://www.w3.org/2000/svg">
<g clip-path="url(#clip0_5_10127)">
<path d="M155.3 87.8C153.7 85.1 150.5 83.4 146.9 83.9C143.3 84.5 140.5 87.5 140.1 91C139.7 95 142.1 98.5 145.6 99.7C149.9 96.8 153.2 92.6 155.3 87.8Z" stroke="#94CCC1" stroke-width="3" stroke-miterlimit="10"/>
<path d="M119.4 97.2C136 88.9 147.4 71.8 147.4 52C147.4 24.1 124.8 1.5 96.8999 1.5C68.9999 1.5 46.3999 24.1 46.3999 52C46.3999 71.8 57.7999 88.9 74.3999 97.2" stroke="#94CCC1" stroke-width="3" stroke-miterlimit="10"/>
<path d="M119.4 97.2V122.2C119.4 127 115.5 131 110.6 131H83.0998C78.1998 131 74.2998 127.1 74.2998 122.2V97.2C81.0998 100.6 88.6998 102.5 96.8998 102.5C105 102.5 112.7 100.6 119.4 97.2Z" stroke="#94CCC1" stroke-width="3" stroke-miterlimit="10"/>
<path d="M119.4 97.2C136 88.9 147.4 71.8 147.4 52C147.4 24.1 124.8 1.5 96.8999 1.5C68.9999 1.5 46.3999 24.1 46.3999 52C46.3999 71.8 57.7999 88.9 74.3999 97.2" stroke="#94CCC1" stroke-width="3" stroke-miterlimit="10"/>
<path d="M119.4 110.9C127.7 107.7 135.3 102.8 141.5 96.7" stroke="#94CCC1" stroke-width="3" stroke-miterlimit="10"/>
<path d="M112.9 99.9V121.2C112.9 123 111.4 124.5 109.6 124.5H84.0998C82.2998 124.5 80.7998 123 80.7998 121.2V99.9" stroke="#94CCC1" stroke-width="3" stroke-miterlimit="10"/>
<path d="M84.3 10.2C72.4 13.8 62.6 22.3 57.5 33.5" stroke="#94CCC1" stroke-width="3" stroke-miterlimit="10"/>
<path d="M16.7998 51.8H96.8998V83.9" stroke="#231F20" stroke-width="2" stroke-miterlimit="10"/>
<path d="M80.4001 51.8L42.1001 90.1V103.8" stroke="#231F20" stroke-width="2" stroke-miterlimit="10"/>
<path d="M96.8999 51.8H126.3L158 20.1" stroke="#231F20" stroke-width="2" stroke-miterlimit="10"/>
<path d="M96.9001 61.6C102.312 61.6 106.7 57.2124 106.7 51.8C106.7 46.3876 102.312 42 96.9001 42C91.4877 42 87.1001 46.3876 87.1001 51.8C87.1001 57.2124 91.4877 61.6 96.9001 61.6Z" fill="white" stroke="#F88600" stroke-width="4" stroke-miterlimit="10"/>
<path d="M9.4 59.2C13.4869 59.2 16.8 55.8869 16.8 51.8C16.8 47.7131 13.4869 44.4 9.4 44.4C5.31309 44.4 2 47.7131 2 51.8C2 55.8869 5.31309 59.2 9.4 59.2Z" fill="white" stroke="#F88600" stroke-width="4" stroke-miterlimit="10"/>
<path d="M42.1002 117.3C46.1871 117.3 49.5002 113.987 49.5002 109.9C49.5002 105.813 46.1871 102.5 42.1002 102.5C38.0133 102.5 34.7002 105.813 34.7002 109.9C34.7002 113.987 38.0133 117.3 42.1002 117.3Z" fill="white" stroke="#F88600" stroke-width="4" stroke-miterlimit="10"/>
<path d="M96.9 93.7C100.987 93.7 104.3 90.3869 104.3 86.3C104.3 82.2131 100.987 78.9 96.9 78.9C92.8131 78.9 89.5 82.2131 89.5 86.3C89.5 90.3869 92.8131 93.7 96.9 93.7Z" fill="white" stroke="#F88600" stroke-width="4" stroke-miterlimit="10"/>
<path d="M162.7 23C166.787 23 170.1 19.6869 170.1 15.6C170.1 11.5131 166.787 8.20001 162.7 8.20001C158.613 8.20001 155.3 11.5131 155.3 15.6C155.3 19.6869 158.613 23 162.7 23Z" fill="white" stroke="#F88600" stroke-width="4" stroke-miterlimit="10"/>
<path d="M126.3 51.8H154" stroke="#231F20" stroke-width="2" stroke-miterlimit="10"/>
<path d="M162.7 59.2C166.787 59.2 170.1 55.8869 170.1 51.8C170.1 47.7131 166.787 44.4 162.7 44.4C158.613 44.4 155.3 47.7131 155.3 51.8C155.3 55.8869 158.613 59.2 162.7 59.2Z" fill="white" stroke="#F88600" stroke-width="4" stroke-miterlimit="10"/>
<path d="M41.2999 51.8L15.8999 26.4" stroke="#231F20" stroke-width="2" stroke-miterlimit="10"/>
<path d="M9.4 29.2C13.4869 29.2 16.8 25.8869 16.8 21.8C16.8 17.7131 13.4869 14.4 9.4 14.4C5.31309 14.4 2 17.7131 2 21.8C2 25.8869 5.31309 29.2 9.4 29.2Z" fill="white" stroke="#F88600" stroke-width="4" stroke-miterlimit="10"/>
</g>
<defs>
<clipPath id="clip0_5_10127">
<rect width="172.1" height="132.5" fill="white"/>
</clipPath>
</defs>
</svg>
