<svg width="96" height="96" viewBox="0 0 96 96" fill="none" xmlns="http://www.w3.org/2000/svg">
<circle cx="48" cy="48" r="48" fill="#D8E7E4"/>
<path d="M92.4916 19.6089C93.5978 19.6089 94.5028 18.7039 94.5028 17.5978C94.5028 16.4916 93.5978 15.5866 92.4916 15.5866V11.5642C93.5978 11.5642 94.5028 10.6592 94.5028 9.55307C94.5028 8.44693 93.5978 7.5419 92.4916 7.5419H91.2849C91.0838 3.31844 87.6648 0 83.4413 0C79.2179 0 75.7989 3.31844 75.5978 7.5419H74.3911C73.2849 7.5419 72.3799 8.44693 72.3799 9.55307C72.3799 10.6592 73.2849 11.5642 74.3911 11.5642V15.5866C73.2849 15.5866 72.3799 16.4916 72.3799 17.5978C72.3799 18.7039 73.2849 19.6089 74.3911 19.6089H77.4078V31.676H74.6927C73.5866 19.2067 63.6313 9.35196 51.2626 8.34637V3.01676C51.2626 1.91061 50.3575 1.00559 49.2514 1.00559C48.1453 1.00559 47.2402 1.91061 47.2402 3.01676V8.34637C34.771 9.35196 24.8156 19.2067 23.8101 31.676H21.095V19.6089H24.1117C25.2179 19.6089 26.1229 18.7039 26.1229 17.5978C26.1229 16.4916 25.2179 15.5866 24.1117 15.5866V11.5642C25.2179 11.5642 26.1229 10.6592 26.1229 9.55307C26.1229 8.44693 25.2179 7.5419 24.1117 7.5419H22.905C22.7039 3.31844 19.2849 0 15.0615 0C10.838 0 7.41899 3.31844 7.21788 7.5419H6.01117C4.90503 7.5419 4 8.44693 4 9.55307C4 10.6592 4.90503 11.5642 6.01117 11.5642V15.5866C4.90503 15.5866 4 16.4916 4 17.5978C4 18.7039 4.90503 19.6089 6.01117 19.6089H9.02793V55.8101H6.01117C4.90503 55.8101 4 56.7151 4 57.8212C4 58.9274 4.90503 59.8324 6.01117 59.8324H7.01676V85.9777C5.91061 85.9777 5.00559 86.8827 5.00559 87.9888C5.00559 89.095 5.91061 90 7.01676 90H91.486C92.5922 90 93.4972 89.095 93.4972 87.9888C93.4972 86.8827 92.5922 85.9777 91.486 85.9777V59.8324H92.4916C93.5978 59.8324 94.5028 58.9274 94.5028 57.8212C94.5028 56.7151 93.5978 55.8101 92.4916 55.8101H89.4749V19.6089H92.4916ZM15.0615 4.02235C17.0726 4.02235 18.6816 5.53073 18.8827 7.5419H11.2402C11.4413 5.63129 13.0503 4.02235 15.0615 4.02235ZM10.0335 11.5642H13.0503V15.5866H10.0335V11.5642ZM17.0726 19.6089V55.8101H13.0503V19.6089H17.0726ZM19.0838 85.9777H11.0391V59.8324H19.0838V85.9777ZM20.0894 15.5866H17.0726V11.5642H20.0894V15.5866ZM49.2514 12.2682C60.4134 12.2682 69.5642 20.8156 70.6704 31.676H27.8324C28.9385 20.8156 38.0894 12.2682 49.2514 12.2682ZM65.3408 35.6983V39.7207H57.2961V35.6983H65.3408ZM53.2737 35.6983V39.7207H45.229V35.6983H53.2737ZM41.2067 35.6983V39.7207H33.162V35.6983H41.2067ZM21.095 35.6983H29.1397V39.7207H21.095V35.6983ZM60.3129 85.9777H38.1899V68.3799C38.1899 62.2458 43.1173 57.3184 49.2514 57.3184C55.3855 57.3184 60.3129 62.2458 60.3129 68.3799V85.9777ZM77.4078 55.8101H74.3911C73.2849 55.8101 72.3799 56.7151 72.3799 57.8212C72.3799 58.9274 73.2849 59.8324 74.3911 59.8324H75.3967V85.9777H64.3352V68.3799C64.3352 60.0335 57.5978 53.2961 49.2514 53.2961C40.905 53.2961 34.1676 60.0335 34.1676 68.3799V85.9777H23.1061V59.8324H24.1117C25.2179 59.8324 26.1229 58.9274 26.1229 57.8212C26.1229 56.7151 25.2179 55.8101 24.1117 55.8101H21.095V43.743H77.4078V55.8101ZM77.4078 39.7207H69.3631V35.6983H77.4078V39.7207ZM83.4413 4.02235C85.4525 4.02235 87.0615 5.53073 87.2626 7.5419H79.6201C79.8212 5.63129 81.4302 4.02235 83.4413 4.02235ZM78.4134 11.5642H81.4302V15.5866H78.4134V11.5642ZM85.4525 19.6089V55.8101H81.4302V19.6089H85.4525ZM87.4637 85.9777H79.419V59.8324H87.4637V85.9777ZM88.4693 15.5866H85.4525V11.5642H88.4693V15.5866Z" fill="#005E64"/>
</svg>
