<svg width="96" height="96" viewBox="0 0 96 96" fill="none" xmlns="http://www.w3.org/2000/svg">
<circle cx="48" cy="48" r="48" fill="#D8E7E4"/>
<path d="M25 36H19C17.3 36 16 37.3 16 39V45C16 46.6 17.3 48 19 48H25C26.7 48 28 46.6 28 45V39C28 37.3 26.7 36 25 36ZM24 44H20V40H24V44ZM25 51H19C17.3 51 16 52.3 16 54V60C16 61.6 17.3 63 19 63H25C26.7 63 28 61.6 28 60V54C28 52.3 26.7 51 25 51ZM24 59H20V55H24V59ZM92 86V31C92 29.3 90.7 28 89 28H88.9L88 12H91C92.1 12 93 11.1 93 10C93 8.9 92.1 8 91 8H88V4C88 2.3 86.7 1 85 1H75.1C73.4 1 72.1 2.3 72.1 4V8H69.1C68 8 67.1 8.9 67.1 10C67.1 11.1 68 12 69.1 12H72.1L71.2 28H65C63.3 28 62 29.3 62 31V52H57V22C57 21.9 57 21.9 57 21.8C57 21.8 57 21.7 57 21.6C57 21.5 57 21.5 56.9 21.4C56.9 21.4 56.9 21.3 56.8 21.2C56.8 21.1 56.7 21.1 56.7 21C56.7 20.9 56.6 20.9 56.6 20.8C56.6 20.7 56.5 20.7 56.5 20.6C56.4 20.6 56.4 20.5 56.4 20.5L34.4 0.5C34.4 0.5 34.3 0.5 34.3 0.4C34.2 0.4 34.2 0.3 34.1 0.3C34 0.3 34 0.2 33.9 0.2C33.8 0.2 33.8 0.1 33.7 0.1C33.6 0.1 33.6 0.1 33.5 0C33.4 0 33.4 0 33.3 0C33.2 0 33.2 0 33.1 0H33C32.9 0 32.9 0 32.8 0C32.7 0 32.7 0 32.6 0C32.5 0 32.5 0 32.4 0.1C32.3 0.1 32.3 0.1 32.2 0.2C32.1 0.2 32.1 0.3 32 0.3C31.9 0.3 31.9 0.4 31.8 0.4L31.7 0.5C31.6 0.5 31.6 0.6 31.5 0.6L31.4 0.7C31.4 0.8 31.3 0.8 31.3 0.9C31.3 1 31.2 1 31.2 1.1C31.2 1.2 31.1 1.2 31.1 1.3C31.1 1.4 31.1 1.4 31 1.5C31 1.6 31 1.6 31 1.7C31 1.8 31 1.9 31 1.9V2V29.5L23 22.2V11C23 9.9 22.1 9 21 9C19.9 9 19 9.9 19 11V18.6L12.3 12.5C12.3 12.5 12.2 12.5 12.2 12.4C12.1 12.4 12.1 12.3 12 12.3C11.9 12.3 11.9 12.2 11.8 12.2C11.7 12.2 11.7 12.1 11.6 12.1C11.5 12.1 11.5 12.1 11.4 12C11.3 12 11.3 12 11.2 12C11.1 12 11.1 12 11 12H10.9C10.8 12 10.8 12 10.7 12C10.6 12 10.6 12 10.5 12C10.4 12 10.4 12 10.3 12.1C10.2 12.2 10.2 12.1 10.1 12.2C10 12.2 10 12.3 9.9 12.3C9.8 12.3 9.8 12.4 9.7 12.4L9.6 12.5C9.5 12.5 9.5 12.6 9.4 12.6L9.3 12.7C9.3 12.8 9.2 12.8 9.2 12.9C9.2 13 9.1 13 9.1 13.1C9.1 13.2 9 13.2 9 13.3C9 13.4 9 13.4 8.9 13.5C8.9 13.6 8.9 13.6 8.9 13.7C8.9 13.8 8.9 13.9 8.9 13.9V14V86H6C4.9 86 4 86.9 4 88C4 89.1 4.9 90 6 90H92C93.1 90 94 89.1 94 88C94 86.9 93.1 86 92 86ZM62 86H13V18.5L31 34.9V71C31 72.1 31.9 73 33 73H62V86ZM62 69H35V6.5L53 22.9V54C53 55.1 53.9 56 55 56H62V69ZM76.1 5H84V8H76.1V5ZM76.1 12H84L84.9 28H75.1L76.1 12ZM88 86H66V32H88V86ZM47 24H41C39.3 24 38 25.3 38 27V33C38 34.6 39.3 36 41 36H47C48.7 36 50 34.6 50 33V27C50 25.3 48.7 24 47 24ZM46 32H42V28H46V32ZM47 39H41C39.3 39 38 40.3 38 42V48C38 49.6 39.3 51 41 51H47C48.7 51 50 49.6 50 48V42C50 40.3 48.7 39 47 39ZM46 47H42V43H46V47ZM68 42C68 40.9 68.9 40 70 40H84C85.1 40 86 40.9 86 42C86 43.1 85.1 44 84 44H70C68.9 44 68 43.1 68 42ZM68 50C68 48.9 68.9 48 70 48H84C85.1 48 86 48.9 86 50C86 51.1 85.1 52 84 52H70C68.9 52 68 51.1 68 50ZM68 58C68 56.9 68.9 56 70 56H84C85.1 56 86 56.9 86 58C86 59.1 85.1 60 84 60H70C68.9 60 68 59.1 68 58ZM38 81V78C38 76.9 38.9 76 40 76C41.1 76 42 76.9 42 78V81C42 82.1 41.1 83 40 83C38.9 83 38 82.1 38 81ZM45 81V78C45 76.9 45.9 76 47 76C48.1 76 49 76.9 49 78V81C49 82.1 48.1 83 47 83C45.9 83 45 82.1 45 81ZM52 81V78C52 76.9 52.9 76 54 76C55.1 76 56 76.9 56 78V81C56 82.1 55.1 83 54 83C52.9 83 52 82.1 52 81Z" fill="#005E64"/>
</svg>
