<svg width="117" height="90" viewBox="0 0 117 90" fill="none" xmlns="http://www.w3.org/2000/svg">
<g clip-path="url(#clip0_5_2535)">
<path d="M115.014 27.7081C113.859 25.6966 111.976 24.3485 109.889 23.7922C108.541 23.4284 107.118 23.4392 105.738 23.7495L100.292 14.3236C102.796 11.6809 103.417 7.61534 101.512 4.30934C100.357 2.30863 98.4737 0.960521 96.3874 0.393474C94.301 -0.162875 91.9901 0.0618358 89.9893 1.22803C88.2989 2.19094 87.1113 3.6888 86.4373 5.37924H73.7376C73.5878 4.98338 73.438 4.58754 73.2133 4.20238C72.0578 2.20167 70.1748 0.842847 68.0885 0.2758C67.5642 0.136713 67.0293 0.0511212 66.4944 0.00832517V0.0190346C64.8681 -0.0986544 63.1884 0.254389 61.6905 1.13171C57.6677 3.45339 56.2875 8.64236 58.5985 12.6545C58.8125 13.0183 59.0692 13.3286 59.3153 13.6388L52.468 25.4933C50.4779 25.0546 48.3274 25.3008 46.4337 26.3921C44.7861 27.3443 43.5985 28.7887 42.9138 30.4256H30.2996C30.1498 30.0405 30.0001 29.6552 29.7861 29.2808C28.6306 27.2694 26.7476 25.9214 24.6613 25.3543C22.575 24.798 20.2747 25.0333 18.274 26.1887C14.2511 28.5104 12.8603 33.6995 15.1819 37.7223C15.3959 38.0861 15.6527 38.4177 15.9095 38.7387L9.56497 49.7587C7.76754 49.5233 5.89521 49.8014 4.21547 50.775C0.192646 53.086 -1.19822 58.2751 1.12346 62.2979C3.01718 65.5718 6.81533 67.059 10.3353 66.2459L15.8025 75.7145C13.3417 78.3571 12.7319 82.4013 14.6256 85.6752C16.9366 89.698 22.1363 91.0782 26.1484 88.7672C27.9566 87.7187 29.1976 86.0818 29.8396 84.2523H42.2397C42.4109 84.7765 42.6463 85.2901 42.9245 85.7823C45.2461 89.7944 50.4459 91.196 54.458 88.8743C58.4701 86.5526 59.861 81.3636 57.5393 77.3407C57.2611 76.8486 56.9294 76.4099 56.5657 75.9927L62.7069 65.3365C64.6006 65.6682 66.5906 65.4114 68.3667 64.3843C70.3888 63.2181 71.7369 61.3243 72.2932 59.2273H85.6883C85.8595 59.7301 86.0735 60.233 86.3517 60.7145C88.6734 64.7373 93.8624 66.1282 97.8745 63.8065C101.887 61.4955 103.288 56.2958 100.967 52.2836C100.678 51.7701 100.335 51.3101 99.9501 50.8928L106.134 40.1724C108.06 40.5469 110.103 40.2901 111.922 39.2416C115.934 36.9199 117.336 31.7202 115.014 27.7081ZM91.8617 4.49127C92.4287 4.15961 93.0279 3.96696 93.6377 3.89207C94.2369 3.80648 94.8467 3.84926 95.4244 4.00974C96.5799 4.32001 97.6177 5.06899 98.2704 6.20309C99.5757 8.46058 98.8053 11.2958 96.5478 12.6011C94.2904 13.9063 91.4551 13.1467 90.1498 10.8893C88.8446 8.63177 89.6042 5.79655 91.8617 4.49127ZM63.5628 4.36276C64.1299 4.04179 64.729 3.84929 65.3389 3.77439C65.938 3.6995 66.5479 3.73158 67.1256 3.89207C68.2811 4.19164 69.3189 4.95132 69.9715 6.08542C71.2768 8.34291 70.5065 11.1781 68.249 12.4834C65.9915 13.7887 63.1563 13.0398 61.851 10.7716C60.5457 8.51409 61.3053 5.66804 63.5628 4.36276ZM48.3061 29.6445C48.8731 29.3128 49.4722 29.1203 50.0821 29.0347V29.0454C50.6812 28.9705 51.2911 29.0026 51.8688 29.1631C53.0243 29.4734 54.0621 30.2224 54.7148 31.3565C56.02 33.6139 55.2497 36.4599 52.9922 37.7651C50.7347 39.0704 47.8995 38.3001 46.5942 36.0426C45.2889 33.7851 46.0486 30.9498 48.3061 29.6445ZM20.1463 29.4413C20.7133 29.1203 21.3125 28.917 21.9116 28.8421C22.5215 28.7672 23.1313 28.7994 23.6983 28.9599C24.8538 29.2702 25.8916 30.0297 26.5443 31.1638C27.8496 33.4213 27.0899 36.2565 24.8324 37.5618C22.575 38.8671 19.729 38.1075 18.4237 35.85C17.1185 33.5925 17.8781 30.7466 20.1463 29.4413ZM10.774 62.1374C8.51647 63.4426 5.68123 62.6723 4.37596 60.4148C3.07068 58.1574 3.83031 55.3221 6.08779 54.0169C6.65484 53.6852 7.25399 53.4927 7.86383 53.4178C8.46297 53.3429 9.07282 53.375 9.65056 53.5355C10.8061 53.8457 11.8332 54.5946 12.4858 55.7287C13.7911 57.9862 13.0421 60.8321 10.774 62.1374ZM24.2761 85.5041C22.0186 86.8094 19.1834 86.0498 17.8781 83.7923C16.5728 81.5241 17.3217 78.6887 19.5899 77.3834C20.157 77.0625 20.7561 76.87 21.3553 76.7951C21.9651 76.7202 22.5643 76.7523 23.142 76.9128C24.2975 77.223 25.3353 77.972 25.9879 79.0954C27.2932 81.3636 26.5336 84.1988 24.2761 85.5041ZM52.5857 85.6218C50.3175 86.927 47.4822 86.1674 46.1769 83.8992C44.8717 81.6417 45.6313 78.8065 47.8995 77.5013C48.4558 77.1803 49.0657 76.9876 49.6648 76.9128C50.2747 76.8379 50.8738 76.8699 51.4516 77.0304C52.607 77.33 53.6449 78.0897 54.2975 79.2131C55.6028 81.4813 54.8431 84.3165 52.5857 85.6218ZM53.4844 73.8314C53.1313 73.6816 52.7782 73.5212 52.4145 73.4249C50.3282 72.8685 48.0279 73.1039 46.0165 74.2594C43.6627 75.6182 42.2397 77.9826 41.908 80.4969H30.2996C30.1819 79.3842 29.8396 78.2716 29.2404 77.2445C28.0849 75.2331 26.2019 73.8743 24.1156 73.3179C22.4252 72.8685 20.6063 72.9542 18.9159 73.6068L13.7162 64.6196C16.8831 62.0519 17.8353 57.4833 15.7383 53.8564C15.075 52.7009 14.1655 51.7915 13.117 51.0961L18.8838 41.1139C21.3125 42.248 24.2333 42.2373 26.7048 40.8036C29.1869 39.37 30.6527 36.8451 30.8774 34.181V34.1703H42.2718C42.336 35.4542 42.6677 36.7381 43.3417 37.9149C45.4708 41.5954 49.9965 43.0397 53.8374 41.467L59.0051 50.4327C55.7312 52.9684 54.7148 57.6225 56.8439 61.3029C57.4537 62.3621 58.2775 63.218 59.2083 63.892L53.4844 73.8314ZM66.4944 61.1424C64.2262 62.4477 61.3909 61.6774 60.0857 59.4199C58.7804 57.1624 59.54 54.3272 61.8082 53.0219C62.3645 52.6903 62.9744 52.4976 63.5735 52.4227C64.1834 52.3478 64.7825 52.3799 65.3603 52.5404C66.5157 52.8507 67.5642 53.5997 68.2169 54.7337C69.5222 56.9912 68.7518 59.8372 66.4944 61.1424ZM96.0022 60.5646C93.734 61.8699 90.8988 61.0996 89.5935 58.8421C88.2882 56.5846 89.0478 53.7494 91.316 52.4441C91.8724 52.1125 92.4822 51.9198 93.0814 51.8449C93.6912 51.77 94.301 51.8023 94.8788 51.9627C96.0343 52.273 97.0721 53.0219 97.7247 54.156C99.03 56.4134 98.2597 59.2594 96.0022 60.5646ZM96.8688 48.7423C96.5264 48.6032 96.1948 48.4535 95.8417 48.3572C93.7447 47.8008 91.4444 48.0361 89.433 49.1916C87.0685 50.5611 85.6349 52.9363 85.3246 55.4719H72.3895C72.2183 54.5732 71.9401 53.6959 71.4587 52.8614C70.2925 50.8607 68.4202 49.5019 66.3339 48.9348C65.0714 48.6032 63.734 48.5925 62.4287 48.86L56.908 39.295C59.2618 36.6417 59.8182 32.7045 57.9565 29.4734C57.4109 28.5212 56.6941 27.7295 55.8702 27.0876L62.2575 16.0247C64.6862 17.1802 67.6284 17.1802 70.1213 15.7358C72.5928 14.3128 74.0585 11.8094 74.2939 9.14532H85.8381C85.913 10.3864 86.2447 11.6168 86.908 12.7616C88.9837 16.3778 93.3809 17.8435 97.1684 16.4206L102.368 25.4185C99.244 27.9969 98.3132 32.5333 100.399 36.1389C100.988 37.166 101.769 38.0112 102.668 38.6745L96.8688 48.7423ZM110.05 35.9891C107.782 37.2944 104.947 36.5347 103.641 34.2773C102.336 32.0091 103.096 29.1738 105.364 27.8686C105.92 27.5369 106.53 27.3443 107.129 27.2694C107.739 27.1838 108.338 27.2265 108.916 27.387C110.071 27.6866 111.12 28.457 111.773 29.5911C113.078 31.8486 112.307 34.6838 110.05 35.9891Z" fill="#005E64"/>
<path d="M52.5854 85.6215C50.3172 86.9268 47.482 86.1671 46.1767 83.899C44.8714 81.6415 45.631 78.8063 47.8992 77.501C48.4556 77.18 49.0654 76.9874 49.6646 76.9125C50.2744 76.8376 50.8735 76.8697 51.4513 77.0301C52.6068 77.3297 53.6446 78.0894 54.2972 79.2128C55.6025 81.481 54.8429 84.3162 52.5854 85.6215Z" fill="#D5F1EA"/>
<path d="M24.2762 85.5038C22.0187 86.8091 19.1834 86.0495 17.8782 83.792C16.5729 81.5238 17.3218 78.6884 19.59 77.3832C20.157 77.0622 20.7562 76.8697 21.3553 76.7948C21.9652 76.7199 22.5643 76.752 23.1421 76.9125C24.2976 77.2227 25.3354 77.9717 25.988 79.0951C27.2933 81.3633 26.5336 84.1985 24.2762 85.5038Z" fill="#D5F1EA"/>
<path d="M66.4941 61.1424C64.2259 62.4477 61.3906 61.6774 60.0854 59.4199C58.7801 57.1624 59.5397 54.3272 61.8079 53.0219C62.3643 52.6903 62.9741 52.4976 63.5732 52.4227C64.1831 52.3478 64.7822 52.3799 65.36 52.5404C66.5155 52.8507 67.564 53.5997 68.2166 54.7337C69.5219 56.9912 68.7516 59.8372 66.4941 61.1424Z" fill="#D5F1EA"/>
<path d="M52.9921 37.765C50.7346 39.0703 47.8993 38.3 46.5941 36.0425C45.2888 33.785 46.0484 30.9496 48.3059 29.6444C48.873 29.3127 49.4721 29.1202 50.0819 29.0346V29.0453C50.6811 28.9704 51.2909 29.0025 51.8687 29.163C53.0242 29.4732 54.062 30.2222 54.7146 31.3563C56.0199 33.6138 55.2496 36.4597 52.9921 37.765Z" fill="#D5F1EA"/>
<path d="M24.8325 37.5618C22.575 38.8671 19.729 38.1075 18.4237 35.85C17.1185 33.5925 17.8781 30.7466 20.1463 29.4413C20.7133 29.1204 21.3125 28.917 21.9116 28.8421C22.5215 28.7672 23.1313 28.7994 23.6984 28.9599C24.8538 29.2702 25.8917 30.0298 26.5443 31.1639C27.8496 33.4213 27.0899 36.2566 24.8325 37.5618Z" fill="#D5F1EA"/>
<path d="M10.7738 62.1374C8.51631 63.4427 5.68108 62.6724 4.3758 60.4149C3.07052 58.1574 3.83015 55.3222 6.08764 54.0169C6.65469 53.6853 7.25383 53.4927 7.86367 53.4178C8.46282 53.343 9.07266 53.375 9.65041 53.5355C10.8059 53.8458 11.833 54.5946 12.4856 55.7287C13.7909 57.9862 13.042 60.8321 10.7738 62.1374Z" fill="#D5F1EA"/>
</g>
<defs>
<clipPath id="clip0_5_2535">
<rect width="116.138" height="90" fill="white"/>
</clipPath>
</defs>
</svg>
