<svg width="150" height="144" viewBox="0 0 150 144" fill="none" xmlns="http://www.w3.org/2000/svg">
<path d="M135.208 99.4235L127.202 94.3176C130.173 87.4 131.824 79.8235 131.824 71.8353C131.824 63.6824 130.091 55.9412 127.037 48.9412L134.712 43.8353C136.776 42.5176 137.353 39.7176 135.95 37.6588L130.338 29.1765C129.018 27.1176 126.212 26.5412 124.148 27.9412L116.555 32.9647C108.137 23.9059 96.9125 17.6471 84.2025 15.5059V6.44706C84.2025 3.97647 82.2217 2 79.7458 2H69.5943C67.1183 2 65.1375 3.97647 65.1375 6.44706V15.5059C52.0974 17.6471 40.5428 24.2353 32.1245 33.7059L24.3664 28.7647C22.3031 27.4471 19.5796 28.0235 18.259 30.0824L12.8119 38.6471C11.4914 40.7059 12.0691 43.4235 14.1324 44.7412L21.8905 49.6824C19.0844 56.4353 17.5162 63.8471 17.5162 71.6706C17.5162 79.9882 19.332 87.8941 22.5507 95.0588L14.6276 100.247C12.5643 101.565 11.9866 104.365 13.3896 106.424L19.0018 114.906C20.3223 116.965 23.1285 117.541 25.1918 116.141L33.1974 110.871C41.5332 119.682 52.6751 125.859 65.22 127.918V137.553C65.22 140.024 67.2008 142 69.6768 142H79.8283C82.3043 142 84.285 140.024 84.285 137.553V127.918C97.1601 125.776 108.55 119.353 116.968 110.129L125.056 115.318C127.119 116.635 129.843 116.059 131.164 114L136.611 105.435C137.849 103.541 137.271 100.741 135.208 99.4235Z" stroke="#94CCC1" stroke-width="3" stroke-miterlimit="10"/>
<path d="M17.8467 15.1765H40.1305L97.2429 72.1647H135.29" stroke="#231F20" stroke-width="2" stroke-miterlimit="10"/>
<path d="M108.632 83.5294L97.2427 72.1647" stroke="#231F20" stroke-width="2" stroke-miterlimit="10"/>
<path d="M14.71 81.6353H18.4239H71.8225L81.3962 91.1883L108.219 118.035L119.444 129.153H128.935" stroke="#231F20" stroke-width="2" stroke-miterlimit="10"/>
<path d="M95.9222 131.047L91.3004 126.435L81.3965 116.471V91.1882" stroke="#231F20" stroke-width="2" stroke-miterlimit="10"/>
<path d="M71.8224 81.6353L49.6211 59.4824H40.1299" stroke="#231F20" stroke-width="2" stroke-miterlimit="10"/>
<path d="M88.6592 38.2353L96.8299 46.4706V71.8353" stroke="#231F20" stroke-width="2" stroke-miterlimit="10"/>
<path d="M141.645 78.5059C145.155 78.5059 148 75.6669 148 72.1647C148 68.6626 145.155 65.8235 141.645 65.8235C138.135 65.8235 135.29 68.6626 135.29 72.1647C135.29 75.6669 138.135 78.5059 141.645 78.5059Z" stroke="#F88600" stroke-width="4" stroke-miterlimit="10"/>
<path d="M135.29 135.494C138.8 135.494 141.645 132.655 141.645 129.153C141.645 125.651 138.8 122.812 135.29 122.812C131.78 122.812 128.935 125.651 128.935 129.153C128.935 132.655 131.78 135.494 135.29 135.494Z" stroke="#F88600" stroke-width="4" stroke-miterlimit="10"/>
<path d="M100.379 141.835C103.889 141.835 106.734 138.996 106.734 135.494C106.734 131.992 103.889 129.153 100.379 129.153C96.8692 129.153 94.0239 131.992 94.0239 135.494C94.0239 138.996 96.8692 141.835 100.379 141.835Z" stroke="#F88600" stroke-width="4" stroke-miterlimit="10"/>
<path d="M8.355 87.9765C11.8648 87.9765 14.71 85.1374 14.71 81.6353C14.71 78.1332 11.8648 75.2941 8.355 75.2941C4.84523 75.2941 2 78.1332 2 81.6353C2 85.1374 4.84523 87.9765 8.355 87.9765Z" stroke="#F88600" stroke-width="4" stroke-miterlimit="10"/>
<path d="M33.7749 65.8236C37.2847 65.8236 40.1299 62.9845 40.1299 59.4824C40.1299 55.9803 37.2847 53.1412 33.7749 53.1412C30.2652 53.1412 27.4199 55.9803 27.4199 59.4824C27.4199 62.9845 30.2652 65.8236 33.7749 65.8236Z" stroke="#F88600" stroke-width="4" stroke-miterlimit="10"/>
<path d="M11.4907 21.5177C15.0005 21.5177 17.8457 18.6786 17.8457 15.1765C17.8457 11.6744 15.0005 8.83533 11.4907 8.83533C7.98097 8.83533 5.13574 11.6744 5.13574 15.1765C5.13574 18.6786 7.98097 21.5177 11.4907 21.5177Z" stroke="#F88600" stroke-width="4" stroke-miterlimit="10"/>
<path d="M84.2027 40.1294C87.7124 40.1294 90.5577 37.2904 90.5577 33.7883C90.5577 30.2861 87.7124 27.4471 84.2027 27.4471C80.6929 27.4471 77.8477 30.2861 77.8477 33.7883C77.8477 37.2904 80.6929 40.1294 84.2027 40.1294Z" stroke="#F88600" stroke-width="4" stroke-miterlimit="10"/>
<path d="M113.089 94.3177C116.599 94.3177 119.444 91.4786 119.444 87.9765C119.444 84.4744 116.599 81.6353 113.089 81.6353C109.579 81.6353 106.734 84.4744 106.734 87.9765C106.734 91.4786 109.579 94.3177 113.089 94.3177Z" stroke="#F88600" stroke-width="4" stroke-miterlimit="10"/>
</svg>
