<svg width="96" height="96" viewBox="0 0 96 96" fill="none" xmlns="http://www.w3.org/2000/svg">
<circle cx="48" cy="48" r="48" fill="#D8E7E4"/>
<path d="M90 50C91.1 50 92 49.1 92 48V40C92 38.9 91.1 38 90 38H76V34H79C80.1 34 81 33.1 81 32V24C81 22.9 80.1 22 79 22H60V2C60 0.9 59.1 0 58 0H36C34.9 0 34 0.9 34 2V22H15C13.9 22 13 22.9 13 24V32C13 33.1 13.9 34 15 34H18V38H4C2.9 38 2 38.9 2 40V48C2 49.1 2.9 50 4 50H5V86H4C2.9 86 2 86.9 2 88C2 89.1 2.9 90 4 90H90C91.1 90 92 89.1 92 88C92 86.9 91.1 86 90 86H89V50H90ZM18 57H15C13.9 57 13 57.9 13 59C13 60.1 13.9 61 15 61H18V66H15C13.9 66 13 66.9 13 68C13 69.1 13.9 70 15 70H18V75H15C13.9 75 13 75.9 13 77C13 78.1 13.9 79 15 79H18V86H9V50H18V57ZM18 46H6V42H18V46ZM38 4H56V22H38V4ZM17 30V26H77V30H17ZM45 86H37V62H45V86ZM57 86H49V62H57V86ZM72 86H61V60C61 58.9 60.1 58 59 58H35C33.9 58 33 58.9 33 60V86H22V34H72V86ZM85 86H76V79H79C80.1 79 81 78.1 81 77C81 75.9 80.1 75 79 75H76V70H79C80.1 70 81 69.1 81 68C81 66.9 80.1 66 79 66H76V61H79C80.1 61 81 60.1 81 59C81 57.9 80.1 57 79 57H76V50H85V86ZM88 46H76V42H88V46ZM28 54H40C41.1 54 42 53.1 42 52V40C42 38.9 41.1 38 40 38H28C26.9 38 26 38.9 26 40V52C26 53.1 26.9 54 28 54ZM30 42H38V50H30V42ZM54 54H66C67.1 54 68 53.1 68 52V40C68 38.9 67.1 38 66 38H54C52.9 38 52 38.9 52 40V52C52 53.1 52.9 54 54 54ZM56 42H64V50H56V42ZM50.2 74.8C50 74.5 50 74.3 50 74C50 73.5 50.2 73 50.6 72.6C51.1 72.1 51.7 71.9 52.4 72.1C52.5 72.1 52.6 72.2 52.8 72.2C52.9 72.3 53 72.3 53.1 72.4C53.2 72.5 53.3 72.6 53.4 72.6C53.8 73 54 73.5 54 74C54 74.3 54 74.5 53.8 74.8C53.7 75 53.6 75.3 53.4 75.4C53 75.8 52.5 76 52 76C51.7 76 51.5 76 51.2 75.8C51 75.7 50.7 75.6 50.6 75.4C50.4 75.2 50.2 75 50.2 74.8ZM40.2 74.8C40 74.5 40 74.3 40 74C40 73.5 40.2 73 40.6 72.6C40.7 72.5 40.8 72.4 40.9 72.4C41 72.4 41.1 72.3 41.2 72.2C41.3 72.2 41.4 72.1 41.6 72.1C41.9 72.1 42.1 72.1 42.4 72.1C42.5 72.1 42.6 72.2 42.8 72.2C42.9 72.3 43 72.3 43.1 72.4C43.2 72.5 43.3 72.6 43.4 72.6C43.8 73 44 73.5 44 74C44 74.3 44 74.5 43.8 74.8C43.7 75 43.6 75.3 43.4 75.4C43.3 75.5 43.2 75.6 43.1 75.6C43 75.7 42.9 75.7 42.8 75.8C42.7 75.9 42.6 75.9 42.4 75.9C42.3 75.9 42.1 75.9 42 75.9C41.7 75.9 41.5 75.9 41.2 75.7C41 75.6 40.7 75.5 40.6 75.3C40.4 75.2 40.2 75 40.2 74.8ZM53 13C53 14.1 52.1 15 51 15H49V17C49 18.1 48.1 19 47 19C45.9 19 45 18.1 45 17V15H43C41.9 15 41 14.1 41 13C41 11.9 41.9 11 43 11H45V9C45 7.9 45.9 7 47 7C48.1 7 49 7.9 49 9V11H51C52.1 11 53 11.9 53 13Z" fill="#005E64"/>
</svg>
