<svg width="100" height="100" viewBox="0 0 100 100" fill="none" xmlns="http://www.w3.org/2000/svg">
<path d="M94.3395 1.88672H5.91179C3.52186 1.88672 1.50928 3.77351 1.50928 6.28923V76.1006C1.50928 78.4905 3.52186 80.5031 5.91179 80.5031H17.3583C17.6099 79.6226 18.1131 78.7421 18.3646 78.1131C19.3709 78.3647 20.503 78.9936 21.2577 78.4905C21.8866 77.9874 22.5156 76.6037 23.0187 75.9748C23.1445 75.7232 23.3961 75.4716 23.3961 75.22C23.5219 74.4653 23.0187 73.7106 23.0187 72.9559C24.025 72.5785 25.1571 72.327 26.1634 71.9496C26.4149 72.7043 26.7923 73.3333 27.1697 73.9622C28.4275 73.0817 30.4401 74.2138 31.5722 73.2075C32.0753 72.8301 32.2011 72.0754 32.7042 71.698C33.5848 70.9433 34.8426 71.4465 35.8489 72.0754C36.2263 72.327 36.6036 72.5785 36.7294 72.9559C36.8552 73.3333 36.7294 73.8364 36.7294 74.2138C36.7294 74.8427 37.2325 75.4716 37.7357 75.9748C38.2388 76.4779 38.742 76.9811 39.2451 77.4842C39.3709 77.61 39.4967 77.7358 39.6225 77.7358C39.7483 77.7358 39.9998 77.7358 40.1256 77.7358C40.7546 77.61 41.5093 77.3584 42.1382 77.2326C42.3898 77.2326 42.6414 77.1068 42.7671 77.2326C42.8929 77.3584 42.8929 77.4842 43.0187 77.61C43.2703 78.2389 43.5219 78.9936 43.7734 79.6226C43.8992 79.8741 44.025 80.2515 43.8992 80.5031C43.8992 80.5031 43.8992 80.5031 43.8992 80.6289H49.1822C49.5596 79.9999 49.937 79.371 49.937 78.6163C49.937 77.7358 49.5596 76.7295 49.0564 75.9748C48.6791 75.2201 48.3017 74.4653 47.9244 73.7106C47.7986 73.5848 47.6728 73.3333 47.547 73.2075C47.4212 72.9559 47.0439 72.9559 46.9181 72.9559C45.9118 72.9559 44.9055 72.8301 44.025 72.4528C44.025 70.9433 44.1508 69.4339 44.1508 67.9245C45.1571 67.7987 46.0376 67.6729 47.0439 67.5471C47.2954 67.5471 47.547 67.4213 47.7986 67.2955C47.9244 67.1697 48.0502 66.9182 48.0502 66.6666C48.4275 65.6603 48.9307 64.7798 49.4338 63.8993C49.937 62.893 50.1885 61.8867 49.937 60.8804C49.6854 59.8741 48.6791 58.9936 47.6728 59.2452C48.6791 57.61 49.937 56.1006 51.4464 54.7169C53.9621 56.7295 57.9873 56.2263 59.8741 53.5848C60.2514 53.0817 60.503 52.5785 60.503 52.0754C60.503 51.698 60.503 51.3207 60.7546 51.0691C60.8803 50.9433 61.1319 50.8175 61.3835 50.8175C62.7671 50.566 64.025 50.4402 65.4087 50.566C65.5344 50.566 65.786 50.566 65.9118 50.6917C66.0376 50.8175 66.0376 51.0691 66.1634 51.1949C66.2892 52.327 66.4149 53.5848 66.2892 54.7169C68.5533 54.9685 70.8175 55.5974 72.9558 56.4779C73.9621 55.7232 74.9684 54.9685 76.2263 54.4653C76.8552 55.4716 77.6099 56.4779 78.2388 57.4842C78.4904 57.8616 78.742 58.3647 78.6162 58.7421C78.4904 59.1194 78.1131 59.371 77.8615 59.7484C77.1068 60.7546 77.3583 62.1383 77.7357 63.2704C77.9873 64.0251 78.2388 64.9056 78.4904 65.6603C78.6162 65.9119 78.6162 66.1634 78.742 66.2892C78.8678 66.5408 79.2451 66.5408 79.4967 66.6666C80.6288 67.044 81.7609 67.4213 82.8929 67.7987C82.8929 69.4339 82.8929 71.0691 82.8929 72.7043C82.0124 72.8301 81.1319 72.8301 80.3772 72.9559C80.1256 72.9559 79.9998 72.9559 79.7483 73.0817C79.6225 73.2075 79.4967 73.459 79.3709 73.5848C78.4904 75.5974 77.6099 77.61 76.8552 79.4968C77.1068 79.6226 77.2326 79.8741 77.4841 79.9999H94.3395C96.7294 79.9999 98.742 77.9873 98.742 75.5974V6.28923C98.742 3.77351 96.7294 1.88672 94.3395 1.88672ZM57.3583 37.61C47.0439 37.7358 36.6036 36.3521 26.4149 37.61C24.7797 37.8616 23.1445 38.1131 21.6351 38.1131C16.6036 38.2389 11.5722 36.4779 6.54072 37.1068C6.7923 37.1068 6.7923 30.1886 6.91808 29.5597C6.91808 27.2955 6.91808 24.9056 6.91808 22.6414C6.91808 20.5031 7.04387 19.7484 9.30802 19.9999C13.8363 20.2515 18.4904 20.6289 23.0187 20.6289C25.1571 20.6289 27.2954 20.5031 29.4338 20.3773C38.742 19.9999 48.1759 20.1257 57.4841 20.8804C57.8615 26.2892 57.9873 31.9496 57.3583 37.61ZM93.2074 37.2326H62.7671V20.5031H93.2074V37.2326Z" fill="#D5F1EA"/>
<path d="M79.8741 74.4652L84.1508 73.7105V66.6665L79.8741 65.9118C79.371 64.4023 78.742 63.0187 77.9873 61.635L80.503 58.113L75.4716 53.0816L71.9496 55.5973C70.5659 54.8426 69.1823 54.2137 67.6729 53.9621L66.9181 49.5596H59.8741L59.1194 53.8363C57.61 54.3394 56.2263 54.9684 54.8427 55.7231L51.3207 53.2074L46.2892 58.2388L48.8049 61.7608C48.0502 63.1445 47.4213 64.5281 47.1697 66.0376L42.5156 66.6665V73.7105L46.7924 74.4652C47.2955 75.9747 47.9244 77.3583 48.6791 78.742L46.1634 82.264L51.1949 87.2954L54.7169 84.7797C56.1005 85.5344 57.4842 86.1633 58.9936 86.6665L59.7483 90.9432H66.7924L67.5471 86.6665C69.0565 86.1633 70.4402 85.5344 71.8238 84.7797L75.3458 87.2954L80.3773 82.264L77.8615 78.742C78.8678 77.4841 79.4968 75.9747 79.8741 74.4652ZM77.8615 73.2074C77.61 75.0942 76.7295 76.6036 75.849 78.113L75.3458 78.8677L77.61 82.1382L75.3458 84.4023L72.0754 82.1382L71.4464 82.6413C69.937 83.5218 68.4276 84.2766 66.5408 84.7797L65.7861 84.9055L65.0313 88.8048H61.6351L60.8804 84.9055L60.1257 84.7797C58.4905 84.5281 56.7295 83.6476 55.22 82.7671L54.5911 82.264L51.3207 84.5281L49.0565 82.264L51.1949 78.9935L50.6917 78.2388C49.8112 76.7294 49.0565 74.9684 48.6791 73.3332L48.5534 72.5784L44.5282 71.9495V68.5533L48.4276 67.7986L48.5534 67.0438C48.8049 65.4086 49.6854 63.6476 50.5659 62.1382L51.0691 61.5093L48.8049 58.2388L51.0691 55.9747L54.3395 58.2388L54.9685 57.7357C56.4779 56.8552 58.2389 56.1004 59.8741 55.7231L60.6288 55.5973L61.3835 51.6979H64.7798L65.5345 55.5973L66.2892 55.7231C68.176 55.9747 69.6854 56.8552 71.1949 57.7357L71.8238 58.2388L75.0942 55.9747L77.3584 58.2388L75.22 61.5093L75.7232 62.1382C76.8552 63.6476 77.3584 65.4086 77.8615 67.0438L77.9873 67.7986L81.8867 68.5533V71.9495L77.9873 72.83L77.8615 73.2074Z" fill="#005E64"/>
<path d="M63.2704 60.8804C60.7547 60.8804 58.4905 61.7609 56.6037 63.6477C54.9685 65.5345 53.8364 67.7986 53.8364 70.3143C53.8364 75.3458 57.9874 79.4967 63.2704 79.4967C65.7861 79.4967 68.0503 78.6162 69.9371 76.7294C71.5723 74.8426 72.7043 72.5785 72.7043 70.0628C72.5786 65.0313 68.3018 60.8804 63.2704 60.8804ZM68.3018 75.22C66.9182 76.6036 65.283 77.3584 63.3962 77.3584V78.4904V77.3584C59.4968 77.3584 56.3521 74.3395 56.3521 70.3143C56.3521 68.4275 57.1069 66.6665 58.3647 65.4087C59.7484 64.025 61.3836 63.2703 63.3962 63.2703C67.2955 63.2703 70.4402 66.2892 70.4402 70.3143C70.3144 72.2011 69.5597 73.8363 68.3018 75.22Z" fill="#005E64"/>
<path d="M43.2703 82.5155L45.786 80.6288L43.2703 75.5973L40.2514 76.4778C39.6225 75.7231 38.8678 75.0942 37.9873 74.4652L38.4904 71.4464L33.0816 69.5596L31.4464 72.3269C30.5659 72.3269 29.4338 72.3269 28.5533 72.4527L26.6665 69.8111L21.7609 72.3269L22.6414 75.3457C21.8867 75.9747 21.2577 76.7294 20.6288 77.6099L17.6099 77.1067L15.7231 82.5155L18.4904 84.025C18.4904 84.9055 18.4904 86.0376 18.6162 86.9181L15.9747 88.8049L18.4904 93.8363L21.5093 92.9558C22.1382 93.7105 22.893 94.3394 23.7735 94.9684L23.3961 98.113L28.8049 99.9998L30.3143 97.2325C31.4464 97.2325 32.3269 97.2325 33.2074 97.1067L35.0942 99.6225L40.1257 97.1067L39.2452 94.0879C39.9999 93.4589 40.6288 92.7042 41.2577 91.8237L44.2766 92.3269L46.1634 86.9181L43.3961 85.4086C43.3961 84.4023 43.3961 83.396 43.2703 82.5155ZM42.7672 89.6854L39.9999 89.4338L39.4967 90.0627C38.8678 91.1948 37.9873 92.0753 36.981 92.83L36.4779 93.2074L37.2326 95.8489L35.5974 96.6036L33.9621 94.4652L33.2074 94.591C31.9496 94.8426 30.6917 95.0942 29.5596 94.8426L28.8049 94.7168L27.4213 97.2325L25.786 96.6036L26.2892 93.8363L25.6603 93.3332C24.5282 92.7042 23.6477 91.9495 22.893 90.8174L22.3898 90.1885L19.7483 90.9432L18.9936 89.308L21.1319 87.6728L21.0062 86.9181C20.7546 85.6602 20.7546 84.4023 20.7546 83.2703L20.8804 82.5155L18.3647 81.1319L18.9936 79.4967L21.7609 79.9998L22.264 79.3709C22.893 78.2388 23.6477 77.3583 24.7797 76.6036L25.4087 76.1005L24.654 73.4589L26.2892 72.7042L27.9244 74.8426L28.6791 74.7168C29.937 74.4652 31.1948 74.2137 32.3269 74.4652L33.0816 74.591L34.4653 72.0753L36.1005 72.7042L35.5974 75.4715L36.2263 75.9747C37.3584 76.6036 38.2389 77.4841 38.9936 78.4904L39.4967 79.1193L42.1382 78.3646L42.893 79.9998L40.7546 81.635L40.8804 82.3898C41.1319 83.6476 41.3835 84.9055 41.132 86.0376L40.8804 86.7923L43.3961 88.1759L42.7672 89.6854Z" fill="#005E64"/>
<path d="M33.082 78.1134C32.3273 77.8618 31.5726 77.8618 30.9436 77.8618C28.0506 77.8618 25.409 79.7486 24.5285 82.5159C23.7738 84.1511 23.8996 86.1637 24.6543 87.7989C25.409 89.4341 26.7927 90.692 28.6795 91.3209C29.4342 91.5725 30.1889 91.5725 30.8178 91.5725C33.7109 91.5725 36.3524 89.6857 37.2329 86.9184C38.6166 83.3964 36.604 79.3712 33.082 78.1134ZM35.2204 86.1637C34.5914 88.0505 32.7046 89.1826 30.9436 89.1826C30.4405 89.1826 29.8116 89.0568 29.4342 88.931C28.1763 88.4278 27.2958 87.6731 26.7927 86.6668C26.1638 85.5348 26.1638 84.2769 26.6669 83.019C27.2958 81.1323 29.1826 80.0002 30.9436 80.0002C31.4468 80.0002 32.0757 80.126 32.4531 80.2518C34.7172 81.258 35.9751 83.8996 35.2204 86.1637Z" fill="#005E64"/>
<path d="M94.3396 0H5.66038C2.64151 0 0 2.64151 0 5.66038V76.478C0 79.7484 2.64151 82.1384 5.66038 82.1384H13.7107V80H5.66038C3.77358 80 2.26415 78.4906 2.26415 76.6038V14.4654H97.6101V76.6038C97.6101 78.4906 96.1006 80 94.2138 80H82.3899V82.2642H94.3396C97.6101 82.2642 100 79.6226 100 76.6038V5.78616C100 2.64151 97.3585 0 94.3396 0ZM2.26415 12.2013V5.66038C2.26415 3.77358 3.77358 2.26415 5.66038 2.26415H94.3396C96.2264 2.26415 97.7358 3.77358 97.7358 5.66038V12.0755C97.7358 12.2013 2.26415 12.2013 2.26415 12.2013Z" fill="#005E64"/>
<path d="M80.1255 6.16357H77.8613V8.42772H80.1255V6.16357Z" fill="#005E64"/>
<path d="M90.8174 6.16357H88.5532V8.42772H90.8174V6.16357Z" fill="#005E64"/>
<path d="M85.5347 6.16357H83.2705V8.42772H85.5347V6.16357Z" fill="#005E64"/>
<path d="M58.3647 19.1196H5.40869V38.6165H58.4905V19.1196H58.3647ZM55.9747 36.4781H7.67284V21.5096H56.1005V36.4781H55.9747Z" fill="#005E64"/>
<path d="M94.5913 19.1196H62.0127V38.6165H94.5913V19.1196ZM92.3272 36.4781H64.2768V21.5096H92.3272V36.4781Z" fill="#005E64"/>
<path d="M76.7298 32.2012C77.6103 32.2012 78.365 31.9496 79.2455 31.4464L82.7675 34.9685L84.4027 33.3332L80.8807 29.8112C81.3839 29.0565 81.6354 28.3018 81.6354 27.2955C81.6354 24.654 79.4971 22.5156 76.8556 22.5156C74.214 22.5156 72.0757 24.654 72.0757 27.2955C72.0757 29.937 73.9625 32.2012 76.7298 32.2012ZM76.7298 24.7798C78.1134 24.7798 79.3713 25.9119 79.3713 27.4213C79.3713 28.8049 78.2392 30.0628 76.7298 30.0628C75.3461 30.0628 74.0883 28.9307 74.0883 27.4213C74.2141 26.0376 75.3461 24.7798 76.7298 24.7798Z" fill="#005E64"/>
</svg>
