<svg width="96" height="96" viewBox="0 0 96 96" fill="none" xmlns="http://www.w3.org/2000/svg">
<circle cx="48" cy="48" r="48" fill="#D8E7E4"/>
<path d="M48.0227 0C41.0682 0 34.3182 0.613636 28.0795 1.94318C26.9545 2.14773 26.2386 3.27273 26.4432 4.39773C26.6477 5.52273 27.7727 6.23864 28.8977 6.03409C34.9318 4.70455 41.2727 4.09091 48.0227 4.09091C73.0795 4.09091 89.9545 12.5795 89.9545 20.4545C89.9545 24.0341 86.4773 27.7159 80.2386 30.7841C79.9318 30.8864 79.7273 30.9886 79.4204 31.0909C78.3977 31.5 77.375 32.0114 76.3523 32.3182C75.6364 30.1705 73.4886 28.4318 70.3182 27.1023L76.8636 19.4318C77.5795 18.6136 77.4773 17.2841 76.6591 16.5682C75.8409 15.8523 74.5114 15.9545 73.7954 16.7727L66.4318 25.5682C66.4318 25.5682 66.3295 25.6705 66.3295 25.7727C63.4659 24.9545 60.2955 24.4432 56.9205 24.0341L60.1932 14.8295C60.6023 13.8068 59.9886 12.5795 58.9659 12.2727C57.8409 11.8636 56.7159 12.4773 56.3068 13.5L52.625 23.8295C51.0909 23.5227 49.5568 23.5227 48.0227 23.5227C46.4886 23.5227 44.9545 23.5227 43.4205 23.625L39.7386 13.2955C39.3295 12.2727 38.2045 11.6591 37.0795 12.0682C36.0568 12.4773 35.4432 13.6023 35.8523 14.625L39.125 23.8295C35.75 24.2386 32.4773 24.75 29.7159 25.5682C29.7159 25.4659 29.6136 25.4659 29.6136 25.3636L22.25 16.6705C21.5341 15.75 20.2045 15.6477 19.3864 16.4659C18.5682 17.1818 18.3636 18.5114 19.1818 19.3295L25.7273 27C22.5568 28.3295 20.4091 30.0682 19.6932 32.2159C18.5682 31.8068 17.5455 31.3977 16.625 30.9886C16.4205 30.7841 16.1136 30.6818 15.8068 30.6818C9.56818 27.7159 6.09091 24.0341 6.09091 20.4545C6.09091 16.6705 9.875 13.6023 12.9432 11.6591C14.1705 10.9432 15.5 10.2273 16.9318 9.61364C17.9545 9.20455 18.4659 7.97727 17.9545 6.95455C17.5455 5.93182 16.3182 5.42045 15.2955 5.93182C13.6591 6.64773 12.2273 7.36364 10.8977 8.18182C5.06818 11.6591 2 15.9545 2 20.4545V69.5455C2 75.0682 6.60227 79.9773 14.2727 83.5568C14.375 83.6591 14.4773 83.6591 14.6818 83.7614C22.9659 87.6477 34.7273 90 48.0227 90C61.3182 90 73.0795 87.6477 81.4659 83.7614C81.5682 83.6591 81.6704 83.6591 81.875 83.5568C89.5454 79.9773 94.1477 75.0682 94.1477 69.5455V20.4545C94.0454 9 73.7955 0 48.0227 0ZM13.25 78.5455C8.64773 75.7841 6.09091 72.6136 6.09091 69.5455V61.875C7.93182 63.7159 10.2841 65.3523 13.25 66.7841V78.5455ZM13.25 62.0795C8.75 59.4205 6.09091 56.3523 6.09091 53.1818V45.5114C7.93182 47.3523 10.2841 48.9886 13.25 50.4205V62.0795ZM13.25 45.7159C8.75 43.0568 6.09091 39.9886 6.09091 36.8182V29.0455C7.93182 30.8864 10.3864 32.5227 13.25 34.0568V45.7159ZM48.0227 27.6136C63.0568 27.6136 72.2614 31.5 72.5682 33.6477C65.9205 35.5909 57.5341 36.8182 48.0227 36.8182C38.5114 36.8182 30.125 35.5909 23.4773 33.6477C23.7841 31.5 32.9886 27.6136 48.0227 27.6136ZM27.5682 83.7614C23.6818 82.8409 20.3068 81.8182 17.3409 80.4886V68.625C20.4091 69.75 23.7841 70.7727 27.5682 71.5909V83.7614ZM27.5682 67.3977C23.6818 66.4773 20.3068 65.4545 17.3409 64.125V52.2614C20.4091 53.3864 23.7841 54.4091 27.5682 55.2273V67.3977ZM54.1591 85.7045C52.2159 85.8068 50.1705 85.9091 48.0227 85.9091C45.875 85.9091 43.8295 85.8068 41.8864 85.7045V63.4091C41.8864 60.0341 44.6477 57.2727 48.0227 57.2727C51.3977 57.2727 54.1591 60.0341 54.1591 63.4091V85.7045ZM64.3864 84.5795C62.4432 84.8864 60.3977 85.1932 58.25 85.3977V63.4091C58.25 57.7841 53.6477 53.1818 48.0227 53.1818C42.3977 53.1818 37.7955 57.7841 37.7955 63.4091V85.3977C35.6477 85.1932 33.6023 84.8864 31.6591 84.5795V47.5568H64.3864V84.5795ZM78.7045 80.5909C75.7386 81.8182 72.3636 82.9432 68.4773 83.8636V71.5909C72.2614 70.7727 75.6364 69.75 78.7045 68.625V80.5909ZM78.7045 64.125C75.7386 65.3523 72.3636 66.4773 68.4773 67.3977V55.2273C72.2614 54.4091 75.6364 53.3864 78.7045 52.2614V64.125ZM78.7045 47.7614C75.7386 48.9886 72.3636 50.1136 68.4773 51.0341V46.5341C68.4773 44.7955 67.1477 43.4659 65.4091 43.4659H30.6364C28.8977 43.4659 27.5682 44.7955 27.5682 46.5341V51.0341C23.6818 50.1136 20.3068 49.0909 17.3409 47.7614V35.7955C25.4205 38.9659 36.1591 40.9091 48.0227 40.9091C59.8864 40.9091 70.625 38.9659 78.7045 35.7955V47.7614ZM89.9545 69.5455C89.9545 72.6136 87.3977 75.7841 82.7955 78.5455V66.7841C85.7614 65.3523 88.1136 63.6136 89.9545 61.875V69.5455ZM89.9545 53.1818C89.9545 56.3523 87.2955 59.4205 82.7955 62.0795V50.4205C85.7614 48.8864 88.1136 47.25 89.9545 45.5114V53.1818ZM89.9545 36.8182C89.9545 39.9886 87.2955 43.0568 82.7955 45.7159V33.9545C85.6591 32.4205 88.1136 30.7841 89.9545 28.9432V36.8182Z" fill="#005E64"/>
<path d="M52.1139 71.5911C52.1139 71.6934 52.1139 71.8979 52.1139 72.0002C52.1139 72.1025 52.0116 72.307 52.0116 72.4093C52.0116 72.5116 51.9094 72.6138 51.8071 72.7161C51.7048 72.8184 51.7048 72.9207 51.6025 73.0229C51.5003 73.1252 51.398 73.2275 51.2957 73.2275C51.1934 73.3298 51.0912 73.3298 50.9889 73.432C50.8866 73.5343 50.7844 73.5343 50.5798 73.5343C50.4775 73.5343 50.273 73.5343 50.1707 73.5343C49.6594 73.5343 49.148 73.3298 48.7389 72.9207C48.6366 72.8184 48.5344 72.7161 48.5344 72.6138C48.4321 72.5116 48.4321 72.4093 48.3298 72.307C48.2275 72.2048 48.2275 72.1025 48.2275 71.8979C48.2275 71.7957 48.2275 71.5911 48.2275 71.4889C48.2275 70.9775 48.4321 70.4661 48.8412 70.057C49.3525 69.5457 49.9662 69.3411 50.6821 69.5457C50.7844 69.5457 50.8866 69.6479 51.0912 69.6479C51.1934 69.7502 51.2957 69.7502 51.398 69.8525C51.5003 69.9548 51.6025 70.057 51.7048 70.057C51.9094 70.5684 52.1139 71.0798 52.1139 71.5911Z" fill="#005E64"/>
<path d="M20.5112 6.341C20.5112 6.44327 20.6135 6.54554 20.7157 6.75009C20.818 6.95463 20.818 6.95463 20.9203 7.05691C21.0226 7.15918 21.1248 7.26145 21.2271 7.26145C21.3294 7.36372 21.4316 7.36373 21.6362 7.466C21.7385 7.56827 21.8407 7.56827 22.0453 7.56827C22.1476 7.56827 22.3521 7.56827 22.4544 7.56827C22.5566 7.56827 22.7612 7.56827 22.8635 7.56827C22.9657 7.56827 23.068 7.466 23.2725 7.466C23.3748 7.466 23.4771 7.36372 23.5794 7.26145C23.6816 7.15918 23.7839 7.15918 23.8862 7.05691C23.9885 6.95463 24.0907 6.85236 24.0907 6.75009C24.193 6.64782 24.193 6.54554 24.2953 6.341C24.3975 6.23872 24.3975 6.13645 24.3975 5.93191C24.3975 5.82963 24.3975 5.62509 24.3975 5.52282C24.3975 5.01145 24.193 4.50009 23.7839 4.091C23.6816 3.98873 23.5794 3.88645 23.4771 3.88645C23.3748 3.78418 23.2726 3.78418 23.1703 3.68191C23.068 3.57963 22.9657 3.57963 22.7612 3.57963C22.4544 3.47736 22.2498 3.47736 21.943 3.57963C21.8407 3.57963 21.7385 3.68191 21.5339 3.68191C21.4316 3.68191 21.3294 3.78418 21.1248 3.88645C21.0226 3.98873 20.9203 3.98873 20.818 4.091C20.7157 4.19327 20.6135 4.29554 20.6135 4.39782C20.5112 4.50009 20.5112 4.60236 20.4089 4.70463C20.3066 4.80691 20.3066 4.90918 20.3066 5.11373C20.3066 5.216 20.3066 5.42054 20.3066 5.52282C20.3066 5.62509 20.3066 5.82963 20.3066 5.93191C20.5112 6.13645 20.5112 6.23872 20.5112 6.341Z" fill="#005E64"/>
</svg>
