<svg width="489" height="246" viewBox="0 0 489 246" fill="none" xmlns="http://www.w3.org/2000/svg">
<path d="M87.7637 137.277H27.2588V51.2617H88.7241L87.7637 137.277Z" fill="white"/>
<path d="M91.6055 133.814H31.1006V47.7979H92.5659L91.6055 133.814Z" stroke="#231F20" stroke-width="2" stroke-miterlimit="10"/>
<path d="M100.921 126.117H40.416V40.1011H101.881L100.921 126.117Z" fill="white"/>
<path d="M104.763 122.653H44.2578V36.6372H105.723L104.763 122.653Z" stroke="#231F20" stroke-width="2" stroke-miterlimit="10"/>
<path d="M115.039 108.317H54.5342V22.3013H116L115.039 108.317Z" fill="white"/>
<path d="M118.881 104.853H58.376V18.8374H119.841L118.881 104.853Z" stroke="#231F20" stroke-width="2" stroke-miterlimit="10"/>
<path d="M130.021 11.5254H68.5557V97.4449H130.021V11.5254Z" fill="white"/>
<path d="M132.902 8.06152H72.3975V93.9811H132.902V8.06152Z" stroke="#231F20" stroke-width="2" stroke-miterlimit="10"/>
<path d="M101.689 123.615H40.416V126.79H101.689V123.615Z" fill="#D8E7E4"/>
<path d="M43.1051 40.1011H40.416V126.694H43.1051V40.1011Z" fill="#D8E7E4"/>
<path d="M116.48 105.815H54.5342V109.087H116.48V105.815Z" fill="#D8E7E4"/>
<path d="M57.2233 22.4937H54.5342V109.087H57.2233V22.4937Z" fill="#D8E7E4"/>
<path d="M131.27 94.9434H68.5557V97.7336H131.27V94.9434Z" fill="#D8E7E4"/>
<path d="M71.2448 11.2363H68.5557V97.8294H71.2448V11.2363Z" fill="#D8E7E4"/>
<path d="M95.8302 16.7207H80.1758V36.9258H95.8302V16.7207Z" fill="#F88600" stroke="black" stroke-miterlimit="10"/>
<path d="M126.371 44.9116H80.1758V81.9542H126.371V44.9116Z" stroke="black" stroke-miterlimit="10"/>
<path d="M101.305 18.1641H126.371" stroke="black" stroke-miterlimit="10"/>
<path d="M101.305 22.4937H126.371" stroke="black" stroke-miterlimit="10"/>
<path d="M101.305 26.4385H126.371" stroke="black" stroke-miterlimit="10"/>
<path d="M101.305 30.7681H126.371" stroke="black" stroke-miterlimit="10"/>
<path d="M101.305 35.0015H126.371" stroke="black" stroke-miterlimit="10"/>
<path d="M80.1758 52.6089H126.371" stroke="black" stroke-miterlimit="10"/>
<path d="M80.1758 58.6704H126.371" stroke="black" stroke-miterlimit="10"/>
<path d="M80.1758 64.4429H126.371" stroke="black" stroke-miterlimit="10"/>
<path d="M80.1758 70.4082H126.371" stroke="black" stroke-miterlimit="10"/>
<path d="M80.1758 76.1812H126.371" stroke="black" stroke-miterlimit="10"/>
<path d="M103.226 81.9542V44.9116" stroke="black" stroke-miterlimit="10"/>
<path d="M99.2884 151.71V113.224H51.2686V151.71" fill="#D8E7E4"/>
<path d="M99.2884 151.71V113.224H51.2686V151.71" stroke="#231F20" stroke-width="2" stroke-miterlimit="10"/>
<path d="M167.188 151.71V113.224H119.168V151.71" fill="#D8E7E4"/>
<path d="M167.188 151.71V113.224H119.168V151.71" stroke="#231F20" stroke-width="2" stroke-miterlimit="10"/>
<path d="M167.188 151.71V113.224H119.168V151.71" stroke="#231F20" stroke-width="2" stroke-miterlimit="10"/>
<path d="M79.1202 126.694L74.7023 124.577L70.1885 126.694V113.224H79.1202V126.694Z" fill="#F88600" stroke="#231F20" stroke-width="2" stroke-miterlimit="10"/>
<path d="M147.692 126.694L143.178 124.577L138.664 126.694V113.224H147.692V126.694Z" fill="#F88600" stroke="#231F20" stroke-width="2" stroke-miterlimit="10"/>
<path d="M21.6884 166.142C20.8241 166.912 19.9597 167.681 19.1914 168.643C18.8072 169.124 18.1349 169.317 17.4627 169.124L14.2934 168.162C13.525 167.874 12.6607 168.259 12.3726 169.028L10.4518 173.647C10.1637 174.416 10.4518 175.282 11.1241 175.667L14.0052 177.206C14.5815 177.495 14.8696 178.169 14.7736 178.746C14.6775 179.9 14.6775 181.055 14.7736 182.306C14.8696 182.979 14.4854 183.557 13.9092 183.845L11.028 185.385C10.3557 185.77 9.97158 186.635 10.3557 187.405L12.1805 192.023C12.4686 192.793 13.333 193.178 14.1013 192.986L17.2706 192.023C17.8468 191.831 18.5191 192.023 18.9033 192.505C19.6716 193.37 20.4399 194.236 21.4003 195.006C21.8805 195.391 22.0726 196.064 21.8805 196.642L20.9201 199.817C20.728 200.587 21.1122 201.453 21.7844 201.741L26.3943 203.665C27.1627 203.954 28.027 203.665 28.4112 202.992L29.9478 200.105C30.2359 199.528 30.9082 199.24 31.4844 199.336C32.6369 199.432 33.7894 199.432 35.0379 199.336C35.7102 199.24 36.2864 199.624 36.5745 200.202L38.1112 203.088C38.4953 203.762 39.3597 204.147 40.128 203.762L44.7379 201.934C45.5062 201.645 45.8904 200.779 45.6023 200.009L44.6419 196.834C44.4498 196.257 44.6419 195.583 45.1221 195.199C45.9864 194.429 46.8508 193.659 47.6191 192.697C48.0033 192.216 48.6755 192.023 49.2518 192.216L52.4211 193.178C53.1894 193.37 54.0538 192.986 54.3419 192.312L56.2627 187.694C56.5508 186.924 56.2627 186.058 55.5904 185.673L52.7092 184.134C52.133 183.845 51.8448 183.172 51.9409 182.594C52.0369 181.44 52.0369 180.285 51.9409 179.035C51.8448 178.361 52.229 177.784 52.8052 177.495L55.6864 175.956C56.3587 175.571 56.7429 174.705 56.3587 173.935L54.534 169.317C54.2458 168.547 53.3815 168.162 52.6132 168.355L49.4439 169.317C48.8676 169.509 48.1953 169.317 47.8112 168.74C47.0429 167.874 46.2745 167.008 45.3142 166.238C44.834 165.853 44.6419 165.18 44.834 164.602L45.7943 161.427C45.9864 160.658 45.6023 159.792 44.93 159.503L40.3201 157.579C39.5518 157.29 38.6874 157.579 38.3033 158.252L36.7666 161.139C36.4785 161.716 35.8062 162.005 35.23 161.908C34.0775 161.812 32.925 161.812 31.6765 161.908C31.0043 162.005 30.428 161.62 30.1399 161.042L28.6033 158.156C28.2191 157.482 27.3547 157.098 26.5864 157.482L21.9765 159.311C21.2082 159.599 20.8241 160.465 21.0161 161.235L21.9765 164.41C22.4567 165.083 22.2646 165.757 21.6884 166.142Z" stroke="#94CCC1" stroke-width="2" stroke-miterlimit="10"/>
<path d="M187.164 151.71H30.8119C14.8693 151.71 2 164.603 2 180.574C2 196.546 14.8693 209.439 30.8119 209.439H186.876" stroke="#2B2B2B" stroke-width="4" stroke-miterlimit="10"/>
<path d="M208.581 48.7601L228.365 28.9399H311.728" stroke="#231F20" stroke-width="2" stroke-miterlimit="10"/>
<path d="M326.134 48.7603L341.404 33.5584H375.882L395.57 13.8345" stroke="#231F20" stroke-width="2" stroke-miterlimit="10"/>
<path d="M375.882 33.5581H420.54" stroke="#231F20" stroke-width="2" stroke-miterlimit="10"/>
<path d="M318.834 36.0601C322.76 36.0601 325.941 32.8724 325.941 28.9402C325.941 25.008 322.76 21.8203 318.834 21.8203C314.909 21.8203 311.728 25.008 311.728 28.9402C311.728 32.8724 314.909 36.0601 318.834 36.0601Z" stroke="#94CCC1" stroke-width="4" stroke-miterlimit="10"/>
<path d="M400.756 16.2397C404.681 16.2397 407.863 13.0521 407.863 9.11987C407.863 5.18768 404.681 2 400.756 2C396.831 2 393.649 5.18768 393.649 9.11987C393.649 13.0521 396.831 16.2397 400.756 16.2397Z" stroke="#94CCC1" stroke-width="4" stroke-miterlimit="10"/>
<path d="M427.648 40.2935C431.573 40.2935 434.755 37.1058 434.755 33.1736C434.755 29.2414 431.573 26.0537 427.648 26.0537C423.723 26.0537 420.541 29.2414 420.541 33.1736C420.541 37.1058 423.723 40.2935 427.648 40.2935Z" stroke="#94CCC1" stroke-width="4" stroke-miterlimit="10"/>
<path d="M454.347 214.634L479.317 189.983V165.564" stroke="#231F20" stroke-width="2" stroke-miterlimit="10"/>
<path d="M478.836 166.527C483.345 166.527 487 162.865 487 158.349C487 153.832 483.345 150.17 478.836 150.17C474.328 150.17 470.673 153.832 470.673 158.349C470.673 162.865 474.328 166.527 478.836 166.527Z" stroke="#94CCC1" stroke-width="4" stroke-miterlimit="10"/>
<path opacity="0.5" d="M463.662 56.4575H194.751V246H463.662V56.4575Z" fill="white"/>
<path opacity="0.5" d="M187.164 209.439H347.742C363.685 209.439 376.554 196.546 376.554 180.574C376.554 164.603 363.685 151.71 347.742 151.71H187.164" stroke="#005E64" stroke-width="2" stroke-miterlimit="10"/>
<path d="M186.876 209.438H187.164" stroke="#231F20" stroke-width="2" stroke-miterlimit="10"/>
<path d="M450.217 50.6845V232.53H188.989V50.6845H450.217ZM454.058 46.8359H185.147V236.379H454.058V46.8359Z" fill="#016065"/>
<path d="M247.189 137.278V56.4575" stroke="white" stroke-miterlimit="10" stroke-dasharray="4 4"/>
<path d="M301.836 172.588V56.4575" stroke="white" stroke-miterlimit="10" stroke-dasharray="4 4"/>
<path d="M355.138 123.23V56.4575" stroke="white" stroke-miterlimit="10" stroke-dasharray="4 4"/>
<path d="M409.496 140.164V56.4575" stroke="white" stroke-miterlimit="10" stroke-dasharray="4 4"/>
<path d="M194.751 193.948L247.189 137.278L301.835 172.588L355.137 123.23L409.496 140.164L450.024 107.836" stroke="#F88600" stroke-width="5" stroke-miterlimit="10" stroke-linecap="round"/>
<path d="M450.312 121.499L447.143 110.049L436.771 104.469L463.662 96.8677L450.312 121.499Z" fill="#F88600"/>
<path d="M254.296 140.164C254.296 141.992 253.624 143.628 252.471 144.878C251.223 146.322 249.302 147.187 247.189 147.187C245.076 147.187 243.251 146.322 241.907 144.782C240.754 143.531 240.082 141.896 240.082 140.068C240.082 136.123 243.251 132.948 247.189 132.948C251.127 133.14 254.296 136.315 254.296 140.164Z" fill="white" stroke="#F88600" stroke-width="2" stroke-miterlimit="10"/>
<path d="M308.847 170.664C308.847 172.492 308.174 174.128 307.022 175.378C305.773 176.822 303.853 177.688 301.74 177.688C299.627 177.688 297.802 176.822 296.458 175.282C295.305 174.031 294.633 172.396 294.633 170.568C294.633 166.623 297.802 163.448 301.74 163.448C305.677 163.448 308.847 166.719 308.847 170.664Z" fill="white" stroke="#F88600" stroke-width="2" stroke-miterlimit="10"/>
<path d="M362.148 124.193C362.148 126.021 361.476 127.656 360.324 128.907C359.075 130.35 357.154 131.216 355.041 131.216C352.929 131.216 351.104 130.35 349.759 128.811C348.607 127.56 347.935 125.925 347.935 124.096C347.935 120.152 351.104 116.977 355.041 116.977C358.979 116.977 362.148 120.248 362.148 124.193Z" fill="white" stroke="#F88600" stroke-width="2" stroke-miterlimit="10"/>
<path d="M416.603 139.683C416.603 141.511 415.93 143.147 414.778 144.397C413.529 145.841 411.608 146.707 409.496 146.707C407.383 146.707 405.558 145.841 404.213 144.301C403.061 143.05 402.389 141.415 402.389 139.587C402.389 135.642 405.558 132.467 409.496 132.467C413.433 132.659 416.603 135.834 416.603 139.683Z" fill="white" stroke="#F88600" stroke-width="2" stroke-miterlimit="10"/>
<path opacity="0.5" d="M336.218 166.142C335.353 166.912 334.489 167.681 333.721 168.643C333.337 169.124 332.664 169.317 331.992 169.124L328.823 168.162C328.054 167.874 327.19 168.259 326.902 169.028L324.981 173.647C324.693 174.416 324.981 175.282 325.653 175.667L328.535 177.206C329.111 177.495 329.399 178.169 329.303 178.746C329.207 179.9 329.207 181.055 329.303 182.306C329.399 182.979 329.015 183.557 328.438 183.845L325.557 185.385C324.885 185.77 324.501 186.635 324.885 187.405L326.71 192.023C326.998 192.793 327.862 193.178 328.631 192.986L331.8 192.023C332.376 191.831 333.048 192.023 333.433 192.505C334.201 193.37 334.969 194.236 335.93 195.006C336.41 195.391 336.602 196.064 336.41 196.642L335.449 199.817C335.257 200.587 335.641 201.453 336.314 201.741L340.924 203.665C341.692 203.954 342.556 203.665 342.94 202.992L344.477 200.105C344.765 199.528 345.438 199.24 346.014 199.336C347.166 199.432 348.319 199.432 349.567 199.336C350.239 199.24 350.816 199.624 351.104 200.202L352.64 203.088C353.025 203.762 353.889 204.147 354.657 203.762L359.267 201.934C360.036 201.645 360.42 200.779 360.132 200.009L359.171 196.834C358.979 196.257 359.171 195.583 359.651 195.199C360.516 194.429 361.38 193.659 362.148 192.697C362.533 192.216 363.205 192.023 363.781 192.216L366.95 193.178C367.719 193.37 368.583 192.986 368.871 192.312L370.792 187.694C371.08 186.924 370.792 186.058 370.12 185.673L367.238 184.134C366.662 183.845 366.374 183.172 366.47 182.594C366.566 181.44 366.566 180.285 366.47 179.035C366.374 178.361 366.758 177.784 367.335 177.495L370.216 175.956C370.888 175.571 371.272 174.705 370.888 173.935L369.063 169.317C368.775 168.547 367.911 168.162 367.142 168.355L363.973 169.317C363.397 169.509 362.725 169.317 362.34 168.74C361.572 167.874 360.804 167.008 359.843 166.238C359.363 165.853 359.171 165.18 359.363 164.602L360.324 161.427C360.516 160.658 360.132 159.792 359.459 159.503L354.849 157.579C354.081 157.29 353.217 157.579 352.833 158.252L351.296 161.139C351.008 161.716 350.336 162.005 349.759 161.908C348.607 161.812 347.454 161.812 346.206 161.908C345.534 162.005 344.957 161.62 344.669 161.042L343.133 158.156C342.748 157.482 341.884 157.098 341.116 157.482L336.506 159.311C335.737 159.599 335.353 160.465 335.545 161.235L336.506 164.41C336.986 165.083 336.698 165.757 336.218 166.142Z" stroke="#005E64" stroke-width="2" stroke-miterlimit="10"/>
<path d="M99.2879 175.763C103.266 175.763 106.491 172.532 106.491 168.547C106.491 164.562 103.266 161.331 99.2879 161.331C95.3098 161.331 92.085 164.562 92.085 168.547C92.085 172.532 95.3098 175.763 99.2879 175.763Z" stroke="#94CCC1" stroke-width="2" stroke-miterlimit="10"/>
<path d="M99.2882 180.574C105.918 180.574 111.293 175.19 111.293 168.547C111.293 161.905 105.918 156.521 99.2882 156.521C92.658 156.521 87.2832 161.905 87.2832 168.547C87.2832 175.19 92.658 180.574 99.2882 180.574Z" stroke="#94CCC1" stroke-width="2" stroke-miterlimit="10"/>
<path d="M167.188 175.763C171.166 175.763 174.391 172.532 174.391 168.547C174.391 164.562 171.166 161.331 167.188 161.331C163.21 161.331 159.985 164.562 159.985 168.547C159.985 172.532 163.21 175.763 167.188 175.763Z" stroke="#94CCC1" stroke-width="2" stroke-miterlimit="10"/>
<path d="M167.189 180.574C173.819 180.574 179.193 175.19 179.193 168.547C179.193 161.905 173.819 156.521 167.189 156.521C160.558 156.521 155.184 161.905 155.184 168.547C155.184 175.19 160.558 180.574 167.189 180.574Z" stroke="#94CCC1" stroke-width="2" stroke-miterlimit="10"/>
</svg>
